<svg aria-hidden="true" xmlns="http://www.w3.org/2000/svg">
  <defs>
    <!--Logo Icons-->
    <symbol id="icon-main-logo" viewBox="0 0 30 32">
      <path d="M20.093 0h2.11c-.032 1.166-.528 2.071-1.438 2.767 1.225 1.926 1.171 3.805-.165 5.664.032.024.066.059.106.08 1.109.571 1.7 1.491 1.807 2.716.075.862-.084 1.686-.53 2.44a2.935 2.935 0 0 1-4.699.521c-.276-.292-.524-.61-.779-.922a1.283 1.283 0 0 0-1.402-.426c-.479.161-.761.574-.767 1.151a8.43 8.43 0 0 0 .03.778c.013.153-.033.213-.19.211-.512-.006-1.025.004-1.538-.01-.069-.002-.183-.095-.194-.16-.111-.676-.107-1.349.09-2.014.491-1.659 2.085-2.502 3.75-2.004.709.212 1.247.637 1.696 1.2.12.15.243.299.36.453.308.408.715.628 1.224.532.529-.1.807-.497.935-.984a1.887 1.887 0 0 0-.412-1.786c-.452-.528-1.036-.538-1.64-.347-2.195.692-4.529-.271-5.554-2.302a4.587 4.587 0 0 1 .616-5.056c1.236-1.435 3.17-1.966 4.989-1.369.714.234 1.368-.138 1.539-.877l.056-.257-.001.001zm-5.554 5.473a2.479 2.479 0 0 0 2.463 2.493 2.474 2.474 0 1 0 .036-4.949 2.477 2.477 0 0 0-2.499 2.456l.001.001z"/>
      <path d="M8.644 10.581c0-1.373.005-2.746-.005-4.118-.002-.241.067-.313.311-.311 1.579.01 3.158.009 4.737.001.216-.001.296.05.289.279a29.8 29.8 0 0 0-.001 1.582c.005.204-.053.276-.267.273-.856-.011-1.713-.005-2.57-.005-.241 0-.361.124-.361.372v6.026c0 .22-.109.33-.327.33-.504 0-1.009-.011-1.512.005-.229.008-.3-.056-.299-.291.01-1.381.005-2.762.005-4.143l.001.001zM7.953 2.65A1.823 1.823 0 0 1 9.792.843a1.82 1.82 0 1 1-.027 3.642 1.824 1.824 0 0 1-1.813-1.834zM2.957 19.639v4.641H1.893v-4.641h1.064zM8.127 19.639v4.641H7.056l-2.123-2.937v2.937H3.869v-4.641h1.098l2.096 2.897v-2.897h1.065zM12.458 20.043l-.452.709a2.137 2.137 0 0 0-1.224-.385c-.111 0-.217.01-.319.03s-.199.064-.293.133a.317.317 0 0 0-.139.268c0 .141.071.25.213.325.133.075.359.164.678.265.408.124.705.227.892.312.563.252.845.665.845 1.24 0 .261-.058.488-.173.683s-.27.346-.466.454c-.195.109-.402.188-.622.239s-.451.076-.695.076c-.47 0-.878-.082-1.224-.245-.355-.168-.619-.338-.792-.511l.526-.703c.466.385.973.577 1.524.577.222 0 .42-.042.595-.126s.263-.223.263-.418a.438.438 0 0 0-.12-.312 1.168 1.168 0 0 0-.319-.199 6.64 6.64 0 0 0-.559-.179c-.186-.053-.339-.101-.459-.142s-.256-.103-.409-.182c-.153-.079-.274-.164-.363-.252s-.164-.204-.226-.348a1.203 1.203 0 0 1-.093-.481c0-.451.171-.79.512-1.018s.749-.341 1.224-.341c.612 0 1.171.177 1.677.53l.001-.001zM14.401 19.639v4.641h-1.064v-4.641h1.064zM19.317 20.149l-.539.756c-.364-.292-.752-.438-1.164-.438s-.755.142-1.014.428c-.259.285-.389.637-.389 1.057s.132.777.396 1.07c.264.294.6.441 1.008.441.35 0 .69-.117 1.018-.351v-.743h-1.191v-.743h2.155v1.783c-.519.654-1.187.981-2.003.981-.701 0-1.288-.235-1.76-.706s-.708-1.051-.708-1.74.24-1.295.722-1.75c.481-.455 1.077-.683 1.787-.683s1.244.212 1.683.636h-.002zM24.413 19.639v4.641h-1.064v-1.876h-1.896v1.876h-1.064v-4.641h1.064v1.81h1.896v-1.81h1.064zM28.918 19.639v.902h-1.43v3.739h-1.064v-3.739h-1.43v-.902h3.925zM4.192 27.757l-.539.756c-.364-.292-.752-.438-1.164-.438s-.755.142-1.014.428c-.259.285-.389.637-.389 1.057s.132.777.396 1.07c.264.294.6.441 1.008.441.35 0 .69-.117 1.018-.351v-.742H2.317v-.743h2.155v1.783c-.519.654-1.187.981-2.003.981-.701 0-1.288-.235-1.76-.706s-.708-1.051-.708-1.74c0-.689.24-1.295.722-1.75S1.8 27.12 2.51 27.12s1.244.212 1.683.636h-.002zM9.008 28.685c0 .331-.092.61-.276.836s-.438.389-.762.49l1.191 1.876H7.97l-1.085-1.79h-.559v1.79H5.262v-4.641h2.069c.474 0 .873.126 1.194.378s.482.605.482 1.061h.001zm-1.776-.603h-.905v1.233h.905c.204 0 .371-.053.499-.159s.193-.258.193-.457-.063-.357-.19-.461-.294-.156-.503-.156v-.001zM13.639 27.816c.47.464.705 1.045.705 1.744s-.239 1.279-.715 1.743c-.477.464-1.063.696-1.759.696s-1.29-.234-1.766-.703c-.477-.469-.715-1.047-.715-1.737s.24-1.279.719-1.744c.479-.464 1.067-.696 1.763-.696s1.3.232 1.77.696l-.001.001zm-3.174 1.744c0 .407.133.755.399 1.044s.599.434.998.434.743-.145 1.005-.434c.262-.289.392-.637.392-1.044s-.13-.772-.389-1.057c-.259-.285-.595-.428-1.008-.428s-.743.145-1.005.434-.392.64-.392 1.051h-.001zM21.549 27.247l-1.417 4.641h-1.184l-.972-3.195-.965 3.195h-1.184l-1.424-4.641h1.151l.912 3.235.984-3.235h1.058l.978 3.235.912-3.235h1.151zM25.694 27.247v.902h-1.43v3.739H23.2v-3.739h-1.43v-.902h3.925zM30.298 27.247v4.641h-1.064v-1.876h-1.896v1.876h-1.064v-4.641h1.064v1.809h1.896v-1.809h1.064z"/>
    </symbol>

    <!--Servise Icons-->
    <symbol id="icon-line" viewBox="0 0 533 32">
      <path d="m0 16 26.667 15.396V.604L0 16zm533.333 0L506.666.604v30.792L533.333 16zM24 18.667h485.333v-5.333H24v5.333z"/>
    </symbol>
    <symbol id="icon-menu" viewBox="0 0 32 32">
    <path d="M24.033 3.121H2.059c-2.35-.078-2.35 3.027 0 2.949h21.886c2.307.078 2.397-2.949.09-2.949h-.002zM2.059 14.915c-2.26 0-2.26 2.947 0 2.947h12.389c2.307 0 2.307-2.947 0-2.947H2.059zm0 11.794c-2.26 0-2.26 2.948 0 2.948h27.762c2.26 0 2.26-2.947 0-2.947H2.059z"/>
    </symbol>
    <symbol id="icon-close" viewBox="0 0 32 32">
    <path d="m17.88 16 8.4-8.387a1.34 1.34 0 0 0-1.894-1.894l-8.387 8.4-8.387-8.4a1.34 1.34 0 0 0-1.894 1.894l8.4 8.387-8.4 8.387a1.334 1.334 0 0 0 0 1.894 1.334 1.334 0 0 0 1.894 0l8.387-8.4 8.387 8.4a1.334 1.334 0 0 0 1.894 0 1.334 1.334 0 0 0 0-1.894L17.88 16z"/>
    </symbol>
    <symbol id="icon-arrow-forward" viewBox="0 0 31 32">
    <path fill="none" stroke="#fff" style="stroke: var(--color1, #fff)" stroke-linejoin="round" stroke-linecap="round" stroke-miterlimit="4" stroke-width="2.7826" d="M-3.228 15.627l31.411-0.169M28.183 15.457l-11.837 12.986M28.183 15.457l-11.721-12.859"></path>
    </symbol>
    <symbol id="icon-subtract-arrow" viewBox="0 0 32 32">
      <path d="M16 32c8.837 0 16-7.163 16-16s-7.163-16-16-16c-8.837 0-16 7.163-16 16s7.163 16 16 16zM13.181 20.571c0-0.295 0.239-0.533 0.533-0.533h5.57l-8.232-8.232c-0.208-0.208-0.208-0.546 0-0.754s0.546-0.208 0.754 0l8.232 8.232v-5.57c0-0.295 0.239-0.533 0.533-0.533s0.533 0.239 0.533 0.533v6.857c0 0.295-0.239 0.533-0.533 0.533h-6.857c-0.295 0-0.533-0.239-0.533-0.533z"></path>
    </symbol>
    <symbol id="icon-Subtract" viewBox="0 0 32 32">
      <path fill="#fff" style="fill: var(--color1, #fff)" d="M16 32c8.837 0 16-7.163 16-16s-7.163-16-16-16c-8.837 0-16 7.163-16 16s7.163 16 16 16zM13.181 20.571c0-0.295 0.239-0.533 0.533-0.533h5.57l-8.232-8.232c-0.208-0.208-0.208-0.546 0-0.754s0.546-0.208 0.754 0l8.232 8.232v-5.57c0-0.295 0.239-0.533 0.533-0.533s0.533 0.239 0.533 0.533v6.857c0 0.295-0.239 0.533-0.533 0.533h-6.857c-0.295 0-0.533-0.239-0.533-0.533z"></path>
    </symbol>
    <symbol id="icon-Subtract" viewBox="0 0 32 32">
      <path fill="#fff" style="fill: var(--color1, #fff)" d="M16 32c8.837 0 16-7.163 16-16s-7.163-16-16-16c-8.837 0-16 7.163-16 16s7.163 16 16 16zM13.181 20.571c0-0.295 0.239-0.533 0.533-0.533h5.57l-8.232-8.232c-0.208-0.208-0.208-0.546 0-0.754s0.546-0.208 0.754 0l8.232 8.232v-5.57c0-0.295 0.239-0.533 0.533-0.533s0.533 0.239 0.533 0.533v6.857c0 0.295-0.239 0.533-0.533 0.533h-6.857c-0.295 0-0.533-0.239-0.533-0.533z"></path>
    </symbol>

    <!--Socials Icons-->
    <symbol id="icon-viber" viewBox="0 0 32 32">
      <path d="M16 1.333C8.907 1.333 1.333 2.306 1.333 14c0 6.187 2.187 10 6.667 11.627v3a2.035 2.035 0 0 0 1.327 1.899 2.037 2.037 0 0 0 2.246-.566l2.92-3.293H16c7.093 0 14.667-.973 14.667-12.667S23.094 1.333 16 1.333zm0 9.334a2.668 2.668 0 0 1 2.667 2.667.665.665 0 1 1-1.332 0A1.333 1.333 0 0 0 16.002 12a.665.665 0 1 1 0-1.332zm-.667-2a.665.665 0 0 1 .666-.666 5.334 5.334 0 0 1 5.333 5.333.665.665 0 1 1-1.332 0 4.003 4.003 0 0 0-4-4 .665.665 0 0 1-.666-.666zm7.334 10.666a4.004 4.004 0 0 1-4 3.334c-2.093 0-6.12-2.507-7.8-4.2s-4.2-5.707-4.2-7.8a4 4 0 0 1 3.334-4h1.333a.673.673 0 0 1 .6.374s.8 1.627 1.333 2.667-.52 2.52-1.16 3.16a8.009 8.009 0 0 0 1.693 2.667 7.983 7.983 0 0 0 2.667 1.693 3.997 3.997 0 0 1 2.44-1.333c.246 0 .488.06.707.173l2.667 1.333a.668.668 0 0 1 .374.6l.013 1.333zM23.333 14a.665.665 0 0 1-.666-.666A6.67 6.67 0 0 0 16 6.667a.665.665 0 1 1 0-1.332 8 8 0 0 1 8 8 .665.665 0 0 1-.666.666z"/>
    </symbol>
    <symbol id="icon-whats-app" viewBox="0 0 32 32">
      <path d="M16.412 1C8.687 1 2.431 7.256 2.431 14.981a13.94 13.94 0 0 0 2.737 8.312l-3.563 7.706.931-.431 7.175-3.312a13.9 13.9 0 0 0 6.694 1.706c7.719 0 13.981-6.256 13.981-13.981C30.392 7.256 24.13 1 16.411 1zm7.457 19.95c-.081.388-.25.756-.494 1.081-.3.4-.688.7-1.131.887s-.931.263-1.419.2a9.385 9.385 0 0 1-3.7-1.25c-1.306-.775-3.063-1.981-4.388-3.706-1.412-1.656-2.181-3.594-2.669-5.038a9.468 9.468 0 0 1-.45-3.875c.044-.494.219-.956.494-1.35s.656-.713 1.106-.919a2.714 2.714 0 0 1 1.163-.256c.562 0 1.25-.006 1.725.331.738.519 1.05 1.544 1.05 2.444 0 .081-.006.169-.012.25-.044.494-.088.925-.369 1.319-.275.394-.781.738-1.231.95.344 1.85.938 3.225 1.756 4.113.35.487.825.95 1.431 1.381s1.337.825 2.206 1.188c.3-.394.744-.819 1.188-1.006.437-.188.875-.144 1.362-.081.081.012.169.025.25.044.875.188 1.812.706 2.169 1.538.225.538.081 1.206-.038 1.756z"/>
    </symbol>
    <symbol id="icon-facebook" viewBox="0 0 32 32">
      <path d="M24.571 2.286c1.417 0 2.628.503 3.634 1.509s1.509 2.217 1.509 3.634v17.143c0 1.417-.503 2.628-1.509 3.634s-2.217 1.509-3.634 1.509h-3.357V19.09h3.554l.536-4.143h-4.089v-2.643c0-.667.14-1.167.42-1.5s.824-.5 1.634-.5l2.179-.018V6.59c-.75-.107-1.81-.161-3.179-.161-1.619 0-2.914.476-3.884 1.429s-1.455 2.298-1.455 4.036v3.054h-3.571v4.143h3.571v10.625h-9.5c-1.417 0-2.628-.503-3.634-1.509s-1.509-2.217-1.509-3.634V7.43c0-1.417.503-2.628 1.509-3.634S6.013 2.287 7.43 2.287h17.143z"/>
    </symbol>
    <symbol id="icon-instagram" viewBox="0 0 32 32">
      <path d="M16 12.693a3.31 3.31 0 0 0-3.055 2.041 3.304 3.304 0 0 0 2.41 4.508 3.304 3.304 0 0 0 3.699-4.508 3.308 3.308 0 0 0-3.055-2.042zm13.24-3.266a8.71 8.71 0 0 0-.56-3.013 5.338 5.338 0 0 0-3.093-3.093 8.714 8.714 0 0 0-3.013-.56c-1.72-.093-2.227-.093-6.573-.093s-4.853 0-6.573.093a8.71 8.71 0 0 0-3.013.56 5.338 5.338 0 0 0-3.093 3.093 8.714 8.714 0 0 0-.56 3.013c-.093 1.72-.093 2.227-.093 6.573s0 4.853.093 6.573a9.149 9.149 0 0 0 .56 3.027c.266.702.68 1.338 1.213 1.867.531.536 1.173.95 1.88 1.213a8.714 8.714 0 0 0 3.013.56c1.72.093 2.227.093 6.573.093s4.853 0 6.573-.093a8.71 8.71 0 0 0 3.013-.56 5.198 5.198 0 0 0 1.88-1.213A5.245 5.245 0 0 0 28.68 25.6a8.792 8.792 0 0 0 .56-3.027c.093-1.72.093-2.227.093-6.573s0-4.853-.093-6.573zm-3.387 10.666a7.636 7.636 0 0 1-.52 2.4 5.17 5.17 0 0 1-2.84 2.84 7.655 7.655 0 0 1-2.413.467h-8.16a7.627 7.627 0 0 1-2.413-.467 4.692 4.692 0 0 1-1.747-1.147 4.676 4.676 0 0 1-1.093-1.693 7.312 7.312 0 0 1-.453-2.413v-8.16c.014-.824.167-1.64.453-2.413A4.692 4.692 0 0 1 7.814 7.76a4.778 4.778 0 0 1 1.693-1.093A7.655 7.655 0 0 1 11.92 6.2h8.16a7.627 7.627 0 0 1 2.413.467 4.692 4.692 0 0 1 1.747 1.147 4.676 4.676 0 0 1 1.093 1.693c.285.774.442 1.589.467 2.413V16c0 2.747.093 3.027.053 4.08v.013zm-2.133-9.92c-.159-.431-.409-.822-.734-1.146s-.716-.575-1.146-.734A5.33 5.33 0 0 0 20 8h-8a5.333 5.333 0 0 0-1.84.347 3.187 3.187 0 0 0-1.88 1.813A5.688 5.688 0 0 0 8 12v8c.013.628.13 1.25.347 1.84.159.431.409.822.734 1.146s.716.575 1.146.734a5.72 5.72 0 0 0 1.773.347h8a5.333 5.333 0 0 0 1.84-.347c.431-.159.822-.409 1.146-.734s.575-.716.734-1.146a5.333 5.333 0 0 0 .347-1.84v-8c0-.63-.117-1.254-.347-1.84v.013zM16 21.093a5.082 5.082 0 0 1-5.08-5.094 5.095 5.095 0 0 1 10.091-.986 5.099 5.099 0 0 1-2.177 5.227 5.1 5.1 0 0 1-2.833.852zm5.333-9.186a1.202 1.202 0 0 1 0-2.388 1.202 1.202 0 0 1 0 2.388z"/>
    </symbol>
    <symbol id="icon-telegram" viewBox="0 0 32 32">
      <path d="M15.992 2.667A13.336 13.336 0 0 0 2.914 18.602 13.327 13.327 0 0 0 13.39 29.078a13.34 13.34 0 0 0 13.688-5.67 13.336 13.336 0 0 0-5.984-19.727 13.338 13.338 0 0 0-5.103-1.015zm4.24 20.203a.937.937 0 0 1-.957.586.943.943 0 0 1-.38-.118l-3.62-2.812-2.323 2.143a.399.399 0 0 1-.38.052l.445-3.985.014.011.009-.079s6.513-5.93 6.779-6.183c.269-.252.18-.307.18-.307.015-.307-.482 0-.482 0l-8.63 5.552-3.594-1.224s-.552-.198-.604-.633c-.055-.432.622-.667.622-.667L21.6 9.529s1.175-.523 1.175.343L20.23 22.867z"/>
    </symbol>

    <!--Benefites for generals Icons-->
    <symbol id="icon-justice" viewBox="0 0 32 32">
      <path d="M25.808 4.329h2.704a.584.584 0 0 0 0-1.17h-9.909a2.677 2.677 0 0 0-2.607-2.093 2.673 2.673 0 0 0-2.601 2.093H3.48a.584.584 0 0 0 0 1.17h2.7L1.457 17.543a.734.734 0 0 0-.034.197c0 3.092 2.505 5.608 5.585 5.608h.006c3.053 0 5.539-2.474 5.581-5.53.004-.026.016-.05.016-.077 0-.11-.03-.213-.083-.301L7.836 4.329h5.561c.14.632.499 1.195 1.02 1.577l-.771 20.595H7.922c-1.364 0-2.826 1.87-3.065 3.401a.587.587 0 0 0 .576.676h21.12a.582.582 0 0 0 .576-.676c-.24-1.531-1.702-3.401-3.066-3.401h-5.708L17.579 5.91c.525-.387.884-.95 1.025-1.58h5.551l-4.723 13.214a.734.734 0 0 0-.034.197c0 3.092 2.505 5.608 5.585 5.608h.006c3.053 0 5.539-2.474 5.581-5.53.013-.096.036-.206-.067-.378L25.812 4.33zm-.245 2.778 3.596 10.049h-3.596V7.107zm-9.567-4.871a1.511 1.511 0 1 1-.366 2.977 1.512 1.512 0 0 1 .366-2.977zM6.424 7.11v10.046H2.833L6.424 7.11zm.589 15.069h-.006c-2.239 0-4.095-1.682-4.381-3.853h8.767c-.286 2.172-2.141 3.853-4.381 3.853zm.577-5.023V7.107l3.596 10.049H7.59zm18.183 12.252H6.209c.394-.916 1.213-1.738 1.712-1.738h16.14c.499 0 1.317.822 1.712 1.738zm-10.962-2.907.753-20.108c.081.013.29.035.432.035.131 0 .261-.012.39-.031l.042-.003.758 20.107h-2.374zM24.397 7.11v10.046h-3.591L24.397 7.11zm.589 15.069h-.006c-2.239 0-4.095-1.682-4.381-3.853h8.767c-.286 2.172-2.141 3.853-4.38 3.853z"/>
    </symbol>
    <symbol id="icon-partners" viewBox="0 0 32 32">
      <path d="M8.538 5.291a2.29 2.29 0 1 0 0-4.58 2.29 2.29 0 0 0 0 4.58zM8.538 9.504l1.557-1.975-1.557-1.54-1.557 1.54 1.557 1.975zM15.98 30.37c-7.831 0-14.203-6.371-14.203-14.203 0-.315.258-.572.572-.572s.572.258.572.572c0 7.201 5.856 13.058 13.058 13.058.315 0 .572.258.572.572s-.258.572-.572.572zm13.63-13.63a.574.574 0 0 1-.572-.572c0-7.201-5.856-13.058-13.058-13.058-.315 0-.572-.258-.572-.572s.258-.572.572-.572c7.831 0 14.203 6.371 14.203 14.203a.574.574 0 0 1-.572.572z"/>
      <path d="M24.39 14.988a.574.574 0 0 1-.561-.458c-.767-3.692-4.07-6.377-7.848-6.377-.315 0-.572-.258-.572-.572s.258-.572.572-.572c4.322 0 8.094 3.068 8.97 7.287a.572.572 0 0 1-.447.675.444.444 0 0 1-.114.017zm-8.41 10.338a9.121 9.121 0 0 1-9.045-7.7.573.573 0 1 1 1.133-.183 7.972 7.972 0 0 0 7.911 6.738c.315 0 .572.258.572.572s-.258.572-.572.572zM11.727 5.388a.572.572 0 0 0-.767.12l-.916 1.162.458.447a.57.57 0 0 1 .046.761L8.991 9.853a.578.578 0 0 1-.904 0L6.53 7.878a.57.57 0 0 1 .046-.761l.458-.447-.916-1.162a.571.571 0 0 0-.767-.12C3.72 6.487 3.388 8.027 3.388 10.002c0 2.977 3.211 5.593 5.152 5.593s5.152-2.61 5.152-5.593c0-1.975-.332-3.515-1.964-4.614zM24.567 20.747a2.29 2.29 0 1 0 0-4.58 2.29 2.29 0 0 0 0 4.58zM24.567 24.96l1.557-1.975-1.557-1.54-1.557 1.54 1.557 1.975z"/>
      <path d="M27.756 20.844a.572.572 0 0 0-.767.12l-.916 1.162.458.447a.57.57 0 0 1 .046.761l-1.557 1.975a.578.578 0 0 1-.904 0l-1.557-1.975a.57.57 0 0 1 .046-.761l.458-.447-.916-1.162a.571.571 0 0 0-.767-.12c-1.631 1.099-1.964 2.639-1.964 4.614 0 2.977 3.211 5.593 5.152 5.593s5.152-2.61 5.152-5.593c0-1.975-.332-3.515-1.964-4.614z"/>
    </symbol>
    <symbol id="icon-security" viewBox="0 0 32 32">
      <path d="M16.631 30.75c1.056-.672 2.116-1.341 3.172-2.012.478-.303.962-.603 1.428-.928a19.317 19.317 0 0 0 3.066-2.637 19.26 19.26 0 0 0 4.091-6.809c.716-2.066 1.022-4.244 1.022-6.425V7.78c0-.559-.391-1.047-.919-1.206a11.574 11.574 0 0 1-1.125-.388l.3.125a8.378 8.378 0 0 1-1.828-1.066l.253.197a8.394 8.394 0 0 1-1.488-1.484l.197.253a8.475 8.475 0 0 1-1.069-1.831l.125.3a8.875 8.875 0 0 1-.256-.688c-.169-.528-.641-.919-1.206-.919H11.178c-.516 0-1.034-.016-1.55 0h-.022c-.569 0-1.037.391-1.206.919a7.678 7.678 0 0 1-.256.688l.125-.3A8.523 8.523 0 0 1 7.2 4.211l.197-.253A8.355 8.355 0 0 1 5.91 5.442l.253-.197a8.514 8.514 0 0 1-1.828 1.066l.3-.125c-.369.153-.744.272-1.125.388-.528.159-.919.647-.919 1.206v3.769c0 .662 0 1.325.047 1.988.1 1.347.328 2.691.706 3.988a19.198 19.198 0 0 0 3.775 6.994c1.341 1.591 2.956 2.878 4.706 3.988l3.459 2.194.088.056c.553.35 1.403.134 1.709-.45.325-.619.141-1.334-.45-1.709-.563-.356-1.125-.712-1.684-1.069l-2.153-1.366a20.495 20.495 0 0 1-1.469-1.022l.253.197a17.789 17.789 0 0 1-3.159-3.159l.197.253a17.96 17.96 0 0 1-2.303-3.941l.125.3a17.743 17.743 0 0 1-1.234-4.522c.016.109.031.222.044.331-.134-1.012-.156-2.025-.156-3.041V7.793l-.919 1.206c1.078-.325 2.122-.756 3.037-1.416 1.084-.781 2.009-1.744 2.697-2.894a9.757 9.757 0 0 0 .906-2.019l-1.206.919h11.216c.516 0 1.034.013 1.55 0h.022l-1.206-.919c.784 2.447 2.566 4.575 4.903 5.675.563.266 1.141.472 1.738.653l-.919-1.206v4.431c0 .794-.053 1.588-.156 2.375.016-.109.031-.222.044-.331a18.027 18.027 0 0 1-1.234 4.522l.125-.3a18.006 18.006 0 0 1-2.303 3.941l.197-.253a17.789 17.789 0 0 1-3.159 3.159l.253-.197c-.7.541-1.444 1.006-2.188 1.481l-2.475 1.572-.641.406a1.307 1.307 0 0 0-.575.747c-.081.3-.044.697.125.962.356.55 1.119.819 1.709.444z"/>
      <path d="m9.631 15.934 3.666 3.666a1.27 1.27 0 0 0 1.769 0l7.303-7.303c.462-.463.497-1.313 0-1.769-.5-.459-1.275-.494-1.769 0l-7.303 7.303h1.769L11.4 14.165c-.463-.462-1.313-.497-1.769 0-.459.5-.494 1.272 0 1.769z"/>
    </symbol>
    <symbol id="icon-expert" viewBox="0 0 32 32">
      <path d="M1.333 5.333v-4h4a.665.665 0 1 0 0-1.332H.666A.665.665 0 0 0 0 .667v4.667a.665.665 0 1 0 1.332 0zm4 25.334h-4v-4a.665.665 0 1 0-1.332 0v4.667A.665.665 0 0 0 .667 32h4.667a.665.665 0 1 0 0-1.332zm25.334-4v4h-4a.665.665 0 1 0 0 1.332h4.667a.665.665 0 0 0 .666-.666v-4.667a.665.665 0 1 0-1.332 0zM31.333 0h-4.667a.665.665 0 1 0 0 1.332h4v4a.665.665 0 1 0 1.332 0V.665a.665.665 0 0 0-.666-.666zm0 15.333H30A13.999 13.999 0 0 0 16.667 2V.667a.665.665 0 1 0-1.332 0V2A13.999 13.999 0 0 0 2.002 15.333H.669a.665.665 0 1 0 0 1.332h1.333a13.999 13.999 0 0 0 13.333 13.333v1.333a.665.665 0 1 0 1.332 0v-1.333A13.999 13.999 0 0 0 30 16.665h1.333a.665.665 0 1 0 0-1.332zm-14.666 12A11.336 11.336 0 0 1 4.809 14.225a11.337 11.337 0 0 1 15.36-8.745 11.336 11.336 0 0 1 7.164 10.519 11.333 11.333 0 0 1-10.666 11.333z"/>
      <path d="M8.113 13.447A2.668 2.668 0 0 0 10 18.001h2v-5.333c-1.88 0-2.9-.193-3.887.78zm1.22 5.826v1.393a1.333 1.333 0 1 0 2.667 0v-1.333c-.889.047-1.781.027-2.667-.06zm4-.94L18 20.666V9.999l-4.667 2.333v6zm6-4.88v3.76a1.997 1.997 0 0 0 1.317-1.88 1.997 1.997 0 0 0-1.317-1.88zm5.334 1.214h-1.333a.665.665 0 1 0 0 1.332h1.333a.665.665 0 1 0 0-1.332zm-2.507-1.494c.4 0 .553-.28 1.413-1.14a.67.67 0 0 0 .305-.483.658.658 0 0 0-.182-.543.67.67 0 0 0-.815-.113.663.663 0 0 0-.215.2l-.94.94a.67.67 0 0 0 .075 1.014.67.67 0 0 0 .358.127zm.507 4.52a.689.689 0 1 0-.974.974c1.02 1.027 1.06 1.14 1.413 1.14a.667.667 0 0 0 .466-1.14l-.907-.973z"/>
    </symbol>
    <symbol id="icon-trend-down" viewBox="0 0 32 32">
      <path d="M23 16.667v2.667a1.004 1.004 0 0 1-1 1h-2.667a.997.997 0 0 1-1-1 .997.997 0 0 1 1-1h.252l-3.031-3.031-1.456 2.185a.997.997 0 0 1-1.538.151l-4.267-4.267a.996.996 0 0 1 .025-1.388 1.002 1.002 0 0 1 1.388-.025l3.405 3.404 1.456-2.185a.992.992 0 0 1 1.533-.153l3.893 3.892v-.252a.997.997 0 0 1 1-1 .997.997 0 0 1 1 1h.005zM30.333 12v8c0 7.243-3.089 10.333-10.333 10.333h-8C4.756 30.333 1.667 27.242 1.667 20v-8C1.667 4.757 4.756 1.667 12 1.667h8c7.244 0 10.333 3.091 10.333 10.333zm-2 0c0-6.152-2.181-8.333-8.333-8.333h-8c-6.152 0-8.333 2.181-8.333 8.333v8c0 6.152 2.181 8.333 8.333 8.333h8c6.152 0 8.333-2.181 8.333-8.333v-8z"/>
    </symbol>
    <symbol id="icon-optimization" viewBox="0 0 32 32">
      <path d="M19.549.482c-6.604 0-11.971 5.372-11.971 11.971s5.367 11.966 11.971 11.966c6.599 0 11.966-5.362 11.966-11.961 0-6.594-5.367-11.966-11.966-11.976zm-.005 20.815c-4.887 0-8.868-3.971-8.868-8.848 0-4.882 3.981-8.853 8.868-8.853 4.878.005 8.844 3.981 8.844 8.858s-3.966 8.844-8.844 8.844z"/>
      <path d="m10.718 24.213 1.268-1.268a13.185 13.185 0 0 1-2.928-2.924l-1.265 1.265-.582-.582a.499.499 0 0 0-.689 0l-5.047 5.047a3.377 3.377 0 0 0 0 4.776 3.382 3.382 0 0 0 4.781 0l5.047-5.047a.483.483 0 0 0 0-.684l-.584-.584zm7.701-13.336-.499-.31a2.143 2.143 0 0 0-.073-.427l.369-.465a.24.24 0 0 0 .015-.276l-.344-.543a.243.243 0 0 0-.262-.107l-.567.136a3.073 3.073 0 0 0-.359-.252l-.068-.582a.242.242 0 0 0-.184-.208l-.625-.141a.256.256 0 0 0-.262.112l-.305.495a2.614 2.614 0 0 0-.431.078l-.461-.364a.231.231 0 0 0-.276-.019l-.543.344a.243.243 0 0 0-.107.262l.136.567a2.274 2.274 0 0 0-.252.359l-.582.068a.242.242 0 0 0-.208.184l-.141.625a.244.244 0 0 0 .107.262l.499.305c.015.145.039.291.078.431l-.368.461a.24.24 0 0 0-.015.276l.344.543a.243.243 0 0 0 .257.107l.572-.136c.111.097.233.179.359.252l.063.582a.247.247 0 0 0 .189.208l.625.141c.019.005.034.005.053.005.082 0 .16-.044.204-.112l.31-.499c.145-.015.291-.039.432-.078l.456.368a.25.25 0 0 0 .281.015l.543-.344a.247.247 0 0 0 .107-.257l-.136-.577c.092-.111.179-.228.247-.354l.587-.063a.25.25 0 0 0 .209-.189l.141-.625a.245.245 0 0 0-.112-.257zm-2.337.887a1.172 1.172 0 0 1-1.619-.364c-.339-.553-.199-1.261.364-1.619.533-.339 1.285-.165 1.619.364.33.514.218 1.251-.364 1.619zm10.1 2.25-.718-.441a3.031 3.031 0 0 0-.112-.65l.524-.664a.225.225 0 0 0 .015-.276l-.465-.732a.229.229 0 0 0-.257-.107l-.819.189a3.247 3.247 0 0 0-.538-.378l-.097-.839a.25.25 0 0 0-.189-.209l-.848-.189a.245.245 0 0 0-.257.107l-.441.718a3.287 3.287 0 0 0-.655.112l-.659-.524a.25.25 0 0 0-.281-.015l-.732.465a.246.246 0 0 0-.107.262l.194.815c-.145.17-.276.349-.383.543l-.834.097a.243.243 0 0 0-.209.189l-.189.844a.242.242 0 0 0 .107.262l.718.441c.015.223.048.441.111.655l-.524.655a.25.25 0 0 0-.015.281l.465.732a.236.236 0 0 0 .257.107l.819-.189a3.2 3.2 0 0 0 .543.378l.092.839a.247.247 0 0 0 .189.208l.849.189a.24.24 0 0 0 .257-.111l.446-.713c.218-.015.436-.053.65-.112l.659.524a.25.25 0 0 0 .281.015l.732-.465a.239.239 0 0 0 .107-.257l-.194-.824c.145-.165.276-.349.383-.538l.834-.097a.238.238 0 0 0 .209-.189l.189-.844a.241.241 0 0 0-.107-.262zm-3.035 1.27a1.752 1.752 0 1 1 .539-2.419 1.755 1.755 0 0 1-.538 2.419z"/>
    </symbol>
    <symbol id="icon-focus" viewBox="0 0 32 32">
      <path d="M29.44 14.507h-1.598A11.95 11.95 0 0 0 17.493 4.158V2.56a1.493 1.493 0 1 0-2.986 0v1.598A11.95 11.95 0 0 0 4.158 14.507H2.56a1.493 1.493 0 1 0 0 2.986h1.598a11.95 11.95 0 0 0 10.349 10.349v1.598a1.493 1.493 0 1 0 2.986 0v-1.598a11.95 11.95 0 0 0 10.349-10.349h1.598a1.493 1.493 0 1 0 0-2.986zM16 24.96a8.966 8.966 0 0 1-8.278-5.531A8.96 8.96 0 1 1 16 24.96zm0-13.44a4.483 4.483 0 0 0-4.139 2.766 4.478 4.478 0 0 0 5.853 5.853A4.48 4.48 0 0 0 16 11.52zm0 5.973a1.497 1.497 0 0 1-1.38-.922 1.49 1.49 0 0 1 .324-1.628 1.496 1.496 0 0 1 2.298.226 1.495 1.495 0 0 1-.185 1.886c-.28.28-.66.437-1.056.437z"/>
    </symbol>

    <!--Benefites for services Icons-->
    <symbol id="icon-service" viewBox="0 0 32 32">
      <path fill="#1c74e9" style="fill: var(--color1, #1c74e9)" d="M13.533 22.2c0-0.867-0.333-1.667-0.933-2.333l-4.133-4.133c-0.2-0.2-0.533-0.267-0.8-0.2s-0.533 0.333-0.6 0.667c-0.133 0.667-0.467 2.133-0.133 3.333l0.067 0.133 1.467 1.467-0.467 0.067c-0.667 0-1.267-0.267-1.733-0.733l-1.733-1.733v-4.067c0-1.2-0.733-2.267-1.8-2.733-0.533-0.2-1.133-0.333-1.667-0.333h-0.667v8.133c0 0.667 0.267 1.267 0.733 1.733l4.8 4.8v0.2h-1.8v5.067h10.933v-5.067h-1.533v-4.267zM2 20.6c-0.2-0.2-0.333-0.467-0.333-0.8v-6.733c0.133 0.067 0.333 0.067 0.467 0.133 0.6 0.267 1 0.867 1 1.467v4.667l2.133 2.133c0.733 0.733 1.733 1.133 2.733 1.133l1.667-0.267c0.267-0.067 0.533-0.267 0.6-0.533s0-0.6-0.2-0.8l-2-2c-0.133-0.533-0.067-1.133 0-1.667l3.467 3.467c0.4 0.4 0.6 0.867 0.6 1.4v4.4h-5v-0.2c0-0.4-0.133-0.733-0.4-1l-4.733-4.8zM13.667 27.933v2.4h-8.2v-2.4h8.2zM29.333 12c-1.067 0.467-1.8 1.533-1.8 2.733v4.067l-1.733 1.733c-0.467 0.467-1.067 0.733-1.733 0.733l-0.467-0.067 1.467-1.467 0.067-0.133c0.333-1.267 0.067-2.667-0.133-3.4-0.067-0.267-0.267-0.533-0.6-0.6-0.267-0.067-0.6 0-0.8 0.2l-4.133 4.133c-0.6 0.6-0.933 1.467-0.933 2.333v4.4h-1.533v5.067h10.933v-5.067h-1.733v-0.267l4.8-4.8c0.467-0.467 0.733-1.067 0.733-1.733v-8.2h-0.667c-0.667 0-1.2 0.133-1.733 0.333zM26.533 27.933v2.4h-8.2v-2.4h8.2zM30.333 19.8c0 0.333-0.133 0.6-0.333 0.8l-4.8 4.8c-0.267 0.267-0.4 0.6-0.4 1v0.2h-5v-4.4c0-0.533 0.2-1 0.6-1.4l3.467-3.467c0.067 0.533 0.133 1.133 0 1.667l-2 2c-0.2 0.2-0.267 0.533-0.2 0.8s0.333 0.467 0.6 0.533l1.6 0.267h0.133c1.067 0 2-0.4 2.733-1.133l2.133-2.133v-4.6c0-0.667 0.4-1.267 1-1.467 0.133-0.067 0.333-0.133 0.467-0.133v6.667zM16.2 4.733c-2.4-0.133-4.4 1.733-4.533 4.133-0.067 1.133 0.333 2.267 1.133 3.133s1.867 1.333 3 1.4c0.067 0 0.133 0 0.2 0 2.267 0 4.2-1.8 4.333-4.133 0.133-2.4-1.733-4.4-4.133-4.533zM15.867 12.067c-0.8-0.067-1.533-0.4-2.067-1s-0.8-1.333-0.8-2.133c0.067-1.6 1.4-2.867 3-2.867 0.067 0 0.133 0 0.133 0 1.667 0.067 2.933 1.467 2.867 3.133s-1.467 2.933-3.133 2.867z"></path>
      <path fill="#1c74e9" style="fill: var(--color1, #1c74e9)" d="M24.734 10.467v-2.933l-1.733-0.4c-0.133-0.6-0.4-1.133-0.733-1.733l0.933-1.533-2.133-2.067-1.533 0.933c-0.533-0.333-1.133-0.533-1.733-0.667l-0.4-1.733h-2.933l-0.4 1.733c-0.6 0.133-1.133 0.4-1.733 0.733l-1.533-0.933-2 2.133 0.933 1.533c-0.333 0.533-0.533 1.133-0.733 1.733l-1.733 0.4v2.933l1.733 0.4c0.133 0.6 0.4 1.133 0.733 1.733l-0.933 1.533 2.133 2.067 1.533-0.933c0.533 0.333 1.133 0.533 1.733 0.667l0.4 1.733h2.933l0.4-1.733c0.6-0.133 1.133-0.4 1.733-0.733l1.533 0.933 2.067-2.133-0.933-1.533c0.333-0.533 0.533-1.133 0.667-1.733l1.733-0.4zM21.867 9.8l-0.067 0.4c-0.133 0.733-0.4 1.4-0.8 2.067l-0.2 0.333 0.8 1.333-0.6 0.6-1.333-0.8-0.333 0.267c-0.6 0.4-1.333 0.733-2 0.867l-0.4 0.067-0.333 1.533h-0.867l-0.4-1.533-0.4-0.067c-0.733-0.133-1.4-0.4-2.067-0.8l-0.333-0.2-1.333 0.8-0.667-0.667 0.8-1.333-0.267-0.333c-0.4-0.6-0.733-1.333-0.867-2l-0.067-0.4-1.533-0.333v-0.867l1.533-0.4 0.067-0.4c0.133-0.733 0.4-1.4 0.8-2.067l0.2-0.333-0.8-1.333 0.6-0.6 1.333 0.8 0.333-0.267c0.6-0.4 1.333-0.733 2-0.867l0.4-0.067 0.333-1.533h0.867l0.4 1.533 0.4 0.067c0.733 0.133 1.4 0.4 2.067 0.8l0.333 0.2 1.333-0.8 0.6 0.6-0.8 1.333 0.267 0.333c0.4 0.6 0.733 1.333 0.867 2l0.067 0.4 1.533 0.333v0.867l-1.467 0.467z"></path>
    </symbol>
    <symbol id="icon-economic-crisis" viewBox="0 0 32 32">
      <path fill="#1c74e9" style="fill: var(--color1, #1c74e9)" d="M27.333 29.333v-4.667c0-0.177-0.070-0.346-0.195-0.471s-0.295-0.195-0.471-0.195h-4c-0.177 0-0.346 0.070-0.471 0.195s-0.195 0.295-0.195 0.471v4.667h-2.667v-13.333c0-0.177-0.070-0.346-0.195-0.471s-0.295-0.195-0.471-0.195h-4c-0.177 0-0.346 0.070-0.471 0.195s-0.195 0.295-0.195 0.471v13.333h-2.667v-9.333c0-0.177-0.070-0.346-0.195-0.471s-0.295-0.195-0.471-0.195h-4c-0.177 0-0.346 0.070-0.471 0.195s-0.195 0.295-0.195 0.471v9.333h-2v1.333h25.333v-1.333h-2zM7.333 29.333v-8.667h2.667v8.667h-2.667zM15.333 29.333v-12.667h2.667v12.667h-2.667zM23.333 29.333v-4h2.667v4h-2.667zM24 10h-1.333v-1.333h2.667v-0.667h-2c-0.177 0-0.346-0.070-0.471-0.195s-0.195-0.295-0.195-0.471v-2c0-0.177 0.070-0.346 0.195-0.471s0.295-0.195 0.471-0.195h0.667v-0.667h1.333v0.667h1.333v1.333h-2.667v0.667h2c0.177 0 0.346 0.070 0.471 0.195s0.195 0.295 0.195 0.471v2c0 0.177-0.070 0.346-0.195 0.471s-0.295 0.195-0.471 0.195h-0.667v0.667h-1.333v-0.667zM24.1 22.353c0.060 0.096 0.143 0.176 0.242 0.231s0.211 0.084 0.324 0.084c0.113 0 0.225-0.029 0.324-0.084s0.183-0.135 0.242-0.231l3.333-5.333c0.063-0.101 0.098-0.217 0.101-0.336s-0.026-0.237-0.084-0.341-0.143-0.191-0.245-0.251c-0.103-0.060-0.22-0.092-0.339-0.092h-0.667v-3.333c0-0.177-0.070-0.346-0.195-0.471s-0.295-0.195-0.471-0.195h-4c-0.177 0-0.346 0.070-0.471 0.195s-0.195 0.295-0.195 0.471v3.333h-0.667c-0.119-0-0.236 0.031-0.339 0.092s-0.187 0.147-0.245 0.251-0.087 0.222-0.084 0.341c0.003 0.119 0.038 0.235 0.101 0.336l3.333 5.333zM22.667 17.333c0.177 0 0.346-0.070 0.471-0.195s0.195-0.295 0.195-0.471v-3.333h2.667v3.333c0 0.177 0.070 0.346 0.195 0.471s0.295 0.195 0.471 0.195h0.133l-2.133 3.407-2.133-3.407h0.133zM12 10.667c0.53 0 1.039-0.211 1.414-0.586s0.586-0.884 0.586-1.414v-5.333c0-0.53-0.211-1.039-0.586-1.414s-0.884-0.586-1.414-0.586h-8c-0.53 0-1.039 0.211-1.414 0.586s-0.586 0.884-0.586 1.414v5.333c0 0.53 0.211 1.039 0.586 1.414s0.884 0.586 1.414 0.586h8zM3.333 8.667v-5.333c0-0.177 0.070-0.346 0.195-0.471s0.295-0.195 0.471-0.195h8c0.177 0 0.346 0.070 0.471 0.195s0.195 0.295 0.195 0.471v5.333c0 0.177-0.070 0.346-0.195 0.471s-0.295 0.195-0.471 0.195h-8c-0.177 0-0.346-0.070-0.471-0.195s-0.195-0.295-0.195-0.471zM11.333 5.333h-6.667v-1.333h6.667v1.333zM11.333 8h-6.667v-1.333h6.667v1.333z"></path>
    </symbol>
    <symbol id="icon-protection" viewBox="0 0 32 32">
      <path fill="#1c74e9" style="fill: var(--color3, #1c74e9)" d="M29.751 4.314c-0-0.11-0.028-0.218-0.080-0.315s-0.129-0.178-0.221-0.238c-0.092-0.059-0.198-0.095-0.308-0.103s-0.22 0.012-0.32 0.057c-7.145 3.248-12.335-3.265-12.335-3.265-0.061-0.077-0.14-0.139-0.228-0.182s-0.186-0.065-0.285-0.065c-0.099 0-0.196 0.022-0.285 0.065s-0.167 0.105-0.228 0.182c0 0-5.191 6.513-12.335 3.265-0.1-0.046-0.21-0.065-0.32-0.057s-0.216 0.043-0.308 0.103c-0.092 0.059-0.168 0.141-0.221 0.238s-0.080 0.205-0.080 0.315v9.779c0 1.139 0.1 2.27 0.308 3.38l0 0.001c0.812 4.295 3.742 10.899 12.243 14.050 0.792 0.293 1.662 0.293 2.454 0l0-0c8.501-3.152 11.43-9.756 12.242-14.050l0-0.001c0.208-1.11 0.308-2.241 0.308-3.38v-9.779zM28.437 5.29v8.802c0 1.057-0.093 2.107-0.286 3.138-0.756 3.996-3.497 10.129-11.407 13.061-0.497 0.184-1.044 0.184-1.541 0-7.911-2.933-10.652-9.065-11.408-13.061-0.192-1.031-0.285-2.081-0.285-3.138v-8.802c6.195 2.23 10.946-1.887 12.463-3.452 1.517 1.565 6.268 5.682 12.463 3.452h0z"></path>
      <path fill="#1c74e9" style="fill: var(--color3, #1c74e9)" d="M16.959 16.959c0-0.544-0.442-0.986-0.986-0.986s-0.986 0.442-0.986 0.986c0 0.261 0.104 0.512 0.289 0.697s0.435 0.289 0.697 0.289c0.544 0 0.986-0.442 0.986-0.986zM15.645 16.959c0-0.181 0.147-0.329 0.329-0.329s0.329 0.147 0.329 0.329c-0 0.087-0.035 0.171-0.096 0.232s-0.145 0.096-0.232 0.096c-0.087-0-0.171-0.035-0.232-0.096s-0.096-0.145-0.096-0.232z"></path>
      <path fill="#1c74e9" style="fill: var(--color3, #1c74e9)" d="M15.317 16.631v2.628c0 0.363 0.294 0.657 0.657 0.657s0.657-0.294 0.657-0.657v-2.628c-0-0.174-0.069-0.341-0.193-0.464s-0.29-0.192-0.464-0.193c-0.174 0-0.341 0.069-0.464 0.193s-0.192 0.29-0.193 0.464z"></path>
      <path fill="#1c74e9" style="fill: var(--color3, #1c74e9)" d="M15.973 23.202c2.903 0 5.257-2.353 5.257-5.256v-3.285c0-0.174-0.069-0.341-0.192-0.465s-0.29-0.192-0.465-0.192h-9.199c-0.174 0-0.341 0.069-0.465 0.192s-0.192 0.29-0.193 0.465v3.285c0 2.903 2.353 5.256 5.257 5.256zM15.973 21.887c-2.177 0-3.942-1.765-3.942-3.942v-2.628h7.885l-0 2.628c0 2.177-1.765 3.942-3.942 3.942z"></path>
      <path fill="#1c74e9" style="fill: var(--color3, #1c74e9)" d="M13.345 14.66v-1.971c0-1.451 1.177-2.628 2.628-2.628s2.628 1.177 2.628 2.628v1.971c0 0.363 0.294 0.657 0.657 0.657 0.174-0 0.341-0.069 0.465-0.193s0.192-0.29 0.192-0.464v-1.971c0-2.177-1.765-3.942-3.942-3.942s-3.942 1.765-3.942 3.942v1.971c0 0.174 0.069 0.341 0.193 0.464s0.29 0.192 0.464 0.193c0.363 0 0.657-0.294 0.657-0.657z"></path>
    </symbol>
    <symbol id="icon-law" viewBox="0 0 32 32">
      <path fill="#1c74e9" style="fill: var(--color3, #1c74e9)" d="M23.29 11.81l-7.12-7.12 3.52-3.52 7.12 7.12-3.52 3.52zM18.6 4.81l4.78 4.78 1.17-1.17-4.78-4.82-1.17 1.21zM15.67 19.52l-7.12-7.12 3.52-3.52 7.12 7.12-3.52 3.52zM10.89 12.4l4.78 4.77 1.17-1.17-4.77-4.78-1.18 1.18z"></path>
      <path fill="#1c74e9" style="fill: var(--color3, #1c74e9)" d="M16.84 16l-4.77-4.78 6.53-6.53 4.78 4.78-6.54 6.53zM14.5 11.22l2.34 2.35 4.16-4.1-2.34-2.35-4.16 4.1z"></path>
      <path fill="#1c74e9" style="fill: var(--color3, #1c74e9)" d="M18.39 12.14l1.19-1.14 10.66 10.62-1.19 1.18-10.66-10.66zM1.76 29.15h26.81v1.68h-26.81v-1.68zM6.79 24.13h16.75v1.67h-16.75v-1.67z"></path>
    </symbol>
    <symbol id="icon-private-address" viewBox="0 0 32 32">
      <path fill="#1c74e9" style="fill: var(--color3, #1c74e9)" d="M26.477 32h-20.954c-1.339 0-2.429-1.090-2.429-2.43v-12.794c0-1.34 1.090-2.43 2.429-2.43h20.954c1.339 0 2.429 1.090 2.429 2.43v12.794c0 1.34-1.090 2.43-2.429 2.43zM5.523 15.627c-0.634 0-1.149 0.516-1.149 1.15v12.794c0 0.634 0.516 1.15 1.149 1.15h20.954c0.634 0 1.149-0.516 1.149-1.15v-12.794c0-0.634-0.516-1.15-1.149-1.15h-20.954z"></path>
      <path fill="#1c74e9" style="fill: var(--color3, #1c74e9)" d="M25.12 15.627h-18.24c-0.354 0-0.64-0.287-0.64-0.64v-5.227c0-5.382 4.378-9.76 9.76-9.76s9.76 4.378 9.76 9.76v5.227c0 0.353-0.286 0.64-0.64 0.64zM7.52 14.347h16.96v-4.587c0-4.676-3.804-8.48-8.48-8.48s-8.48 3.804-8.48 8.48v4.587zM16.022 26.274c-1.172 0-2.089-1.362-2.089-3.1s0.918-3.101 2.089-3.101c1.172 0 2.089 1.362 2.089 3.101s-0.918 3.1-2.089 3.1zM16.022 21.353c-0.322 0-0.809 0.726-0.809 1.821s0.487 1.82 0.809 1.82c0.323 0 0.809-0.726 0.809-1.82s-0.487-1.821-0.809-1.821z"></path>
      <path fill="#1c74e9" style="fill: var(--color3, #1c74e9)" d="M17.483 23.813c-0.353 0-0.643-0.287-0.643-0.64s0.284-0.64 0.637-0.64h0.006c0.354 0 0.64 0.287 0.64 0.64s-0.286 0.64-0.64 0.64z"></path>
      <path fill="#1c74e9" style="fill: var(--color3, #1c74e9)" d="M16.021 29.538c-1.291 0-2.537-0.548-3.51-1.544-1.225-1.253-1.902-3.075-1.858-4.998 0.076-3.317 2.414-6.092 5.212-6.185 2.635-0.090 4.989 2.17 5.445 5.255 0.154 1.044-0.163 2.043-0.827 2.61-0.836 0.714-1.819 0.487-2.293 0.377-0.389-0.091-0.721-0.372-0.986-0.837-0.246-0.432-0.375-0.962-0.375-1.534v-1.969c0-0.353 0.286-0.64 0.64-0.64s0.64 0.287 0.64 0.64v1.969c0 0.346 0.074 0.666 0.208 0.901 0.089 0.157 0.16 0.218 0.18 0.229 0.53 0.121 0.863 0.139 1.154-0.11 0.322-0.274 0.479-0.857 0.392-1.45-0.361-2.44-2.157-4.233-4.136-4.162-2.131 0.071-3.915 2.285-3.975 4.935-0.036 1.581 0.508 3.066 1.494 4.074 1.32 1.351 3.302 1.513 4.748 0.394 0.281-0.216 0.681-0.165 0.898 0.115s0.165 0.681-0.114 0.898c-0.873 0.675-1.888 1.032-2.937 1.032z"></path>
    </symbol>
    <symbol id="icon-organization" viewBox="0 0 32 32">
      <path fill="#94c2ff" style="fill: var(--color1, #94c2ff)" d="M17.43 1.935c0 0.79-0.64 1.43-1.43 1.43s-1.43-0.64-1.43-1.43c0-0.79 0.64-1.43 1.43-1.43s1.43 0.64 1.43 1.43zM17.43 30.065c0 0.79-0.64 1.43-1.43 1.43s-1.43-0.64-1.43-1.43c0-0.79 0.64-1.43 1.43-1.43s1.43 0.64 1.43 1.43zM8.89 3.78c0.464 0.639 0.323 1.533-0.316 1.998s-1.533 0.322-1.998-0.316-0.323-1.533 0.316-1.998c0.639-0.464 1.534-0.323 1.998 0.316zM25.425 26.539c0.464 0.639 0.323 1.533-0.316 1.998s-1.533 0.323-1.998-0.316c-0.464-0.639-0.323-1.533 0.316-1.998s1.533-0.323 1.998 0.316zM3.065 10.293c0.751 0.244 1.162 1.051 0.918 1.802s-1.051 1.162-1.802 0.918c-0.751-0.244-1.162-1.051-0.918-1.802s1.051-1.162 1.802-0.918zM29.819 18.986c0.751 0.244 1.162 1.051 0.918 1.802s-1.051 1.162-1.802 0.918c-0.751-0.244-1.162-1.051-0.918-1.802s1.051-1.162 1.802-0.918zM2.181 18.986c0.751-0.244 1.558 0.167 1.802 0.918s-0.167 1.558-0.918 1.802c-0.751 0.244-1.558-0.167-1.802-0.918s0.167-1.558 0.918-1.802zM28.935 10.293c0.751-0.244 1.558 0.167 1.802 0.918s-0.167 1.558-0.918 1.802c-0.751 0.244-1.558-0.167-1.802-0.918s0.167-1.558 0.918-1.802zM6.576 26.539c0.464-0.639 1.359-0.781 1.998-0.316s0.781 1.359 0.316 1.998c-0.464 0.639-1.359 0.781-1.998 0.316s-0.781-1.359-0.316-1.998zM23.111 3.78c0.464-0.639 1.359-0.781 1.998-0.316s0.781 1.359 0.316 1.998c-0.464 0.639-1.359 0.781-1.998 0.316s-0.781-1.359-0.316-1.998z"></path>
      <path fill="#d7e8ff" style="fill: var(--color2, #d7e8ff)" d="M17.562 11.692v1.174c0 0.863-0.699 1.562-1.562 1.562s-1.562-0.699-1.562-1.562v-1.174c0-0.863 0.699-1.562 1.562-1.562s1.562 0.699 1.562 1.562zM20.122 19.948c-2.748 1.303-5.497 1.303-8.245 0 0-2.278 1.847-4.125 4.12-4.125 2.278 0 4.125 1.847 4.125 4.125z"></path>
      <path fill="#1c74e9" style="fill: var(--color3, #1c74e9)" d="M29.974 18.511c-0.847-0.275-1.742 0.074-2.207 0.787l-2.499-0.812c0.214-0.795 0.338-1.627 0.338-2.488 0-0.86-0.124-1.689-0.337-2.483l2.495-0.811c0.47 0.721 1.366 1.060 2.209 0.786 1.012-0.329 1.569-1.415 1.239-2.432-0.329-1.012-1.42-1.568-2.432-1.239-0.847 0.275-1.366 1.084-1.323 1.934l-2.497 0.811c-0.61-1.586-1.623-2.972-2.921-4.025l1.54-2.119c0.842 0.324 1.748 0.027 2.25-0.664 0.624-0.86 0.439-2.066-0.427-2.696-0.863-0.627-2.068-0.436-2.696 0.427-0.495 0.681-0.512 1.629 0.066 2.342l-1.543 2.123c-1.375-0.896-2.992-1.443-4.729-1.533v-2.629c0.821-0.222 1.43-0.966 1.43-1.856 0-1.064-0.866-1.93-1.93-1.93s-1.93 0.866-1.93 1.93c0 0.89 0.609 1.634 1.43 1.856v2.629c-1.738 0.091-3.354 0.638-4.729 1.534l-1.543-2.124c0.578-0.713 0.561-1.661 0.066-2.342-0.626-0.861-1.831-1.056-2.696-0.427-0.861 0.626-1.055 1.831-0.427 2.696 0.505 0.696 1.414 0.985 2.25 0.664l1.541 2.12c-1.299 1.053-2.311 2.438-2.921 4.024l-2.498-0.812c0.043-0.849-0.477-1.658-1.323-1.934-1.011-0.329-2.103 0.227-2.432 1.239-0.33 1.017 0.227 2.103 1.239 2.432 0.841 0.273 1.738-0.063 2.209-0.786l2.495 0.811c-0.213 0.794-0.337 1.623-0.337 2.483 0 0.862 0.125 1.693 0.338 2.489l-2.499 0.812c-0.465-0.712-1.36-1.062-2.207-0.787-1.012 0.329-1.568 1.42-1.239 2.432 0.328 1.010 1.417 1.568 2.432 1.239 0.847-0.275 1.366-1.084 1.323-1.934l2.499-0.812c0.611 1.585 1.623 2.97 2.921 4.023l-1.543 2.124c-0.855-0.328-1.752-0.022-2.248 0.661-0.624 0.86-0.439 2.066 0.427 2.696 0.868 0.631 2.072 0.43 2.696-0.427 0.494-0.68 0.513-1.628-0.066-2.342l1.544-2.125c1.374 0.896 2.991 1.444 4.728 1.534v2.629c-0.821 0.222-1.43 0.966-1.43 1.856 0 1.064 0.866 1.93 1.93 1.93s1.93-0.866 1.93-1.93c0-0.89-0.609-1.634-1.43-1.856v-2.629c1.738-0.090 3.354-0.637 4.729-1.533l1.543 2.124c-0.578 0.714-0.56 1.662-0.066 2.342 0.624 0.858 1.828 1.058 2.696 0.427 0.861-0.626 1.055-1.831 0.427-2.696-0.496-0.683-1.392-0.99-2.248-0.661l-1.542-2.123c1.298-1.053 2.31-2.439 2.92-4.024l2.498 0.812c-0.043 0.849 0.477 1.659 1.323 1.934 1.002 0.326 2.1-0.218 2.432-1.239 0.329-1.012-0.227-2.103-1.239-2.432zM29.089 10.769c0.489-0.159 1.014 0.11 1.172 0.597s-0.107 1.013-0.598 1.172c-0.488 0.159-1.014-0.109-1.172-0.597s0.109-1.014 0.597-1.172zM23.515 4.074c0.301-0.415 0.882-0.509 1.299-0.206 0.415 0.301 0.509 0.883 0.206 1.299-0.301 0.415-0.882 0.509-1.299 0.206-0.415-0.301-0.508-0.883-0.206-1.299zM6.98 5.168c-0.303-0.417-0.209-0.998 0.206-1.299 0.417-0.303 0.998-0.209 1.299 0.206 0.29 0.398 0.227 0.971-0.199 1.284-0.382 0.281-0.965 0.279-1.306-0.191zM2.335 12.538c-0.489-0.159-0.756-0.684-0.598-1.172 0.16-0.491 0.688-0.755 1.172-0.597 0.57 0.185 0.72 0.711 0.586 1.15-0.138 0.451-0.574 0.811-1.16 0.62zM2.91 21.231c-0.488 0.159-1.013-0.109-1.172-0.597s0.109-1.014 0.597-1.172c0.578-0.188 1.010 0.16 1.154 0.603s-0.002 0.979-0.579 1.167zM8.485 27.926c-0.301 0.414-0.881 0.51-1.299 0.206-0.415-0.301-0.509-0.883-0.206-1.299 0.354-0.488 0.907-0.457 1.283-0.183s0.575 0.792 0.222 1.277zM25.020 26.832c0.303 0.416 0.209 0.998-0.206 1.299-0.42 0.305-1 0.207-1.299-0.206-0.302-0.415-0.21-0.997 0.206-1.299s0.997-0.21 1.299 0.206zM15.069 1.935c0-0.513 0.417-0.93 0.93-0.93s0.93 0.417 0.93 0.93c0 0.604-0.465 0.91-0.93 0.912s-0.931-0.3-0.931-0.912zM16.93 30.065c0 0.513-0.417 0.93-0.93 0.93s-0.93-0.417-0.93-0.93c0-0.513 0.417-0.93 0.93-0.93s0.93 0.417 0.93 0.93zM16.003 24.606c-4.747 0-8.609-3.862-8.609-8.609 0-4.744 3.862-8.603 8.609-8.603 4.744 0 8.603 3.86 8.603 8.603 0 4.747-3.86 8.609-8.603 8.609zM30.262 20.634c-0.159 0.488-0.683 0.756-1.172 0.597-0.488-0.158-0.756-0.684-0.597-1.172 0.16-0.491 0.688-0.755 1.172-0.597 0.488 0.159 0.756 0.684 0.597 1.172z"></path>
      <path fill="#1c74e9" style="fill: var(--color3, #1c74e9)" d="M16 14.927c1.137 0 2.062-0.925 2.062-2.062v-1.174c0-1.137-0.925-2.062-2.062-2.062s-2.062 0.925-2.062 2.062v1.174c0 1.137 0.925 2.062 2.062 2.062zM14.937 11.692c0-0.586 0.477-1.062 1.062-1.062s1.062 0.477 1.062 1.062v1.174c0 0.586-0.477 1.062-1.062 1.062s-1.062-0.477-1.062-1.062v-1.174zM15.997 15.324c-2.547 0-4.62 2.075-4.62 4.625 0 0.193 0.111 0.369 0.286 0.452 2.849 1.35 5.766 1.377 8.673 0 0.174-0.083 0.286-0.259 0.286-0.452 0-2.55-2.075-4.625-4.625-4.625zM12.391 19.633c0.16-1.852 1.716-3.31 3.606-3.31 1.893 0 3.451 1.458 3.611 3.31-2.425 1.064-4.793 1.064-7.218 0z"></path>
    </symbol>
    <symbol id="icon-partner" viewBox="0 0 32 32">
      <path fill="#1c74e9" style="fill: var(--color3, #1c74e9)" d="M21.5 27h6v4h-6v-4zM4.5 27h6v4h-6v-4zM15.944 23.455c0.003 0.013 0.010 0.024 0.020 0.032s0.023 0.013 0.036 0.013 0.026-0.004 0.036-0.013c0.010-0.008 0.017-0.020 0.020-0.032 0.38-1.641 0.757-2.018 2.4-2.4 0.013-0.003 0.024-0.010 0.032-0.020s0.013-0.023 0.013-0.036c0-0.013-0.004-0.026-0.013-0.036s-0.020-0.017-0.032-0.020c-1.642-0.38-2.018-0.757-2.4-2.4-0.003-0.013-0.010-0.024-0.020-0.032s-0.023-0.013-0.036-0.013-0.026 0.004-0.036 0.013c-0.010 0.008-0.017 0.020-0.020 0.032-0.38 1.641-0.757 2.018-2.4 2.4-0.013 0.003-0.024 0.010-0.032 0.020s-0.013 0.023-0.013 0.036c0 0.013 0.004 0.026 0.013 0.036s0.020 0.017 0.032 0.020c1.643 0.382 2.020 0.759 2.4 2.4z"></path>
      <path fill="#1c74e9" style="fill: var(--color3, #1c74e9)" d="M4.214 2.875l-1.715 1.125h4.285v-0.75h0.715v15.986c-0.039 0.106-0.082 0.21-0.116 0.318l-0.050-0.104c-0.062-0.133-0.161-0.246-0.285-0.326s-0.268-0.123-0.415-0.124c-0.119 0.003-0.235 0.032-0.341 0.085s-0.199 0.129-0.272 0.222-0.125 0.201-0.152 0.317c-0.027 0.116-0.028 0.236-0.003 0.352l0.292 1.523 0.961 2c-1.063-0.643-1.973-1.512-2.664-2.544s-1.147-2.204-1.336-3.432l-0.188-1.18c-0.033-0.232-0.148-0.444-0.323-0.599s-0.4-0.242-0.634-0.245c-0.141 0.003-0.279 0.036-0.406 0.097s-0.24 0.147-0.331 0.255c-0.091 0.107-0.158 0.233-0.197 0.368s-0.049 0.277-0.030 0.416l0.275 2.291c0.34 2.916 1.731 5.609 3.913 7.574h4.804v-1.5c0.004-0.769-0.167-1.528-0.5-2.221s-0.819-1.301-1.421-1.779c0.523-3.663 3.87-6.5 7.92-6.5s7.397 2.837 7.92 6.5c-0.602 0.478-1.088 1.086-1.421 1.779s-0.504 1.452-0.5 2.221v1.5h4.805c2.182-1.965 3.573-4.658 3.913-7.574l0.275-2.291c0.020-0.139 0.009-0.281-0.030-0.416s-0.106-0.26-0.197-0.368c-0.091-0.107-0.204-0.194-0.331-0.255s-0.265-0.094-0.406-0.097c-0.234 0.004-0.459 0.091-0.634 0.245s-0.29 0.367-0.323 0.599l-0.189 1.18c-0.189 1.228-0.645 2.4-1.336 3.432s-1.6 1.901-2.664 2.544l0.96-2 0.293-1.524c0.025-0.116 0.024-0.236-0.003-0.352s-0.079-0.224-0.152-0.317c-0.073-0.093-0.166-0.169-0.273-0.222s-0.223-0.082-0.341-0.085c-0.147 0.002-0.291 0.045-0.415 0.124s-0.223 0.193-0.285 0.326l-0.050 0.104c-0.035-0.108-0.078-0.212-0.116-0.318v-15.986h0.715v0.75h4.284l-1.715-1.125 1.715-1.125h-3.428v-0.75h-2.572v16.323c-0.802-1.123-1.849-2.049-3.062-2.708s-2.559-1.033-3.938-1.095v-4.27h0.715v0.75h4.285l-1.715-1.125 1.715-1.125h-3.428v-0.75h-2.572v6.519c-1.379 0.062-2.726 0.436-3.938 1.095s-2.26 1.585-3.062 2.708v-16.323h-2.572v0.75h-3.429l1.714 1.125z"></path>
    </symbol>
    <symbol id="icon-money" viewBox="0 0 32 32">
      <path fill="#1c74e9" style="fill: var(--color1, #1c74e9)" d="M14.494 0.998c-0.1-0-0.197 0.029-0.28 0.085s-0.147 0.135-0.184 0.227c-0.037 0.092-0.046 0.194-0.026 0.292s0.070 0.187 0.142 0.256l1.204 1.202c-6.87 0.342-12.35 6.013-12.35 12.967-0.006 2.591 0.767 5.124 2.22 7.27 0.935 1.384 2.126 2.575 3.51 3.51 0.692 0.467 1.432 0.87 2.21 1.199 0.061 0.029 0.127 0.045 0.194 0.047s0.134-0.009 0.197-0.033 0.12-0.060 0.169-0.107c0.048-0.047 0.087-0.103 0.113-0.165s0.040-0.129 0.040-0.196c-0-0.067-0.014-0.134-0.040-0.196s-0.065-0.118-0.114-0.164c-0.049-0.047-0.106-0.083-0.169-0.107-1.426-0.603-2.721-1.476-3.814-2.572-1.116-1.113-2.002-2.436-2.605-3.892s-0.913-3.018-0.911-4.594c0-6.376 4.96-11.568 11.232-11.965l-1.086 1.087c-0.046 0.046-0.083 0.102-0.108 0.162s-0.038 0.126-0.038 0.191c0 0.066 0.013 0.131 0.038 0.191s0.062 0.116 0.109 0.162c0.046 0.046 0.102 0.083 0.162 0.108s0.126 0.038 0.191 0.038c0.066-0 0.131-0.013 0.191-0.038s0.116-0.062 0.162-0.109l2-2c0.047-0.046 0.084-0.102 0.109-0.163s0.038-0.126 0.038-0.192-0.013-0.131-0.038-0.192c-0.025-0.061-0.062-0.116-0.109-0.163l-2-1.998c-0.047-0.048-0.103-0.087-0.165-0.113s-0.128-0.039-0.195-0.039zM20.816 4.008c-0.113 0.009-0.219 0.055-0.302 0.132s-0.137 0.18-0.154 0.291c-0.017 0.112 0.004 0.226 0.061 0.324s0.144 0.174 0.249 0.216c1.426 0.603 2.721 1.476 3.814 2.572 1.116 1.113 2 2.436 2.604 3.891s0.913 3.017 0.912 4.592c0 6.392-4.987 11.592-11.285 11.963l1.139-1.138c0.072-0.070 0.121-0.161 0.141-0.26s0.009-0.201-0.030-0.294c-0.039-0.093-0.106-0.171-0.191-0.226s-0.184-0.082-0.285-0.079c-0.13 0.003-0.253 0.057-0.344 0.15l-2 2c-0.047 0.046-0.084 0.102-0.109 0.162s-0.038 0.126-0.038 0.192c0 0.066 0.013 0.131 0.038 0.192s0.062 0.116 0.109 0.162l2 2c0.046 0.046 0.102 0.083 0.162 0.109s0.126 0.038 0.191 0.038c0.066 0 0.131-0.013 0.191-0.038s0.116-0.062 0.162-0.108c0.046-0.046 0.083-0.102 0.109-0.162s0.038-0.126 0.038-0.191c0-0.066-0.013-0.131-0.038-0.192s-0.062-0.116-0.108-0.162l-1.154-1.153c6.848-0.367 12.3-6.028 12.3-12.965 0.006-2.59-0.768-5.123-2.22-7.268-1.412-2.090-3.398-3.726-5.72-4.71-0.061-0.026-0.127-0.040-0.193-0.041-0.017-0.001-0.034-0.001-0.051 0zM16 8.028c-4.412 0-8 3.587-8 8 0 4.412 3.588 8 8 8s8-3.588 8-8c0-4.413-3.588-8-8-8zM16 9.028c3.872 0 7 3.127 7 7 0 3.871-3.128 7-7 7s-7-3.129-7-7c0-3.873 3.128-7 7-7zM15.646 11v1.158c-0.314 0.039-0.599 0.114-0.853 0.227-0.254 0.112-0.47 0.256-0.65 0.431-0.177 0.177-0.317 0.388-0.41 0.621-0.095 0.252-0.143 0.52-0.14 0.79 0 0.312 0.055 0.587 0.16 0.826 0.112 0.238 0.268 0.448 0.472 0.63 0.208 0.183 0.458 0.342 0.75 0.48 0.295 0.132 0.628 0.25 0.998 0.353 0.277 0.090 0.513 0.187 0.707 0.285 0.198 0.098 0.358 0.204 0.478 0.32 0.125 0.116 0.214 0.24 0.27 0.373 0.055 0.133 0.084 0.28 0.084 0.438 0 0.19-0.034 0.36-0.104 0.515-0.070 0.151-0.172 0.28-0.306 0.389-0.13 0.105-0.29 0.188-0.485 0.248-0.385 0.108-0.792 0.114-1.18 0.016-0.175-0.046-0.338-0.128-0.478-0.243-0.151-0.126-0.27-0.287-0.346-0.468-0.088-0.197-0.13-0.444-0.13-0.743h-1.221c0 0.397 0.062 0.738 0.187 1.022 0.125 0.28 0.29 0.515 0.498 0.701 0.213 0.186 0.456 0.328 0.729 0.426s0.554 0.164 0.845 0.195v1.010h0.965v-1.010c0.347-0.035 0.659-0.105 0.936-0.21 0.277-0.106 0.513-0.247 0.707-0.423 0.194-0.175 0.345-0.382 0.451-0.62 0.106-0.243 0.158-0.513 0.158-0.815 0-0.309-0.050-0.581-0.152-0.817-0.104-0.237-0.257-0.448-0.451-0.62-0.22-0.193-0.468-0.352-0.735-0.47-0.325-0.149-0.661-0.273-1.005-0.369-0.256-0.079-0.506-0.176-0.749-0.289-0.175-0.085-0.338-0.193-0.486-0.32-0.117-0.101-0.209-0.227-0.27-0.369-0.1-0.311-0.1-0.646 0-0.957 0.056-0.15 0.136-0.28 0.243-0.385 0.117-0.112 0.257-0.198 0.41-0.252 0.162-0.060 0.352-0.090 0.574-0.090 0.213 0 0.402 0.040 0.569 0.121s0.305 0.193 0.416 0.336c0.11 0.144 0.194 0.316 0.25 0.512 0.060 0.197 0.090 0.411 0.090 0.647h1.214c0-0.713-0.179-1.273-0.535-1.684-0.351-0.414-0.849-0.664-1.496-0.752v-1.164h-0.979z"></path>
    </symbol>
    <symbol id="icon-growth-chart" viewBox="0 0 32 32">
      <path fill="#1c74e9" style="fill: var(--color1, #1c74e9)" d="M12 31.333h-5.333c-0.53 0-1.039-0.211-1.414-0.586s-0.586-0.884-0.586-1.414v-12c0-0.53 0.211-1.039 0.586-1.414s0.884-0.586 1.414-0.586h5.333c0.53 0 1.039 0.211 1.414 0.586s0.586 0.884 0.586 1.414v12c0 0.53-0.211 1.039-0.586 1.414s-0.884 0.586-1.414 0.586zM6.667 16.667c-0.177 0-0.346 0.070-0.471 0.195s-0.195 0.295-0.195 0.471v12c0 0.177 0.070 0.346 0.195 0.471s0.295 0.195 0.471 0.195h5.333c0.177 0 0.346-0.070 0.471-0.195s0.195-0.295 0.195-0.471v-12c0-0.177-0.070-0.346-0.195-0.471s-0.295-0.195-0.471-0.195h-5.333zM25.334 31.333h-5.333c-0.53 0-1.039-0.211-1.414-0.586s-0.586-0.884-0.586-1.414v-17.333c0-0.53 0.211-1.039 0.586-1.414s0.884-0.586 1.414-0.586h5.333c0.53 0 1.039 0.211 1.414 0.586s0.586 0.884 0.586 1.414v17.333c0 0.53-0.211 1.039-0.586 1.414s-0.884 0.586-1.414 0.586zM20 11.333c-0.177 0-0.346 0.070-0.471 0.195s-0.195 0.295-0.195 0.471v17.333c0 0.177 0.070 0.346 0.195 0.471s0.295 0.195 0.471 0.195h5.333c0.177 0 0.346-0.070 0.471-0.195s0.195-0.295 0.195-0.471v-17.333c0-0.177-0.070-0.346-0.195-0.471s-0.295-0.195-0.471-0.195h-5.333zM8.667 11.333c-0.123-0-0.244-0.035-0.348-0.1s-0.189-0.157-0.245-0.267c-0.079-0.157-0.093-0.34-0.038-0.507s0.174-0.306 0.331-0.386l13.58-6.793-2.287-1.373c-0.134-0.097-0.226-0.24-0.26-0.402s-0.007-0.33 0.076-0.473 0.216-0.25 0.373-0.3c0.157-0.050 0.327-0.041 0.478 0.027l3.333 2c0.102 0.061 0.186 0.149 0.243 0.253s0.085 0.223 0.081 0.342c-0.004 0.119-0.040 0.235-0.104 0.336s-0.154 0.182-0.26 0.236l-14.667 7.333c-0.088 0.047-0.187 0.072-0.287 0.073z"></path>
      <path fill="#1c74e9" style="fill: var(--color1, #1c74e9)" d="M22.666 8h-0.107c-0.088-0.013-0.173-0.043-0.249-0.089s-0.142-0.107-0.194-0.179c-0.052-0.072-0.089-0.154-0.11-0.241s-0.023-0.176-0.007-0.264l0.667-4c0.014-0.088 0.045-0.171 0.092-0.247s0.107-0.141 0.179-0.193c0.072-0.052 0.153-0.089 0.239-0.11s0.176-0.024 0.263-0.010c0.088 0.014 0.172 0.045 0.247 0.092s0.141 0.107 0.193 0.179c0.052 0.072 0.089 0.153 0.11 0.239s0.024 0.176 0.010 0.263l-0.667 4c-0.026 0.158-0.107 0.301-0.229 0.404s-0.278 0.158-0.437 0.156z"></path>
    </symbol>
    <symbol id="icon-usb" viewBox="0 0 32 32">
      <path fill="#1c74e9" style="fill: var(--color1, #1c74e9)" d="M15.778 32c-0.007 0-0.013 0-0.020 0-0.73-0.005-1.415-0.295-1.927-0.814s-0.792-1.208-0.787-1.937c0.007-0.979 0.535-1.869 1.371-2.349l0.024-3.311-3.915-0.028c-0.534-0.004-1.035-0.215-1.411-0.597s-0.581-0.886-0.577-1.42l0.031-4.443-0.736-0.005c-0.128-0.001-0.252-0.053-0.342-0.145s-0.14-0.215-0.139-0.344l0.030-4.228c0.002-0.267 0.219-0.481 0.485-0.481 0.001 0 0.002 0 0.003 0l4.228 0.030c0.268 0.002 0.484 0.22 0.481 0.488l-0.030 4.227c-0.002 0.267-0.219 0.482-0.485 0.482-0.001 0-0.002 0-0.004 0l-0.736-0.005-0.026 3.691 3.161 0.023 0.1-14.215-1.888-0.013c-0.173-0.001-0.333-0.094-0.418-0.245s-0.084-0.335 0.004-0.484l3.305-5.634c0.087-0.15 0.27-0.239 0.421-0.24 0.173 0.001 0.332 0.095 0.418 0.245l3.227 5.68c0.085 0.151 0.084 0.335-0.004 0.485s-0.262 0.236-0.422 0.239l-1.888-0.013-0.073 10.285 3.161 0.022 0.030-4.321c-0.784-0.505-1.255-1.365-1.248-2.312 0.005-0.73 0.294-1.414 0.814-1.926s1.192-0.798 1.938-0.787c0.73 0.005 1.414 0.294 1.926 0.814s0.792 1.208 0.787 1.938c-0.007 1.008-0.582 1.932-1.461 2.397l-0.035 4.969c-0.004 0.535-0.216 1.036-0.597 1.412-0.378 0.373-0.876 0.578-1.405 0.578-0.005 0-0.010 0-0.015 0l-3.915-0.028-0.051 7.241c0.829 0.492 1.345 1.389 1.338 2.369-0.010 1.499-1.234 2.712-2.731 2.712zM8.323 16.128l0.736 0.005c0.129 0.001 0.252 0.053 0.342 0.145s0.14 0.215 0.14 0.344l-0.034 4.928c-0.002 0.276 0.104 0.535 0.298 0.732s0.452 0.306 0.728 0.309l4.399 0.032c0.268 0.002 0.483 0.22 0.481 0.488l-0.029 4.093c-0.001 0.193-0.117 0.367-0.295 0.443-0.648 0.275-1.069 0.907-1.074 1.609-0.004 0.471 0.177 0.915 0.507 1.25s0.772 0.522 1.243 0.525c0.976-0.010 1.768-0.778 1.775-1.75 0.005-0.703-0.408-1.341-1.051-1.625-0.177-0.078-0.29-0.253-0.289-0.446l0.056-8.023c0.002-0.268 0.21-0.471 0.488-0.481l4.399 0.031c0.003 0 0.005 0 0.008 0 0.272 0 0.53-0.105 0.725-0.298 0.196-0.194 0.306-0.453 0.308-0.728l0.038-5.279c0.002-0.201 0.127-0.38 0.314-0.45 0.679-0.255 1.139-0.912 1.144-1.636 0.004-0.471-0.177-0.915-0.507-1.25s-0.772-0.522-1.243-0.525c-0.465 0.002-0.915 0.177-1.25 0.508s-0.522 0.772-0.525 1.243c-0.004 0.678 0.371 1.287 0.981 1.59 0.166 0.082 0.271 0.252 0.269 0.438l-0.035 5.088c-0.001 0.129-0.053 0.252-0.144 0.342-0.090 0.089-0.213 0.14-0.341 0.14-0.001 0-0.003 0-0.003 0l-4.131-0.029c-0.268-0.002-0.484-0.22-0.482-0.488l0.079-11.254c0.002-0.268 0.225-0.486 0.488-0.481l1.533 0.011-2.397-4.22-2.455 4.186 1.533 0.011c0.268 0.002 0.483 0.221 0.482 0.488l-0.107 15.184c-0.001 0.129-0.053 0.252-0.145 0.342-0.091 0.089-0.213 0.139-0.34 0.139-0.001 0-0.002 0-0.004 0l-4.131-0.029c-0.129-0.001-0.251-0.053-0.342-0.145s-0.141-0.215-0.14-0.344l0.033-4.66c0.002-0.268 0.224-0.48 0.488-0.481l0.736 0.006 0.023-3.258-3.258-0.023-0.023 3.258z"></path>
    </symbol>
    <symbol id="icon-goal" viewBox="0 0 32 32">
      <path fill="#1c74e9" style="fill: var(--color1, #1c74e9)" d="M15.44 18.667c-0.113 0.001-0.224-0.027-0.323-0.080s-0.183-0.132-0.244-0.226l-1.433-2.247c-0.085-0.148-0.109-0.323-0.068-0.489s0.143-0.31 0.287-0.402c0.144-0.092 0.317-0.126 0.485-0.094s0.317 0.127 0.417 0.265l0.88 1.373 2-3.127c0.045-0.079 0.105-0.147 0.178-0.202s0.155-0.094 0.243-0.115c0.088-0.022 0.179-0.025 0.269-0.010s0.175 0.048 0.251 0.097c0.076 0.049 0.142 0.113 0.192 0.188s0.085 0.16 0.102 0.248c0.017 0.089 0.015 0.18-0.004 0.269s-0.057 0.172-0.11 0.245l-2.56 4c-0.060 0.094-0.143 0.171-0.241 0.225s-0.208 0.082-0.319 0.082z"></path>
      <path fill="#1c74e9" style="fill: var(--color1, #1c74e9)" d="M16 22.667c-1.319 0-2.607-0.391-3.704-1.124s-1.951-1.774-2.455-2.992-0.637-2.559-0.379-3.852c0.257-1.293 0.892-2.481 1.825-3.413s2.12-1.567 3.413-1.825c1.293-0.257 2.634-0.125 3.852 0.379s2.259 1.359 2.992 2.455c0.733 1.096 1.124 2.385 1.124 3.704 0 1.768-0.702 3.464-1.953 4.714s-2.946 1.953-4.714 1.953zM16 10.667c-1.055 0-2.086 0.313-2.963 0.899s-1.561 1.419-1.964 2.394c-0.404 0.975-0.509 2.047-0.304 3.081s0.714 1.985 1.46 2.731c0.746 0.746 1.696 1.254 2.731 1.46s2.107 0.1 3.081-0.303c0.975-0.404 1.808-1.087 2.394-1.964s0.899-1.908 0.899-2.963c0-1.414-0.562-2.771-1.562-3.771s-2.357-1.562-3.771-1.562zM28 12.667c-0.146 0.007-0.291-0.034-0.411-0.117s-0.21-0.204-0.256-0.343c-0.584-1.762-1.57-3.363-2.878-4.68s-2.904-2.311-4.662-2.907c-0.084-0.027-0.163-0.071-0.23-0.128s-0.123-0.128-0.164-0.207c-0.041-0.079-0.065-0.165-0.072-0.254s0.003-0.177 0.030-0.262 0.071-0.163 0.128-0.23c0.057-0.068 0.128-0.123 0.207-0.164s0.165-0.065 0.253-0.072c0.088-0.007 0.177 0.003 0.262 0.030 1.972 0.654 3.763 1.759 5.232 3.228s2.574 3.261 3.228 5.232c0.032 0.086 0.046 0.179 0.040 0.271s-0.030 0.182-0.072 0.264c-0.042 0.082-0.1 0.155-0.172 0.213s-0.154 0.101-0.243 0.126c-0.073 0.011-0.147 0.011-0.22 0zM12 28.667c-0.070-0.001-0.14-0.013-0.207-0.033-1.968-0.65-3.757-1.751-5.226-3.213s-2.576-3.248-3.234-5.213c-0.047-0.166-0.029-0.344 0.052-0.496s0.218-0.267 0.382-0.321 0.342-0.041 0.498 0.034c0.155 0.075 0.275 0.208 0.335 0.37 0.591 1.769 1.587 3.375 2.907 4.692s2.93 2.308 4.7 2.895c0.142 0.055 0.26 0.158 0.336 0.29s0.104 0.286 0.080 0.437c-0.024 0.15-0.099 0.288-0.212 0.39s-0.258 0.162-0.41 0.17zM20 28.667c-0.177 0.027-0.357-0.017-0.502-0.122s-0.241-0.264-0.268-0.441c-0.027-0.177 0.017-0.357 0.122-0.502s0.264-0.241 0.441-0.268c1.762-0.584 3.364-1.57 4.68-2.878s2.311-2.904 2.907-4.662c0.060-0.162 0.18-0.294 0.335-0.37s0.334-0.087 0.498-0.034c0.164 0.053 0.301 0.169 0.382 0.321s0.1 0.33 0.052 0.496c-0.652 1.97-1.754 3.76-3.219 5.229s-3.253 2.575-5.221 3.232c-0.069 0.010-0.138 0.010-0.207 0zM4 12.667c-0.073 0.011-0.147 0.011-0.22 0-0.089-0.025-0.172-0.068-0.243-0.126s-0.13-0.131-0.172-0.213c-0.042-0.082-0.066-0.172-0.072-0.264s0.008-0.184 0.040-0.271c0.654-1.972 1.759-3.763 3.228-5.232s3.26-2.574 5.232-3.228c0.166-0.047 0.344-0.029 0.496 0.052s0.267 0.218 0.321 0.382 0.041 0.342-0.034 0.498c-0.075 0.155-0.208 0.275-0.37 0.335-1.769 0.591-3.375 1.587-4.692 2.907s-2.308 2.93-2.895 4.7c-0.043 0.132-0.126 0.246-0.237 0.329s-0.245 0.128-0.383 0.131zM5.333 16.667h-4c-0.177 0-0.346-0.070-0.471-0.195s-0.195-0.295-0.195-0.471c0-0.177 0.070-0.346 0.195-0.471s0.295-0.195 0.471-0.195h4c0.177 0 0.346 0.070 0.471 0.195s0.195 0.295 0.195 0.471c0 0.177-0.070 0.346-0.195 0.471s-0.295 0.195-0.471 0.195zM30.666 16.667h-4c-0.177 0-0.346-0.070-0.471-0.195s-0.195-0.295-0.195-0.471c0-0.177 0.070-0.346 0.195-0.471s0.295-0.195 0.471-0.195h4c0.177 0 0.346 0.070 0.471 0.195s0.195 0.295 0.195 0.471c0 0.177-0.070 0.346-0.195 0.471s-0.295 0.195-0.471 0.195zM16 6c-0.177 0-0.346-0.070-0.471-0.195s-0.195-0.295-0.195-0.471v-4c0-0.177 0.070-0.346 0.195-0.471s0.295-0.195 0.471-0.195c0.177 0 0.346 0.070 0.471 0.195s0.195 0.295 0.195 0.471v4c0 0.177-0.070 0.346-0.195 0.471s-0.295 0.195-0.471 0.195zM16 31.333c-0.177 0-0.346-0.070-0.471-0.195s-0.195-0.295-0.195-0.471v-4c0-0.177 0.070-0.346 0.195-0.471s0.295-0.195 0.471-0.195c0.177 0 0.346 0.070 0.471 0.195s0.195 0.295 0.195 0.471v4c0 0.177-0.070 0.346-0.195 0.471s-0.295 0.195-0.471 0.195z"></path>
    </symbol>
    <symbol id="icon-manager" viewBox="0 0 32 32">
      <path fill="#1c74e9" style="fill: var(--color1, #1c74e9)" d="M5.777 19.999c-0.118 0-0.231 0.047-0.314 0.13s-0.13 0.196-0.13 0.314v3.556c0 0.118 0.047 0.231 0.13 0.314s0.196 0.13 0.314 0.13c0.118 0 0.231-0.047 0.314-0.13s0.13-0.196 0.13-0.314v-3.111h19.556v3.111c0 0.118 0.047 0.231 0.13 0.314s0.196 0.13 0.314 0.13 0.231-0.047 0.314-0.13c0.083-0.083 0.13-0.196 0.13-0.314v-3.556c0-0.118-0.047-0.231-0.13-0.314s-0.196-0.13-0.314-0.13h-20.444z"></path>
      <path fill="#1c74e9" style="fill: var(--color1, #1c74e9)" d="M15.989 15.549c-0.118 0.002-0.23 0.050-0.312 0.135s-0.127 0.198-0.126 0.315v8.356c0 0.118 0.047 0.231 0.13 0.314s0.196 0.13 0.314 0.13c0.065 0.001 0.129-0.012 0.189-0.039s0.112-0.066 0.154-0.115c0.042-0.049 0.073-0.107 0.091-0.17s0.021-0.128 0.011-0.192v-8.284c0.001-0.059-0.011-0.118-0.033-0.173s-0.056-0.105-0.098-0.147c-0.042-0.042-0.092-0.075-0.147-0.097s-0.114-0.033-0.174-0.032z"></path>
      <path fill="#1c74e9" style="fill: var(--color1, #1c74e9)" d="M15.955 1.777c-0.875 0.001-1.714 0.35-2.332 0.969s-0.966 1.458-0.966 2.333v2.799c0 0.943 0.477 1.766 1.108 2.348 0.039 0.036 0.087 0.052 0.127 0.085l-0.016 0.009c0 0-2.764 1.372-5.23 2.717-0.713 0.358-1.358 1.061-1.358 1.96v0.696c0 0.118 0.047 0.231 0.13 0.314s0.196 0.13 0.314 0.13 0.231-0.047 0.314-0.13c0.083-0.083 0.13-0.196 0.13-0.314v-0.696c0-0.441 0.395-0.93 0.871-1.169 0.005-0.003 0.010-0.006 0.014-0.009 1.721-0.931 3.457-1.833 5.209-2.705h0.002l0.476-0.234c0.392 0.184 0.8 0.3 1.206 0.3h0.004c0.016 0.001 0.031 0.001 0.047 0 0.14-0.011 0.172-0.054 0.288-0.077 0.301-0.042 0.598-0.098 0.887-0.236 0.012 0 0.034-0.009 0.044-0.011l0.438 0.213-0.051-0.031c0.147 0.098 0.281 0.156 0.566 0.295s0.675 0.332 1.156 0.573c0.96 0.48 2.291 1.163 3.874 2.047 0.458 0.285 0.612 0.68 0.612 1.337v0.443c0 0.118 0.047 0.231 0.13 0.314s0.196 0.13 0.314 0.13 0.231-0.047 0.314-0.13c0.083-0.083 0.13-0.196 0.13-0.314v-0.443c0-0.835-0.293-1.632-1.028-2.091-0.006-0.004-0.013-0.008-0.020-0.012-1.294-0.722-2.604-1.415-3.929-2.076-0.486-0.244-0.878-0.436-1.161-0.574s-0.5-0.26-0.466-0.236c-0.012-0.008-0.025-0.015-0.038-0.022 0.024-0.021 0.053-0.030 0.076-0.052 0.631-0.582 1.111-1.405 1.111-2.349v-2.798c-0-0.875-0.348-1.715-0.967-2.334s-1.458-0.967-2.333-0.968v-0.002zM15.955 2.666c0.317-0.002 0.632 0.059 0.925 0.18s0.56 0.298 0.784 0.523c0.224 0.224 0.402 0.491 0.522 0.785s0.181 0.608 0.179 0.925v2.799c0 0.639-0.335 1.244-0.825 1.694-0.484 0.446-1.112 0.707-1.571 0.711h-0.005c-0.022 0-0.036-0.013-0.058-0.015-0.456-0.015-1.065-0.26-1.54-0.698-0.489-0.452-0.823-1.056-0.823-1.695v-2.798c0-1.345 1.067-2.413 2.41-2.413v0.002z"></path>
      <path fill="#428df0" style="fill: var(--color2, #428df0)" d="M5.777 24.001c-0.824 0.001-1.615 0.329-2.198 0.912s-0.912 1.373-0.913 2.197c0 1.713 1.398 3.111 3.111 3.111s3.111-1.398 3.111-3.111c-0.002-0.824-0.33-1.614-0.913-2.197s-1.373-0.911-2.198-0.912zM5.777 24.89c0.292-0.001 0.581 0.055 0.851 0.167s0.515 0.275 0.722 0.481c0.207 0.206 0.37 0.452 0.482 0.722s0.168 0.559 0.167 0.851c0 1.233-0.989 2.222-2.222 2.222-0.292 0.001-0.582-0.056-0.852-0.167s-0.515-0.275-0.722-0.482-0.37-0.452-0.482-0.722c-0.111-0.27-0.168-0.559-0.167-0.852-0.001-0.292 0.056-0.581 0.167-0.851s0.275-0.515 0.482-0.722 0.452-0.37 0.722-0.481c0.27-0.111 0.559-0.168 0.851-0.167zM26.222 24.001c-0.824 0.001-1.615 0.329-2.198 0.912s-0.912 1.373-0.913 2.197c0 1.713 1.398 3.111 3.111 3.111s3.111-1.398 3.111-3.111c-0.002-0.824-0.33-1.614-0.913-2.197s-1.373-0.911-2.198-0.912zM26.222 24.89c0.292-0.001 0.581 0.055 0.851 0.167s0.515 0.275 0.722 0.481c0.207 0.206 0.37 0.452 0.482 0.722s0.168 0.559 0.167 0.851c0 1.233-0.989 2.222-2.222 2.222-0.292 0.001-0.581-0.056-0.852-0.167s-0.515-0.275-0.722-0.482c-0.207-0.207-0.37-0.452-0.482-0.722s-0.168-0.559-0.167-0.852c-0.001-0.292 0.056-0.581 0.167-0.851s0.275-0.515 0.482-0.722c0.207-0.206 0.452-0.37 0.722-0.481s0.559-0.168 0.851-0.167zM16 24.001c-0.824 0.001-1.615 0.329-2.198 0.912s-0.912 1.373-0.913 2.197c0 1.713 1.398 3.111 3.111 3.111s3.111-1.398 3.111-3.111c-0.002-0.824-0.33-1.614-0.913-2.197s-1.373-0.911-2.198-0.912zM16 24.89c0.292-0.001 0.581 0.055 0.851 0.167s0.515 0.275 0.722 0.481c0.207 0.206 0.37 0.452 0.482 0.722s0.168 0.559 0.167 0.851c0 1.233-0.989 2.222-2.222 2.222-0.292 0.001-0.581-0.056-0.851-0.167s-0.515-0.275-0.722-0.482c-0.207-0.207-0.37-0.452-0.482-0.722s-0.168-0.559-0.167-0.852c-0.001-0.292 0.056-0.581 0.167-0.851s0.275-0.515 0.482-0.722c0.207-0.206 0.452-0.37 0.722-0.481s0.559-0.168 0.851-0.167z"></path>
    </symbol>





    <!--Tests Icons-->
    <symbol id="icon-smartphone" viewBox="0 0 20 32">
      <path d="M17 0H3C1.346 0 0 1.346 0 3v26c0 1.654 1.346 3 3 3h14c1.654 0 3-1.346 3-3V3c0-1.654-1.346-3-3-3zM3 2h14a1 1 0 0 1 1 1v21H2V3a1 1 0 0 1 1-1zm14 28H3a1 1 0 0 1-1-1v-3h16v3a1 1 0 0 1-1 1z"/>
      <path d="M4.707 27.478c.391.365.391.956 0 1.321s-1.024.365-1.414 0c-.391-.365-.391-.956 0-1.321s1.024-.365 1.414 0z"/>
    </symbol>
    <symbol id="icon-envelope" viewBox="0 0 43 32">
      <path d="M38.667 0H4C1.794 0 0 1.794 0 4v24c0 2.206 1.794 4 4 4h34.667c2.206 0 4-1.794 4-4V4c0-2.206-1.794-4-4-4zm0 2.667c.181 0 .353.038.511.103L21.334 18.236 3.49 2.77a1.32 1.32 0 0 1 .511-.103h34.667zm0 26.666H4A1.334 1.334 0 0 1 2.667 28V5.587L20.46 21.008a1.335 1.335 0 0 0 1.748 0L40.001 5.587V28c0 .736-.598 1.333-1.333 1.333z"/>
    </symbol>
    <symbol id="icon-antenna" viewBox="0 0 32 32">
      <path d="m30.773 22.098-8.443-8.505.937-4.615c.242.094.499.144.758.146h.006a2.159 2.159 0 1 0-2.008-1.435l-4.96.605L8.972.161a.534.534 0 0 0-.377-.16.532.532 0 0 0-.373.155L6.709 1.66a.534.534 0 0 0 0 .754l.814.826a14.943 14.943 0 0 0 2.519 17.663.513.513 0 0 0 .146.098c-.034.18-.051.364-.052.547v6.187h-6.4a2.67 2.67 0 0 0-2.667 2.667v1.067c0 .295.239.533.533.533h24.533a.533.533 0 0 0 .533-.533v-1.067a2.67 2.67 0 0 0-2.667-2.667h-6.4v-2.742a15.09 15.09 0 0 0 3.049.32 14.854 14.854 0 0 0 7.04-1.783l.818.823a.534.534 0 0 0 .377.16.532.532 0 0 0 .373-.155l1.513-1.504a.534.534 0 0 0 0-.754zM23.28 6.233a1.066 1.066 0 1 1 .752 1.822h-.003a1.067 1.067 0 0 1-.747-1.823h-.002zm-1.256 3.505-.598 2.946-1.175-1.182 1.774-1.763zm-.605-.902-1.92 1.909-1.485-1.493 3.405-.415zM24.004 28.8a1.6 1.6 0 0 1 1.6 1.6v.533H2.137V30.4a1.6 1.6 0 0 1 1.6-1.6h20.267zm-7.467-2.133v1.067h-5.333v-1.067h5.333zM11.204 25.6v-4.053c0-1.294 1.196-2.347 2.667-2.347s2.667 1.053 2.667 2.347V25.6h-5.333zm6.4-1.696v-2.357c0-1.882-1.675-3.413-3.733-3.413a3.8 3.8 0 0 0-3.281 1.786A13.87 13.87 0 0 1 8.311 4.033l18.602 18.708a13.818 13.818 0 0 1-9.309 1.163zm11.289-.684L7.836 2.039l.755-.752 7.935 7.98c.004 0 .006.007.01.01l13.115 13.191-.757.752z"/>
      <path d="M13.876 20.267h-.005a1.6 1.6 0 1 0-.004 3.2h.005a1.6 1.6 0 1 0 .004-3.2zm.373 1.978a.534.534 0 0 1-.752-.756.534.534 0 0 1 .373-.155.532.532 0 0 1 .373.911h.005z"/>
    </symbol>

    <symbol id="icon-arrow-left" viewBox="0 0 32 32">
      <path stroke-linejoin="round" stroke-linecap="round" stroke-width="2.133" d="M28.93 16H3.07m0 0 9.697-9.697M3.07 16l9.697 9.697"/>
    </symbol>
    <symbol id="icon-arrow-right" viewBox="0 0 32 32">
      <path stroke-linejoin="round" stroke-linecap="round" stroke-width="2.1333" stroke="#666" d="M3.070 16h25.86M28.93 16l-9.697 9.697M28.93 16l-9.697-9.697"/>
    </symbol>
    <symbol id="icon-arrow-down" viewBox="0 0 32 32">
      <path d="m1.428 1.429 17.143 17.143m0 0H5.714m12.857 0V5.713" stroke="#ff0000" stroke-width="2" stroke-linecap="round" stroke-linejoin="round"/>
    </symbol>
    <symbol id="icon-subtract" viewBox="0 0 32 32">
      <path fill-rule="evenodd" clip-rule="evenodd" d="M30 60c16.569 0 30-13.431 30-30C60 13.431 46.569 0 30 0 13.431 0 0 13.431 0 30c0 16.569 13.431 30 30 30Zm-5.286-21.429a1 1 0 0 1 1-1h10.443L20.722 22.136a1 1 0 1 1 1.414-1.415L37.57 36.157V25.714a1 1 0 1 1 2 0v12.857a1 1 0 0 1-1 1H25.714a1 1 0 0 1-1-1Z"/>
    </symbol>

  </defs>
</svg>