<svg aria-hidden="true" xmlns="http://www.w3.org/2000/svg">
  <defs>
    <!--Logo Icons-->
    <symbol id="icon-main-logo" viewBox="0 0 30 32">
      <path d="M20.093 0h2.11c-.032 1.166-.528 2.071-1.438 2.767 1.225 1.926 1.171 3.805-.165 5.664.032.024.066.059.106.08 1.109.571 1.7 1.491 1.807 2.716.075.862-.084 1.686-.53 2.44a2.935 2.935 0 0 1-4.699.521c-.276-.292-.524-.61-.779-.922a1.283 1.283 0 0 0-1.402-.426c-.479.161-.761.574-.767 1.151a8.43 8.43 0 0 0 .03.778c.013.153-.033.213-.19.211-.512-.006-1.025.004-1.538-.01-.069-.002-.183-.095-.194-.16-.111-.676-.107-1.349.09-2.014.491-1.659 2.085-2.502 3.75-2.004.709.212 1.247.637 1.696 1.2.12.15.243.299.36.453.308.408.715.628 1.224.532.529-.1.807-.497.935-.984a1.887 1.887 0 0 0-.412-1.786c-.452-.528-1.036-.538-1.64-.347-2.195.692-4.529-.271-5.554-2.302a4.587 4.587 0 0 1 .616-5.056c1.236-1.435 3.17-1.966 4.989-1.369.714.234 1.368-.138 1.539-.877l.056-.257-.001.001zm-5.554 5.473a2.479 2.479 0 0 0 2.463 2.493 2.474 2.474 0 1 0 .036-4.949 2.477 2.477 0 0 0-2.499 2.456l.001.001z"/>
      <path d="M8.644 10.581c0-1.373.005-2.746-.005-4.118-.002-.241.067-.313.311-.311 1.579.01 3.158.009 4.737.001.216-.001.296.05.289.279a29.8 29.8 0 0 0-.001 1.582c.005.204-.053.276-.267.273-.856-.011-1.713-.005-2.57-.005-.241 0-.361.124-.361.372v6.026c0 .22-.109.33-.327.33-.504 0-1.009-.011-1.512.005-.229.008-.3-.056-.299-.291.01-1.381.005-2.762.005-4.143l.001.001zM7.953 2.65A1.823 1.823 0 0 1 9.792.843a1.82 1.82 0 1 1-.027 3.642 1.824 1.824 0 0 1-1.813-1.834zM2.957 19.639v4.641H1.893v-4.641h1.064zM8.127 19.639v4.641H7.056l-2.123-2.937v2.937H3.869v-4.641h1.098l2.096 2.897v-2.897h1.065zM12.458 20.043l-.452.709a2.137 2.137 0 0 0-1.224-.385c-.111 0-.217.01-.319.03s-.199.064-.293.133a.317.317 0 0 0-.139.268c0 .141.071.25.213.325.133.075.359.164.678.265.408.124.705.227.892.312.563.252.845.665.845 1.24 0 .261-.058.488-.173.683s-.27.346-.466.454c-.195.109-.402.188-.622.239s-.451.076-.695.076c-.47 0-.878-.082-1.224-.245-.355-.168-.619-.338-.792-.511l.526-.703c.466.385.973.577 1.524.577.222 0 .42-.042.595-.126s.263-.223.263-.418a.438.438 0 0 0-.12-.312 1.168 1.168 0 0 0-.319-.199 6.64 6.64 0 0 0-.559-.179c-.186-.053-.339-.101-.459-.142s-.256-.103-.409-.182c-.153-.079-.274-.164-.363-.252s-.164-.204-.226-.348a1.203 1.203 0 0 1-.093-.481c0-.451.171-.79.512-1.018s.749-.341 1.224-.341c.612 0 1.171.177 1.677.53l.001-.001zM14.401 19.639v4.641h-1.064v-4.641h1.064zM19.317 20.149l-.539.756c-.364-.292-.752-.438-1.164-.438s-.755.142-1.014.428c-.259.285-.389.637-.389 1.057s.132.777.396 1.07c.264.294.6.441 1.008.441.35 0 .69-.117 1.018-.351v-.743h-1.191v-.743h2.155v1.783c-.519.654-1.187.981-2.003.981-.701 0-1.288-.235-1.76-.706s-.708-1.051-.708-1.74.24-1.295.722-1.75c.481-.455 1.077-.683 1.787-.683s1.244.212 1.683.636h-.002zM24.413 19.639v4.641h-1.064v-1.876h-1.896v1.876h-1.064v-4.641h1.064v1.81h1.896v-1.81h1.064zM28.918 19.639v.902h-1.43v3.739h-1.064v-3.739h-1.43v-.902h3.925zM4.192 27.757l-.539.756c-.364-.292-.752-.438-1.164-.438s-.755.142-1.014.428c-.259.285-.389.637-.389 1.057s.132.777.396 1.07c.264.294.6.441 1.008.441.35 0 .69-.117 1.018-.351v-.742H2.317v-.743h2.155v1.783c-.519.654-1.187.981-2.003.981-.701 0-1.288-.235-1.76-.706s-.708-1.051-.708-1.74c0-.689.24-1.295.722-1.75S1.8 27.12 2.51 27.12s1.244.212 1.683.636h-.002zM9.008 28.685c0 .331-.092.61-.276.836s-.438.389-.762.49l1.191 1.876H7.97l-1.085-1.79h-.559v1.79H5.262v-4.641h2.069c.474 0 .873.126 1.194.378s.482.605.482 1.061h.001zm-1.776-.603h-.905v1.233h.905c.204 0 .371-.053.499-.159s.193-.258.193-.457-.063-.357-.19-.461-.294-.156-.503-.156v-.001zM13.639 27.816c.47.464.705 1.045.705 1.744s-.239 1.279-.715 1.743c-.477.464-1.063.696-1.759.696s-1.29-.234-1.766-.703c-.477-.469-.715-1.047-.715-1.737s.24-1.279.719-1.744c.479-.464 1.067-.696 1.763-.696s1.3.232 1.77.696l-.001.001zm-3.174 1.744c0 .407.133.755.399 1.044s.599.434.998.434.743-.145 1.005-.434c.262-.289.392-.637.392-1.044s-.13-.772-.389-1.057c-.259-.285-.595-.428-1.008-.428s-.743.145-1.005.434-.392.64-.392 1.051h-.001zM21.549 27.247l-1.417 4.641h-1.184l-.972-3.195-.965 3.195h-1.184l-1.424-4.641h1.151l.912 3.235.984-3.235h1.058l.978 3.235.912-3.235h1.151zM25.694 27.247v.902h-1.43v3.739H23.2v-3.739h-1.43v-.902h3.925zM30.298 27.247v4.641h-1.064v-1.876h-1.896v1.876h-1.064v-4.641h1.064v1.809h1.896v-1.809h1.064z"/>
    </symbol>

    <!--Servise Icons-->
    <symbol id="icon-line" viewBox="0 0 533 32">
      <path d="m0 16 26.667 15.396V.604L0 16zm533.333 0L506.666.604v30.792L533.333 16zM24 18.667h485.333v-5.333H24v5.333z"/>
    </symbol>


    <!--Test Icons-->
    <symbol id="icon-arrow" viewBox="0 0 32 32">
      <path stroke-linejoin="round" stroke-linecap="round" stroke-miterlimit="4" stroke-width="3.2" d="M2.286 2.286l27.429 27.428M29.714 29.714h-20.571M29.714 29.714v-20.571"></path>
    </symbol>
    <symbol id="icon-arrow" viewBox="0 0 32 32">
      <path stroke-linejoin="round" stroke-linecap="round" stroke-width="3.2" d="m2.286 2.286 27.429 27.428m-.001 0H9.143m20.571 0V9.143"/>
    </symbol>
        <symbol id="icon-arrow-1" viewBox="0 0 32 32">
      <path stroke-linejoin="round" stroke-linecap="round" stroke-width="3.2" d="m2.286 2.286 27.429 27.428m-.001 0H9.143m20.571 0V9.143"/>
    </symbol>
    <symbol id="icon-Close-1" viewBox="0 0 32 32">
    <path fill="#1c74e9" style="fill: var(--color1, #1c74e9)" d="M17.88 16l8.4-8.387c0.251-0.251 0.392-0.592 0.392-0.947s-0.141-0.696-0.392-0.947c-0.251-0.251-0.592-0.392-0.947-0.392s-0.696 0.141-0.947 0.392l-8.387 8.4-8.387-8.4c-0.251-0.251-0.592-0.392-0.947-0.392s-0.696 0.141-0.947 0.392c-0.251 0.251-0.392 0.592-0.392 0.947s0.141 0.696 0.392 0.947l8.4 8.387-8.4 8.387c-0.125 0.124-0.224 0.271-0.292 0.434s-0.103 0.337-0.103 0.513c0 0.176 0.035 0.35 0.103 0.513s0.167 0.31 0.292 0.434c0.124 0.125 0.271 0.224 0.434 0.292s0.337 0.102 0.513 0.102 0.35-0.035 0.513-0.102c0.162-0.068 0.31-0.167 0.434-0.292l8.387-8.4 8.387 8.4c0.124 0.125 0.271 0.224 0.434 0.292s0.337 0.102 0.513 0.102 0.35-0.035 0.513-0.102c0.162-0.068 0.31-0.167 0.434-0.292 0.125-0.124 0.224-0.271 0.292-0.434s0.103-0.337 0.103-0.513-0.035-0.35-0.103-0.513c-0.068-0.162-0.167-0.31-0.292-0.434l-8.4-8.387z"></path>
    </symbol>
    <symbol id="icon-main_logo_color-11" viewBox="0 0 30 32">
      <path d="M20.093 0h2.12c-.032 1.166-.53 2.071-1.445 2.767 1.231 1.926 1.177 3.805-.166 5.664.032.024.066.059.107.08 1.115.571 1.707 1.491 1.816 2.716.076.862-.084 1.686-.532 2.44a2.957 2.957 0 0 1-4.721.521c-.277-.292-.527-.61-.783-.922a1.293 1.293 0 0 0-1.408-.426c-.482.161-.764.574-.771 1.151a8.43 8.43 0 0 0 .03.778c.013.153-.033.213-.191.211-.515-.006-1.03.004-1.545-.01-.069-.002-.184-.095-.195-.16-.112-.676-.107-1.35.09-2.014.493-1.659 2.094-2.501 3.768-2.004.712.212 1.253.637 1.704 1.2.121.15.244.299.361.453.31.408.719.628 1.23.532.531-.1.811-.497.94-.984.173-.658.034-1.266-.413-1.786-.455-.528-1.041-.538-1.647-.347-2.205.692-4.55-.271-5.58-2.302a4.569 4.569 0 0 1 .619-5.056c1.242-1.435 3.185-1.966 5.012-1.369.717.234 1.374-.138 1.546-.877.019-.081.035-.162.056-.257L20.188 0zm-5.58 5.473a2.484 2.484 0 0 0 2.475 2.493c1.38.007 2.504-1.093 2.509-2.457a2.48 2.48 0 0 0-2.474-2.492c-1.375-.011-2.505 1.093-2.511 2.456l.001.001z"/>
      <path d="M8.644 10.582c0-1.373.005-2.746-.005-4.118-.002-.241.067-.313.312-.311 1.587.01 3.173.009 4.759.001.217-.001.298.05.291.279a29.8 29.8 0 0 0-.001 1.582c.005.204-.053.276-.269.273-.86-.011-1.721-.005-2.582-.005-.242 0-.363.124-.363.372v6.026c0 .22-.11.33-.329.33-.507 0-1.013-.011-1.519.005-.23.007-.302-.056-.3-.291.01-1.381.005-2.762.005-4.143l.001.001zM7.99 2.65A1.827 1.827 0 0 1 9.838.843a1.824 1.824 0 0 1 1.82 1.834 1.826 1.826 0 0 1-1.846 1.808 1.828 1.828 0 0 1-1.821-1.834zM2.971 19.639v4.641H1.902v-4.641h1.069zM8.165 19.639v4.641H7.089l-2.132-2.937v2.937H3.888v-4.641h1.103l2.105 2.897v-2.897h1.07zM12.516 20.043l-.455.709a2.156 2.156 0 0 0-1.23-.385c-.111 0-.218.01-.321.03s-.2.064-.294.133a.316.316 0 0 0-.14.268c0 .141.071.25.214.325.134.075.361.164.682.265.41.124.709.227.896.312.566.252.849.665.849 1.24 0 .261-.058.488-.174.683s-.272.346-.468.454-.404.188-.625.239a3.092 3.092 0 0 1-.698.076c-.473 0-.882-.082-1.23-.245-.357-.168-.622-.338-.796-.511l.528-.703c.468.385.978.577 1.531.577.223 0 .422-.042.598-.126s.264-.223.264-.417a.438.438 0 0 0-.12-.312 1.164 1.164 0 0 0-.321-.199 6.66 6.66 0 0 0-.562-.179c-.187-.053-.341-.101-.461-.142s-.257-.103-.411-.182c-.154-.079-.275-.164-.364-.252s-.165-.204-.227-.348a1.186 1.186 0 0 1-.094-.481c0-.451.171-.79.515-1.018s.753-.341 1.23-.341c.615 0 1.177.177 1.684.53l.001-.001zM14.468 19.639v4.641h-1.069v-4.641h1.069zM19.407 20.149l-.541.756c-.365-.292-.755-.438-1.17-.438s-.758.142-1.019.428c-.261.285-.391.637-.391 1.057s.133.777.398 1.07c.265.294.603.441 1.013.441.352 0 .693-.117 1.023-.351v-.743h-1.196v-.743h2.166v1.783c-.521.654-1.192.981-2.012.981-.704 0-1.294-.235-1.768-.706s-.712-1.051-.712-1.74.241-1.295.725-1.75c.484-.455 1.082-.683 1.795-.683s1.25.212 1.691.636h-.002zM24.527 19.639v4.641h-1.069v-1.876h-1.905v1.876h-1.069v-4.641h1.069v1.81h1.905v-1.81h1.069zM29.052 19.639v.902h-1.437v3.739h-1.069v-3.739h-1.437v-.902h3.944zM4.211 27.757l-.541.756c-.365-.292-.755-.438-1.17-.438s-.758.142-1.019.428c-.261.285-.391.637-.391 1.057s.133.777.398 1.07c.265.294.603.441 1.013.441.352 0 .693-.117 1.023-.351v-.742H2.328v-.743h2.165v1.783c-.521.654-1.192.981-2.012.981-.704 0-1.294-.235-1.768-.706s-.712-1.051-.712-1.74c0-.689.241-1.295.726-1.75s1.082-.683 1.795-.683 1.25.212 1.691.636h-.002zM9.05 28.685c0 .331-.093.61-.277.836s-.44.389-.765.49l1.196 1.876H8.008l-1.09-1.79h-.562v1.79H5.287v-4.641h2.079c.476 0 .877.126 1.2.378s.485.605.485 1.061h.001zm-1.785-.603h-.909v1.233h.909c.205 0 .372-.053.501-.159s.194-.258.194-.457-.064-.357-.191-.461-.295-.156-.505-.156v-.001zM13.702 27.816c.473.464.709 1.045.709 1.744s-.24 1.279-.719 1.743-1.068.696-1.768.696c-.699 0-1.296-.234-1.775-.703s-.719-1.047-.719-1.737c0-.69.241-1.279.722-1.743s1.072-.696 1.771-.696c.699 0 1.306.232 1.778.696l-.001.001zm-3.188 1.744c0 .407.134.755.401 1.044s.602.434 1.003.434c.401 0 .746-.145 1.009-.434s.394-.637.394-1.044c0-.407-.13-.772-.391-1.057s-.598-.428-1.013-.428c-.415 0-.746.145-1.009.434s-.394.64-.394 1.051h-.001zM21.65 27.247l-1.424 4.641h-1.19l-.976-3.195-.969 3.195h-1.19l-1.43-4.641h1.156l.916 3.235.989-3.235h1.063l.983 3.235.916-3.235h1.156zM25.814 27.247v.902h-1.437v3.739h-1.069v-3.739h-1.437v-.902h3.944zM30.439 27.247v4.641H29.37v-1.876h-1.905v1.876h-1.07v-4.641h1.07v1.81h1.905v-1.81h1.069z"/>
    </symbol>
    <symbol id="icon-Arrow-11" viewBox="0 0 32 32">
    <path fill="none" stroke="#1c74e9" style="stroke: var(--color1, #1c74e9)" stroke-linejoin="round" stroke-linecap="round" stroke-miterlimit="4" stroke-width="3.2" d="M2.286 2.286l27.429 27.428M29.714 29.714h-20.571M29.714 29.714v-20.571"></path>
    </symbol>
    <symbol id="icon-arrow-left" viewBox="0 0 32 32">
      <path stroke-linejoin="round" stroke-linecap="round" stroke-width="2.133" d="M28.93 16H3.07m0 0 9.697-9.697M3.07 16l9.697 9.697"/>
    </symbol>
    <symbol id="icon-arrow-right" viewBox="0 0 32 32">
      <path stroke-linejoin="round" stroke-linecap="round" stroke-width="2.1333" stroke="#666" d="M3.070 16h25.86M28.93 16l-9.697 9.697M28.93 16l-9.697-9.697"/>
    </symbol>
    <symbol id="icon-arrow-up" viewBox="0 0 32 32">
      <path stroke-linejoin="round" stroke-linecap="round" stroke-width="3.2" d="M2.286 29.714l27.428-27.429M29.714 2.286v20.571M29.714 2.286h-20.571"/>
    </symbol>
    <symbol id="icon-arrow-down" viewBox="0 0 32 32">
      <path stroke-linejoin="round" stroke-linecap="round" stroke-width="3.2" d="M2.286 2.286l27.428 27.429M29.714 29.714h-20.571M29.714 29.714v-20.571"/>
    </symbol>

    <symbol id="icon-antenna" viewBox="0 0 32 32">
      <path fill="#212121" style="fill:var(--color1, #212121)" d="m30.773 22.098-8.443-8.505.937-4.615c.242.094.499.144.758.146h.006a2.159 2.159 0 1 0-2.008-1.435l-4.96.605L8.972.161a.534.534 0 0 0-.377-.16.532.532 0 0 0-.373.155L6.709 1.66a.534.534 0 0 0 0 .754l.814.826a14.943 14.943 0 0 0 2.519 17.663.513.513 0 0 0 .146.098c-.034.18-.051.364-.052.547v6.187h-6.4a2.67 2.67 0 0 0-2.667 2.667v1.067c0 .295.239.533.533.533h24.533a.533.533 0 0 0 .533-.533v-1.067a2.67 2.67 0 0 0-2.667-2.667h-6.4v-2.742a15.09 15.09 0 0 0 3.049.32 14.854 14.854 0 0 0 7.04-1.783l.818.823a.534.534 0 0 0 .377.16.532.532 0 0 0 .373-.155l1.513-1.504a.534.534 0 0 0 0-.754zM23.28 6.233a1.066 1.066 0 1 1 .752 1.822h-.003a1.067 1.067 0 0 1-.747-1.823h-.002zm-1.256 3.505-.598 2.946-1.175-1.182 1.774-1.763zm-.605-.902-1.92 1.909-1.485-1.493 3.405-.415zM24.004 28.8a1.6 1.6 0 0 1 1.6 1.6v.533H2.137V30.4a1.6 1.6 0 0 1 1.6-1.6h20.267zm-7.467-2.133v1.067h-5.333v-1.067h5.333zM11.204 25.6v-4.053c0-1.294 1.196-2.347 2.667-2.347s2.667 1.053 2.667 2.347V25.6h-5.333zm6.4-1.696v-2.357c0-1.882-1.675-3.413-3.733-3.413a3.8 3.8 0 0 0-3.281 1.786A13.87 13.87 0 0 1 8.311 4.033l18.602 18.708a13.818 13.818 0 0 1-9.309 1.163zm11.289-.684L7.836 2.039l.755-.752 7.935 7.98c.004 0 .006.007.01.01l13.115 13.191-.757.752z"/>
      <path fill="#2196f3" style="fill:var(--color2, #2196f3)" d="M13.876 20.267h-.005a1.6 1.6 0 1 0-.004 3.2h.005a1.6 1.6 0 1 0 .004-3.2zm.373 1.978a.534.534 0 0 1-.752-.756.534.534 0 0 1 .373-.155.532.532 0 0 1 .373.911h.005z"/>
    </symbol>


    <symbol id="icon-menu" viewBox="0 0 32 32">
    <path d="M24.033 3.121H2.059c-2.35-.078-2.35 3.027 0 2.949h21.886c2.307.078 2.397-2.949.09-2.949h-.002zM2.059 14.915c-2.26 0-2.26 2.947 0 2.947h12.389c2.307 0 2.307-2.947 0-2.947H2.059zm0 11.794c-2.26 0-2.26 2.948 0 2.948h27.762c2.26 0 2.26-2.947 0-2.947H2.059z"/>
    </symbol>
    <symbol id="icon-close" viewBox="0 0 32 32">
    <path d="m17.88 16 8.4-8.387a1.34 1.34 0 0 0-1.894-1.894l-8.387 8.4-8.387-8.4a1.34 1.34 0 0 0-1.894 1.894l8.4 8.387-8.4 8.387a1.334 1.334 0 0 0 0 1.894 1.334 1.334 0 0 0 1.894 0l8.387-8.4 8.387 8.4a1.334 1.334 0 0 0 1.894 0 1.334 1.334 0 0 0 0-1.894L17.88 16z"/>
    </symbol>

    <!--Socials Icons-->
    <symbol id="icon-viber" viewBox="0 0 32 32">
      <path d="M16 1.333C8.907 1.333 1.333 2.306 1.333 14c0 6.187 2.187 10 6.667 11.627v3a2.035 2.035 0 0 0 1.327 1.899 2.037 2.037 0 0 0 2.246-.566l2.92-3.293H16c7.093 0 14.667-.973 14.667-12.667S23.094 1.333 16 1.333zm0 9.334a2.668 2.668 0 0 1 2.667 2.667.665.665 0 1 1-1.332 0A1.333 1.333 0 0 0 16.002 12a.665.665 0 1 1 0-1.332zm-.667-2a.665.665 0 0 1 .666-.666 5.334 5.334 0 0 1 5.333 5.333.665.665 0 1 1-1.332 0 4.003 4.003 0 0 0-4-4 .665.665 0 0 1-.666-.666zm7.334 10.666a4.004 4.004 0 0 1-4 3.334c-2.093 0-6.12-2.507-7.8-4.2s-4.2-5.707-4.2-7.8a4 4 0 0 1 3.334-4h1.333a.673.673 0 0 1 .6.374s.8 1.627 1.333 2.667-.52 2.52-1.16 3.16a8.009 8.009 0 0 0 1.693 2.667 7.983 7.983 0 0 0 2.667 1.693 3.997 3.997 0 0 1 2.44-1.333c.246 0 .488.06.707.173l2.667 1.333a.668.668 0 0 1 .374.6l.013 1.333zM23.333 14a.665.665 0 0 1-.666-.666A6.67 6.67 0 0 0 16 6.667a.665.665 0 1 1 0-1.332 8 8 0 0 1 8 8 .665.665 0 0 1-.666.666z"/>
    </symbol>
    <symbol id="icon-whats-app" viewBox="0 0 32 32">
      <path d="M16.412 1C8.687 1 2.431 7.256 2.431 14.981a13.94 13.94 0 0 0 2.737 8.312l-3.563 7.706.931-.431 7.175-3.312a13.9 13.9 0 0 0 6.694 1.706c7.719 0 13.981-6.256 13.981-13.981C30.392 7.256 24.13 1 16.411 1zm7.457 19.95c-.081.388-.25.756-.494 1.081-.3.4-.688.7-1.131.887s-.931.263-1.419.2a9.385 9.385 0 0 1-3.7-1.25c-1.306-.775-3.063-1.981-4.388-3.706-1.412-1.656-2.181-3.594-2.669-5.038a9.468 9.468 0 0 1-.45-3.875c.044-.494.219-.956.494-1.35s.656-.713 1.106-.919a2.714 2.714 0 0 1 1.163-.256c.562 0 1.25-.006 1.725.331.738.519 1.05 1.544 1.05 2.444 0 .081-.006.169-.012.25-.044.494-.088.925-.369 1.319-.275.394-.781.738-1.231.95.344 1.85.938 3.225 1.756 4.113.35.487.825.95 1.431 1.381s1.337.825 2.206 1.188c.3-.394.744-.819 1.188-1.006.437-.188.875-.144 1.362-.081.081.012.169.025.25.044.875.188 1.812.706 2.169 1.538.225.538.081 1.206-.038 1.756z"/>
    </symbol>
    <symbol id="icon-facebook" viewBox="0 0 32 32">
      <path d="M24.571 2.286c1.417 0 2.628.503 3.634 1.509s1.509 2.217 1.509 3.634v17.143c0 1.417-.503 2.628-1.509 3.634s-2.217 1.509-3.634 1.509h-3.357V19.09h3.554l.536-4.143h-4.089v-2.643c0-.667.14-1.167.42-1.5s.824-.5 1.634-.5l2.179-.018V6.59c-.75-.107-1.81-.161-3.179-.161-1.619 0-2.914.476-3.884 1.429s-1.455 2.298-1.455 4.036v3.054h-3.571v4.143h3.571v10.625h-9.5c-1.417 0-2.628-.503-3.634-1.509s-1.509-2.217-1.509-3.634V7.43c0-1.417.503-2.628 1.509-3.634S6.013 2.287 7.43 2.287h17.143z"/>
    </symbol>
    <symbol id="icon-instagram" viewBox="0 0 32 32">
      <path d="M16 12.693a3.31 3.31 0 0 0-3.055 2.041 3.304 3.304 0 0 0 2.41 4.508 3.304 3.304 0 0 0 3.699-4.508 3.308 3.308 0 0 0-3.055-2.042zm13.24-3.266a8.71 8.71 0 0 0-.56-3.013 5.338 5.338 0 0 0-3.093-3.093 8.714 8.714 0 0 0-3.013-.56c-1.72-.093-2.227-.093-6.573-.093s-4.853 0-6.573.093a8.71 8.71 0 0 0-3.013.56 5.338 5.338 0 0 0-3.093 3.093 8.714 8.714 0 0 0-.56 3.013c-.093 1.72-.093 2.227-.093 6.573s0 4.853.093 6.573a9.149 9.149 0 0 0 .56 3.027c.266.702.68 1.338 1.213 1.867.531.536 1.173.95 1.88 1.213a8.714 8.714 0 0 0 3.013.56c1.72.093 2.227.093 6.573.093s4.853 0 6.573-.093a8.71 8.71 0 0 0 3.013-.56 5.198 5.198 0 0 0 1.88-1.213A5.245 5.245 0 0 0 28.68 25.6a8.792 8.792 0 0 0 .56-3.027c.093-1.72.093-2.227.093-6.573s0-4.853-.093-6.573zm-3.387 10.666a7.636 7.636 0 0 1-.52 2.4 5.17 5.17 0 0 1-2.84 2.84 7.655 7.655 0 0 1-2.413.467h-8.16a7.627 7.627 0 0 1-2.413-.467 4.692 4.692 0 0 1-1.747-1.147 4.676 4.676 0 0 1-1.093-1.693 7.312 7.312 0 0 1-.453-2.413v-8.16c.014-.824.167-1.64.453-2.413A4.692 4.692 0 0 1 7.814 7.76a4.778 4.778 0 0 1 1.693-1.093A7.655 7.655 0 0 1 11.92 6.2h8.16a7.627 7.627 0 0 1 2.413.467 4.692 4.692 0 0 1 1.747 1.147 4.676 4.676 0 0 1 1.093 1.693c.285.774.442 1.589.467 2.413V16c0 2.747.093 3.027.053 4.08v.013zm-2.133-9.92c-.159-.431-.409-.822-.734-1.146s-.716-.575-1.146-.734A5.33 5.33 0 0 0 20 8h-8a5.333 5.333 0 0 0-1.84.347 3.187 3.187 0 0 0-1.88 1.813A5.688 5.688 0 0 0 8 12v8c.013.628.13 1.25.347 1.84.159.431.409.822.734 1.146s.716.575 1.146.734a5.72 5.72 0 0 0 1.773.347h8a5.333 5.333 0 0 0 1.84-.347c.431-.159.822-.409 1.146-.734s.575-.716.734-1.146a5.333 5.333 0 0 0 .347-1.84v-8c0-.63-.117-1.254-.347-1.84v.013zM16 21.093a5.082 5.082 0 0 1-5.08-5.094 5.095 5.095 0 0 1 10.091-.986 5.099 5.099 0 0 1-2.177 5.227 5.1 5.1 0 0 1-2.833.852zm5.333-9.186a1.202 1.202 0 0 1 0-2.388 1.202 1.202 0 0 1 0 2.388z"/>
    </symbol>
    <symbol id="icon-telegram" viewBox="0 0 32 32">
      <path d="M15.992 2.667A13.336 13.336 0 0 0 2.914 18.602 13.327 13.327 0 0 0 13.39 29.078a13.34 13.34 0 0 0 13.688-5.67 13.336 13.336 0 0 0-5.984-19.727 13.338 13.338 0 0 0-5.103-1.015zm4.24 20.203a.937.937 0 0 1-.957.586.943.943 0 0 1-.38-.118l-3.62-2.812-2.323 2.143a.399.399 0 0 1-.38.052l.445-3.985.014.011.009-.079s6.513-5.93 6.779-6.183c.269-.252.18-.307.18-.307.015-.307-.482 0-.482 0l-8.63 5.552-3.594-1.224s-.552-.198-.604-.633c-.055-.432.622-.667.622-.667L21.6 9.529s1.175-.523 1.175.343L20.23 22.867z"/>
    </symbol>

    <!--Benefites for general Icons-->
    <symbol id="icon-justice" viewBox="0 0 32 32">
      <path d="M25.808 4.329h2.704a.584.584 0 0 0 0-1.17h-9.909a2.677 2.677 0 0 0-2.607-2.093 2.673 2.673 0 0 0-2.601 2.093H3.48a.584.584 0 0 0 0 1.17h2.7L1.457 17.543a.734.734 0 0 0-.034.197c0 3.092 2.505 5.608 5.585 5.608h.006c3.053 0 5.539-2.474 5.581-5.53.004-.026.016-.05.016-.077 0-.11-.03-.213-.083-.301L7.836 4.329h5.561c.14.632.499 1.195 1.02 1.577l-.771 20.595H7.922c-1.364 0-2.826 1.87-3.065 3.401a.587.587 0 0 0 .576.676h21.12a.582.582 0 0 0 .576-.676c-.24-1.531-1.702-3.401-3.066-3.401h-5.708L17.579 5.91c.525-.387.884-.95 1.025-1.58h5.551l-4.723 13.214a.734.734 0 0 0-.034.197c0 3.092 2.505 5.608 5.585 5.608h.006c3.053 0 5.539-2.474 5.581-5.53.013-.096.036-.206-.067-.378L25.812 4.33zm-.245 2.778 3.596 10.049h-3.596V7.107zm-9.567-4.871a1.511 1.511 0 1 1-.366 2.977 1.512 1.512 0 0 1 .366-2.977zM6.424 7.11v10.046H2.833L6.424 7.11zm.589 15.069h-.006c-2.239 0-4.095-1.682-4.381-3.853h8.767c-.286 2.172-2.141 3.853-4.381 3.853zm.577-5.023V7.107l3.596 10.049H7.59zm18.183 12.252H6.209c.394-.916 1.213-1.738 1.712-1.738h16.14c.499 0 1.317.822 1.712 1.738zm-10.962-2.907.753-20.108c.081.013.29.035.432.035.131 0 .261-.012.39-.031l.042-.003.758 20.107h-2.374zM24.397 7.11v10.046h-3.591L24.397 7.11zm.589 15.069h-.006c-2.239 0-4.095-1.682-4.381-3.853h8.767c-.286 2.172-2.141 3.853-4.38 3.853z"/>
    </symbol>
    <symbol id="icon-partner" viewBox="0 0 32 32">
      <path d="M8.538 5.291a2.29 2.29 0 1 0 0-4.58 2.29 2.29 0 0 0 0 4.58zM8.538 9.504l1.557-1.975-1.557-1.54-1.557 1.54 1.557 1.975zM15.98 30.37c-7.831 0-14.203-6.371-14.203-14.203 0-.315.258-.572.572-.572s.572.258.572.572c0 7.201 5.856 13.058 13.058 13.058.315 0 .572.258.572.572s-.258.572-.572.572zm13.63-13.63a.574.574 0 0 1-.572-.572c0-7.201-5.856-13.058-13.058-13.058-.315 0-.572-.258-.572-.572s.258-.572.572-.572c7.831 0 14.203 6.371 14.203 14.203a.574.574 0 0 1-.572.572z"/>
      <path d="M24.39 14.988a.574.574 0 0 1-.561-.458c-.767-3.692-4.07-6.377-7.848-6.377-.315 0-.572-.258-.572-.572s.258-.572.572-.572c4.322 0 8.094 3.068 8.97 7.287a.572.572 0 0 1-.447.675.444.444 0 0 1-.114.017zm-8.41 10.338a9.121 9.121 0 0 1-9.045-7.7.573.573 0 1 1 1.133-.183 7.972 7.972 0 0 0 7.911 6.738c.315 0 .572.258.572.572s-.258.572-.572.572zM11.727 5.388a.572.572 0 0 0-.767.12l-.916 1.162.458.447a.57.57 0 0 1 .046.761L8.991 9.853a.578.578 0 0 1-.904 0L6.53 7.878a.57.57 0 0 1 .046-.761l.458-.447-.916-1.162a.571.571 0 0 0-.767-.12C3.72 6.487 3.388 8.027 3.388 10.002c0 2.977 3.211 5.593 5.152 5.593s5.152-2.61 5.152-5.593c0-1.975-.332-3.515-1.964-4.614zM24.567 20.747a2.29 2.29 0 1 0 0-4.58 2.29 2.29 0 0 0 0 4.58zM24.567 24.96l1.557-1.975-1.557-1.54-1.557 1.54 1.557 1.975z"/>
      <path d="M27.756 20.844a.572.572 0 0 0-.767.12l-.916 1.162.458.447a.57.57 0 0 1 .046.761l-1.557 1.975a.578.578 0 0 1-.904 0l-1.557-1.975a.57.57 0 0 1 .046-.761l.458-.447-.916-1.162a.571.571 0 0 0-.767-.12c-1.631 1.099-1.964 2.639-1.964 4.614 0 2.977 3.211 5.593 5.152 5.593s5.152-2.61 5.152-5.593c0-1.975-.332-3.515-1.964-4.614z"/>
    </symbol>
    <symbol id="icon-security" viewBox="0 0 32 32">
      <path d="M16.631 30.75c1.056-.672 2.116-1.341 3.172-2.012.478-.303.962-.603 1.428-.928a19.317 19.317 0 0 0 3.066-2.637 19.26 19.26 0 0 0 4.091-6.809c.716-2.066 1.022-4.244 1.022-6.425V7.78c0-.559-.391-1.047-.919-1.206a11.574 11.574 0 0 1-1.125-.388l.3.125a8.378 8.378 0 0 1-1.828-1.066l.253.197a8.394 8.394 0 0 1-1.488-1.484l.197.253a8.475 8.475 0 0 1-1.069-1.831l.125.3a8.875 8.875 0 0 1-.256-.688c-.169-.528-.641-.919-1.206-.919H11.178c-.516 0-1.034-.016-1.55 0h-.022c-.569 0-1.037.391-1.206.919a7.678 7.678 0 0 1-.256.688l.125-.3A8.523 8.523 0 0 1 7.2 4.211l.197-.253A8.355 8.355 0 0 1 5.91 5.442l.253-.197a8.514 8.514 0 0 1-1.828 1.066l.3-.125c-.369.153-.744.272-1.125.388-.528.159-.919.647-.919 1.206v3.769c0 .662 0 1.325.047 1.988.1 1.347.328 2.691.706 3.988a19.198 19.198 0 0 0 3.775 6.994c1.341 1.591 2.956 2.878 4.706 3.988l3.459 2.194.088.056c.553.35 1.403.134 1.709-.45.325-.619.141-1.334-.45-1.709-.563-.356-1.125-.712-1.684-1.069l-2.153-1.366a20.495 20.495 0 0 1-1.469-1.022l.253.197a17.789 17.789 0 0 1-3.159-3.159l.197.253a17.96 17.96 0 0 1-2.303-3.941l.125.3a17.743 17.743 0 0 1-1.234-4.522c.016.109.031.222.044.331-.134-1.012-.156-2.025-.156-3.041V7.793l-.919 1.206c1.078-.325 2.122-.756 3.037-1.416 1.084-.781 2.009-1.744 2.697-2.894a9.757 9.757 0 0 0 .906-2.019l-1.206.919h11.216c.516 0 1.034.013 1.55 0h.022l-1.206-.919c.784 2.447 2.566 4.575 4.903 5.675.563.266 1.141.472 1.738.653l-.919-1.206v4.431c0 .794-.053 1.588-.156 2.375.016-.109.031-.222.044-.331a18.027 18.027 0 0 1-1.234 4.522l.125-.3a18.006 18.006 0 0 1-2.303 3.941l.197-.253a17.789 17.789 0 0 1-3.159 3.159l.253-.197c-.7.541-1.444 1.006-2.188 1.481l-2.475 1.572-.641.406a1.307 1.307 0 0 0-.575.747c-.081.3-.044.697.125.962.356.55 1.119.819 1.709.444z"/>
      <path d="m9.631 15.934 3.666 3.666a1.27 1.27 0 0 0 1.769 0l7.303-7.303c.462-.463.497-1.313 0-1.769-.5-.459-1.275-.494-1.769 0l-7.303 7.303h1.769L11.4 14.165c-.463-.462-1.313-.497-1.769 0-.459.5-.494 1.272 0 1.769z"/>
    </symbol>
    <symbol id="icon-expert" viewBox="0 0 32 32">
      <path d="M1.333 5.333v-4h4a.665.665 0 1 0 0-1.332H.666A.665.665 0 0 0 0 .667v4.667a.665.665 0 1 0 1.332 0zm4 25.334h-4v-4a.665.665 0 1 0-1.332 0v4.667A.665.665 0 0 0 .667 32h4.667a.665.665 0 1 0 0-1.332zm25.334-4v4h-4a.665.665 0 1 0 0 1.332h4.667a.665.665 0 0 0 .666-.666v-4.667a.665.665 0 1 0-1.332 0zM31.333 0h-4.667a.665.665 0 1 0 0 1.332h4v4a.665.665 0 1 0 1.332 0V.665a.665.665 0 0 0-.666-.666zm0 15.333H30A13.999 13.999 0 0 0 16.667 2V.667a.665.665 0 1 0-1.332 0V2A13.999 13.999 0 0 0 2.002 15.333H.669a.665.665 0 1 0 0 1.332h1.333a13.999 13.999 0 0 0 13.333 13.333v1.333a.665.665 0 1 0 1.332 0v-1.333A13.999 13.999 0 0 0 30 16.665h1.333a.665.665 0 1 0 0-1.332zm-14.666 12A11.336 11.336 0 0 1 4.809 14.225a11.337 11.337 0 0 1 15.36-8.745 11.336 11.336 0 0 1 7.164 10.519 11.333 11.333 0 0 1-10.666 11.333z"/>
      <path d="M8.113 13.447A2.668 2.668 0 0 0 10 18.001h2v-5.333c-1.88 0-2.9-.193-3.887.78zm1.22 5.826v1.393a1.333 1.333 0 1 0 2.667 0v-1.333c-.889.047-1.781.027-2.667-.06zm4-.94L18 20.666V9.999l-4.667 2.333v6zm6-4.88v3.76a1.997 1.997 0 0 0 1.317-1.88 1.997 1.997 0 0 0-1.317-1.88zm5.334 1.214h-1.333a.665.665 0 1 0 0 1.332h1.333a.665.665 0 1 0 0-1.332zm-2.507-1.494c.4 0 .553-.28 1.413-1.14a.67.67 0 0 0 .305-.483.658.658 0 0 0-.182-.543.67.67 0 0 0-.815-.113.663.663 0 0 0-.215.2l-.94.94a.67.67 0 0 0 .075 1.014.67.67 0 0 0 .358.127zm.507 4.52a.689.689 0 1 0-.974.974c1.02 1.027 1.06 1.14 1.413 1.14a.667.667 0 0 0 .466-1.14l-.907-.973z"/>
    </symbol>
    <symbol id="icon-trend-down" viewBox="0 0 32 32">
      <path d="M23 16.667v2.667a1.004 1.004 0 0 1-1 1h-2.667a.997.997 0 0 1-1-1 .997.997 0 0 1 1-1h.252l-3.031-3.031-1.456 2.185a.997.997 0 0 1-1.538.151l-4.267-4.267a.996.996 0 0 1 .025-1.388 1.002 1.002 0 0 1 1.388-.025l3.405 3.404 1.456-2.185a.992.992 0 0 1 1.533-.153l3.893 3.892v-.252a.997.997 0 0 1 1-1 .997.997 0 0 1 1 1h.005zM30.333 12v8c0 7.243-3.089 10.333-10.333 10.333h-8C4.756 30.333 1.667 27.242 1.667 20v-8C1.667 4.757 4.756 1.667 12 1.667h8c7.244 0 10.333 3.091 10.333 10.333zm-2 0c0-6.152-2.181-8.333-8.333-8.333h-8c-6.152 0-8.333 2.181-8.333 8.333v8c0 6.152 2.181 8.333 8.333 8.333h8c6.152 0 8.333-2.181 8.333-8.333v-8z"/>
    </symbol>
    <symbol id="icon-optimization" viewBox="0 0 32 32">
      <path d="M19.549.482c-6.604 0-11.971 5.372-11.971 11.971s5.367 11.966 11.971 11.966c6.599 0 11.966-5.362 11.966-11.961 0-6.594-5.367-11.966-11.966-11.976zm-.005 20.815c-4.887 0-8.868-3.971-8.868-8.848 0-4.882 3.981-8.853 8.868-8.853 4.878.005 8.844 3.981 8.844 8.858s-3.966 8.844-8.844 8.844z"/>
      <path d="m10.718 24.213 1.268-1.268a13.185 13.185 0 0 1-2.928-2.924l-1.265 1.265-.582-.582a.499.499 0 0 0-.689 0l-5.047 5.047a3.377 3.377 0 0 0 0 4.776 3.382 3.382 0 0 0 4.781 0l5.047-5.047a.483.483 0 0 0 0-.684l-.584-.584zm7.701-13.336-.499-.31a2.143 2.143 0 0 0-.073-.427l.369-.465a.24.24 0 0 0 .015-.276l-.344-.543a.243.243 0 0 0-.262-.107l-.567.136a3.073 3.073 0 0 0-.359-.252l-.068-.582a.242.242 0 0 0-.184-.208l-.625-.141a.256.256 0 0 0-.262.112l-.305.495a2.614 2.614 0 0 0-.431.078l-.461-.364a.231.231 0 0 0-.276-.019l-.543.344a.243.243 0 0 0-.107.262l.136.567a2.274 2.274 0 0 0-.252.359l-.582.068a.242.242 0 0 0-.208.184l-.141.625a.244.244 0 0 0 .107.262l.499.305c.015.145.039.291.078.431l-.368.461a.24.24 0 0 0-.015.276l.344.543a.243.243 0 0 0 .257.107l.572-.136c.111.097.233.179.359.252l.063.582a.247.247 0 0 0 .189.208l.625.141c.019.005.034.005.053.005.082 0 .16-.044.204-.112l.31-.499c.145-.015.291-.039.432-.078l.456.368a.25.25 0 0 0 .281.015l.543-.344a.247.247 0 0 0 .107-.257l-.136-.577c.092-.111.179-.228.247-.354l.587-.063a.25.25 0 0 0 .209-.189l.141-.625a.245.245 0 0 0-.112-.257zm-2.337.887a1.172 1.172 0 0 1-1.619-.364c-.339-.553-.199-1.261.364-1.619.533-.339 1.285-.165 1.619.364.33.514.218 1.251-.364 1.619zm10.1 2.25-.718-.441a3.031 3.031 0 0 0-.112-.65l.524-.664a.225.225 0 0 0 .015-.276l-.465-.732a.229.229 0 0 0-.257-.107l-.819.189a3.247 3.247 0 0 0-.538-.378l-.097-.839a.25.25 0 0 0-.189-.209l-.848-.189a.245.245 0 0 0-.257.107l-.441.718a3.287 3.287 0 0 0-.655.112l-.659-.524a.25.25 0 0 0-.281-.015l-.732.465a.246.246 0 0 0-.107.262l.194.815c-.145.17-.276.349-.383.543l-.834.097a.243.243 0 0 0-.209.189l-.189.844a.242.242 0 0 0 .107.262l.718.441c.015.223.048.441.111.655l-.524.655a.25.25 0 0 0-.015.281l.465.732a.236.236 0 0 0 .257.107l.819-.189a3.2 3.2 0 0 0 .543.378l.092.839a.247.247 0 0 0 .189.208l.849.189a.24.24 0 0 0 .257-.111l.446-.713c.218-.015.436-.053.65-.112l.659.524a.25.25 0 0 0 .281.015l.732-.465a.239.239 0 0 0 .107-.257l-.194-.824c.145-.165.276-.349.383-.538l.834-.097a.238.238 0 0 0 .209-.189l.189-.844a.241.241 0 0 0-.107-.262zm-3.035 1.27a1.752 1.752 0 1 1 .539-2.419 1.755 1.755 0 0 1-.538 2.419z"/>
    </symbol>
    <symbol id="icon-focus" viewBox="0 0 32 32">
      <path d="M29.44 14.507h-1.598A11.95 11.95 0 0 0 17.493 4.158V2.56a1.493 1.493 0 1 0-2.986 0v1.598A11.95 11.95 0 0 0 4.158 14.507H2.56a1.493 1.493 0 1 0 0 2.986h1.598a11.95 11.95 0 0 0 10.349 10.349v1.598a1.493 1.493 0 1 0 2.986 0v-1.598a11.95 11.95 0 0 0 10.349-10.349h1.598a1.493 1.493 0 1 0 0-2.986zM16 24.96a8.966 8.966 0 0 1-8.278-5.531A8.96 8.96 0 1 1 16 24.96zm0-13.44a4.483 4.483 0 0 0-4.139 2.766 4.478 4.478 0 0 0 5.853 5.853A4.48 4.48 0 0 0 16 11.52zm0 5.973a1.497 1.497 0 0 1-1.38-.922 1.49 1.49 0 0 1 .324-1.628 1.496 1.496 0 0 1 2.298.226 1.495 1.495 0 0 1-.185 1.886c-.28.28-.66.437-1.056.437z"/>
    </symbol>

    <!--Benefites for services Icons-->
    <symbol id="icon-service" viewBox="0 0 32 32">
      <path d="M13.533 22.2c0-.867-.333-1.667-.933-2.333l-4.133-4.133c-.2-.2-.533-.267-.8-.2s-.533.333-.6.667c-.133.667-.467 2.133-.133 3.333l.067.133 1.467 1.467-.467.067a2.42 2.42 0 0 1-1.733-.733l-1.733-1.733v-4.067a3 3 0 0 0-1.8-2.733c-.533-.2-1.133-.333-1.667-.333H.401v8.133c0 .667.267 1.267.733 1.733l4.8 4.8v.2h-1.8v5.067h10.933v-5.067h-1.533v-4.267zM2 20.6c-.2-.2-.333-.467-.333-.8v-6.733c.133.067.333.067.467.133.6.267 1 .867 1 1.467v4.667l2.133 2.133A3.89 3.89 0 0 0 8 22.6l1.667-.267c.267-.067.533-.267.6-.533s0-.6-.2-.8l-2-2c-.133-.533-.067-1.133 0-1.667l3.467 3.467c.4.4.6.867.6 1.4v4.4h-5v-.2c0-.4-.133-.733-.4-1l-4.733-4.8zm11.667 7.333v2.4h-8.2v-2.4h8.2zM29.333 12a3 3 0 0 0-1.8 2.733V18.8L25.8 20.533a2.42 2.42 0 0 1-1.733.733l-.467-.067 1.467-1.467.067-.133c.333-1.267.067-2.667-.133-3.4-.067-.267-.267-.533-.6-.6-.267-.067-.6 0-.8.2l-4.133 4.133c-.6.6-.933 1.467-.933 2.333v4.4h-1.533v5.067h10.933v-5.067h-1.733v-.267l4.8-4.8a2.42 2.42 0 0 0 .733-1.733v-8.2h-.667c-.667 0-1.2.133-1.733.333zm-2.8 15.933v2.4h-8.2v-2.4h8.2zm3.8-8.133c0 .333-.133.6-.333.8l-4.8 4.8c-.267.267-.4.6-.4 1v.2h-5v-4.4c0-.533.2-1 .6-1.4l3.467-3.467c.067.533.133 1.133 0 1.667l-2 2c-.2.2-.267.533-.2.8s.333.467.6.533l1.6.267H24c1.067 0 2-.4 2.733-1.133l2.133-2.133v-4.6c0-.667.4-1.267 1-1.467.133-.067.333-.133.467-.133v6.667zM16.2 4.733c-2.4-.133-4.4 1.733-4.533 4.133-.067 1.133.333 2.267 1.133 3.133s1.867 1.333 3 1.4h.2c2.267 0 4.2-1.8 4.333-4.133.133-2.4-1.733-4.4-4.133-4.533zm-.333 7.334c-.8-.067-1.533-.4-2.067-1S13 9.734 13 8.934a3.006 3.006 0 0 1 3-2.867h.133C17.8 6.134 19.066 7.534 19 9.2s-1.467 2.933-3.133 2.867z"/>
      <path d="M24.734 10.467V7.534l-1.733-.4c-.133-.6-.4-1.133-.733-1.733l.933-1.533-2.133-2.067-1.533.933c-.533-.333-1.133-.533-1.733-.667l-.4-1.733h-2.933l-.4 1.733c-.6.133-1.133.4-1.733.733l-1.533-.933-2 2.133.933 1.533c-.333.533-.533 1.133-.733 1.733l-1.733.4v2.933l1.733.4c.133.6.4 1.133.733 1.733l-.933 1.533 2.133 2.067 1.533-.933c.533.333 1.133.533 1.733.667l.4 1.733h2.933l.4-1.733c.6-.133 1.133-.4 1.733-.733l1.533.933 2.067-2.133-.933-1.533c.333-.533.533-1.133.667-1.733l1.733-.4zM21.867 9.8l-.067.4c-.133.733-.4 1.4-.8 2.067l-.2.333.8 1.333-.6.6-1.333-.8-.333.267c-.6.4-1.333.733-2 .867l-.4.067-.333 1.533h-.867l-.4-1.533-.4-.067c-.733-.133-1.4-.4-2.067-.8l-.333-.2-1.333.8-.667-.667.8-1.333-.267-.333c-.4-.6-.733-1.333-.867-2l-.067-.4L8.6 9.601v-.867l1.533-.4.067-.4c.133-.733.4-1.4.8-2.067l.2-.333-.8-1.333.6-.6 1.333.8.333-.267c.6-.4 1.333-.733 2-.867l.4-.067.333-1.533h.867l.4 1.533.4.067c.733.133 1.4.4 2.067.8l.333.2 1.333-.8.6.6-.8 1.333.267.333c.4.6.733 1.333.867 2l.067.4 1.533.333v.867l-1.467.467z"/>
    </symbol>
    <symbol id="icon-economic-crisis" viewBox="0 0 32 32">
      <path d="M27.333 29.333v-4.667a.665.665 0 0 0-.666-.666h-4a.665.665 0 0 0-.666.666v4.667h-2.667V16a.665.665 0 0 0-.666-.666h-4a.665.665 0 0 0-.666.666v13.333h-2.667V20a.665.665 0 0 0-.666-.666h-4a.665.665 0 0 0-.666.666v9.333h-2v1.333h25.333v-1.333h-2zm-20 0v-8.667H10v8.667H7.333zm8 0V16.666H18v12.667h-2.667zm8 0v-4H26v4h-2.667zM24 10h-1.333V8.667h2.667V8h-2a.665.665 0 0 1-.666-.666v-2a.665.665 0 0 1 .666-.666h.667v-.667h1.333v.667h1.333v1.333H24v.667h2a.665.665 0 0 1 .666.666v2A.665.665 0 0 1 26 10h-.667v.667H24V10zm.1 12.353a.67.67 0 0 0 .566.315.669.669 0 0 0 .566-.315l3.333-5.333a.667.667 0 0 0-.567-1.02h-.667v-3.333a.665.665 0 0 0-.666-.666h-4a.665.665 0 0 0-.666.666V16h-.667a.664.664 0 0 0-.584.343.666.666 0 0 0 .017.677l3.333 5.333zm-1.433-5.02a.665.665 0 0 0 .666-.666v-3.333H26v3.333a.665.665 0 0 0 .666.666h.133l-2.133 3.407-2.133-3.407h.133zM12 10.667a2 2 0 0 0 2-2V3.334a2 2 0 0 0-2-2H4a2 2 0 0 0-2 2v5.333a2 2 0 0 0 2 2h8zm-8.667-2V3.334a.665.665 0 0 1 .666-.666h8a.665.665 0 0 1 .666.666v5.333a.665.665 0 0 1-.666.666h-8a.665.665 0 0 1-.666-.666zm8-3.334H4.666V4h6.667v1.333zm0 2.667H4.666V6.667h6.667V8z"/>
    </symbol>
    <symbol id="icon-protection" viewBox="0 0 32 32">
      <path d="M29.751 4.314a.667.667 0 0 0-.301-.553.66.66 0 0 0-.628-.046C21.677 6.963 16.487.45 16.487.45a.662.662 0 0 0-.513-.247.653.653 0 0 0-.513.247S10.27 6.963 3.126 3.715a.652.652 0 0 0-.628.046.656.656 0 0 0-.301.553v9.779c0 1.139.1 2.27.308 3.38v.001c.812 4.295 3.742 10.899 12.243 14.05a3.535 3.535 0 0 0 2.454 0c8.501-3.152 11.43-9.756 12.242-14.05v-.001c.208-1.11.308-2.241.308-3.38V4.314zm-1.314.976v8.802c0 1.057-.093 2.107-.286 3.138-.756 3.996-3.497 10.129-11.407 13.061a2.22 2.22 0 0 1-1.541 0C7.292 27.358 4.551 21.226 3.795 17.23a17.133 17.133 0 0 1-.285-3.138V5.29c6.195 2.23 10.946-1.887 12.463-3.452C17.49 3.403 22.241 7.52 28.436 5.29z"/>
      <path d="M16.959 16.959a.987.987 0 1 0-1.973.001.987.987 0 0 0 1.973-.001zm-1.314 0a.33.33 0 1 1 .33.328.33.33 0 0 1-.328-.328z"/>
      <path d="M15.317 16.631v2.628a.657.657 0 1 0 1.314 0v-2.628a.663.663 0 0 0-.657-.657.663.663 0 0 0-.657.657z"/>
      <path d="M15.973 23.202a5.257 5.257 0 0 0 5.257-5.256v-3.285a.653.653 0 0 0-.657-.657h-9.199a.66.66 0 0 0-.658.657v3.285a5.256 5.256 0 0 0 5.257 5.256zm0-1.315a3.942 3.942 0 0 1-3.942-3.942v-2.628h7.885v2.628a3.942 3.942 0 0 1-3.942 3.942z"/>
      <path d="M13.345 14.66v-1.971a2.629 2.629 0 0 1 5.256 0v1.971a.657.657 0 1 0 1.314 0v-1.971a3.942 3.942 0 0 0-7.884 0v1.971a.663.663 0 0 0 .657.657.657.657 0 0 0 .657-.657z"/>
    </symbol>
    <symbol id="icon-law" viewBox="0 0 32 32">
      <path d="m23.29 11.81-7.12-7.12 3.52-3.52 7.12 7.12-3.52 3.52zm-4.69-7 4.78 4.78 1.17-1.17-4.78-4.82-1.17 1.21zm-2.93 14.71L8.55 12.4l3.52-3.52L19.19 16l-3.52 3.52zm-4.78-7.12 4.78 4.77L16.84 16l-4.77-4.78-1.18 1.18z"/>
      <path d="m16.84 16-4.77-4.78 6.53-6.53 4.78 4.78L16.84 16zm-2.34-4.78 2.34 2.35L21 9.47l-2.34-2.35-4.16 4.1z"/>
      <path d="M18.39 12.14 19.58 11l10.66 10.62-1.19 1.18-10.66-10.66zM1.76 29.15h26.81v1.68H1.76v-1.68zm5.03-5.02h16.75v1.67H6.79v-1.67z"/>
    </symbol>
    <symbol id="icon-private-address" viewBox="0 0 32 32">
      <path d="M26.477 32H5.523a2.432 2.432 0 0 1-2.429-2.43V16.776c0-1.34 1.09-2.43 2.429-2.43h20.954a2.432 2.432 0 0 1 2.429 2.43V29.57c0 1.34-1.09 2.43-2.429 2.43zM5.523 15.627a1.15 1.15 0 0 0-1.149 1.15v12.794c0 .634.516 1.15 1.149 1.15h20.954a1.15 1.15 0 0 0 1.149-1.15V16.777c0-.634-.516-1.15-1.149-1.15H5.523z"/>
      <path d="M25.12 15.627H6.88a.64.64 0 0 1-.64-.64V9.76C6.24 4.378 10.618 0 16 0s9.76 4.378 9.76 9.76v5.227a.64.64 0 0 1-.64.64zm-17.6-1.28h16.96V9.76c0-4.676-3.804-8.48-8.48-8.48S7.52 5.084 7.52 9.76v4.587zm8.502 11.927c-1.172 0-2.089-1.362-2.089-3.1s.918-3.101 2.089-3.101c1.172 0 2.089 1.362 2.089 3.101s-.918 3.1-2.089 3.1zm0-4.921c-.322 0-.809.726-.809 1.821s.487 1.82.809 1.82c.323 0 .809-.726.809-1.82s-.487-1.821-.809-1.821z"/>
      <path d="M17.483 23.813c-.353 0-.643-.287-.643-.64s.284-.64.637-.64h.006a.64.64 0 1 1 0 1.28z"/>
      <path d="M16.021 29.538c-1.291 0-2.537-.548-3.51-1.544-1.225-1.253-1.902-3.075-1.858-4.998.076-3.317 2.414-6.092 5.212-6.185 2.635-.09 4.989 2.17 5.445 5.255.154 1.044-.163 2.043-.827 2.61-.836.714-1.819.487-2.293.377-.389-.091-.721-.372-.986-.837-.246-.432-.375-.962-.375-1.534v-1.969a.64.64 0 1 1 1.28 0v1.969c0 .346.074.666.208.901.089.157.16.218.18.229.53.121.863.139 1.154-.11.322-.274.479-.857.392-1.45-.361-2.44-2.157-4.233-4.136-4.162-2.131.071-3.915 2.285-3.975 4.935-.036 1.581.508 3.066 1.494 4.074 1.32 1.351 3.302 1.513 4.748.394a.64.64 0 0 1 .784 1.013c-.873.675-1.888 1.032-2.937 1.032z"/>
    </symbol>
    <symbol id="icon-self-organization" viewBox="0 0 32 32">
      <path fill="#505050" style="fill: var(--color1, #505050)" d="M17.43 1.935c0 0.79-0.64 1.43-1.43 1.43s-1.43-0.64-1.43-1.43c0-0.79 0.64-1.43 1.43-1.43s1.43 0.64 1.43 1.43zM17.43 30.065c0 0.79-0.64 1.43-1.43 1.43s-1.43-0.64-1.43-1.43c0-0.79 0.64-1.43 1.43-1.43s1.43 0.64 1.43 1.43zM8.89 3.78c0.464 0.639 0.323 1.533-0.316 1.998s-1.533 0.322-1.998-0.316-0.323-1.533 0.316-1.998c0.639-0.464 1.534-0.323 1.998 0.316zM25.425 26.539c0.464 0.639 0.323 1.533-0.316 1.998s-1.533 0.323-1.998-0.316c-0.464-0.639-0.323-1.533 0.316-1.998s1.533-0.323 1.998 0.316zM3.065 10.293c0.751 0.244 1.162 1.051 0.918 1.802s-1.051 1.162-1.802 0.918c-0.751-0.244-1.162-1.051-0.918-1.802s1.051-1.162 1.802-0.918zM29.819 18.986c0.751 0.244 1.162 1.051 0.918 1.802s-1.051 1.162-1.802 0.918c-0.751-0.244-1.162-1.051-0.918-1.802s1.051-1.162 1.802-0.918zM2.181 18.986c0.751-0.244 1.558 0.167 1.802 0.918s-0.167 1.558-0.918 1.802c-0.751 0.244-1.558-0.167-1.802-0.918s0.167-1.558 0.918-1.802zM28.935 10.293c0.751-0.244 1.558 0.167 1.802 0.918s-0.167 1.558-0.918 1.802c-0.751 0.244-1.558-0.167-1.802-0.918s0.167-1.558 0.918-1.802zM6.576 26.539c0.464-0.639 1.359-0.781 1.998-0.316s0.781 1.359 0.316 1.998c-0.464 0.639-1.359 0.781-1.998 0.316s-0.781-1.359-0.316-1.998zM23.111 3.78c0.464-0.639 1.359-0.781 1.998-0.316s0.781 1.359 0.316 1.998c-0.464 0.639-1.359 0.781-1.998 0.316s-0.781-1.359-0.316-1.998z"></path>
      <path fill="#b0b0b0" style="fill: var(--color2, #b0b0b0)" d="M25.106 15.997c0 5.034-4.075 9.109-9.103 9.109s-9.109-4.075-9.109-9.109c0-5.028 4.081-9.103 9.109-9.103s9.103 4.075 9.103 9.103z"></path>
      <path fill="#808080" style="fill: var(--color3, #808080)" d="M17.562 11.692v1.174c0 0.863-0.699 1.562-1.562 1.562s-1.562-0.699-1.562-1.562v-1.174c0-0.863 0.699-1.562 1.562-1.562s1.562 0.699 1.562 1.562zM20.122 19.948c-2.748 1.303-5.497 1.303-8.245 0 0-2.278 1.847-4.125 4.12-4.125 2.278 0 4.125 1.847 4.125 4.125z"></path>
      <path fill="#202020" style="fill: var(--color4, #202020)" d="M29.974 18.511c-0.847-0.275-1.742 0.074-2.207 0.787l-2.499-0.812c0.214-0.795 0.338-1.627 0.338-2.488 0-0.86-0.124-1.689-0.337-2.483l2.495-0.811c0.47 0.721 1.366 1.060 2.209 0.786 1.012-0.329 1.569-1.415 1.239-2.432-0.329-1.012-1.42-1.568-2.432-1.239-0.847 0.275-1.366 1.084-1.323 1.934l-2.497 0.811c-0.61-1.586-1.623-2.972-2.921-4.025l1.54-2.119c0.842 0.324 1.748 0.027 2.25-0.664 0.624-0.86 0.439-2.066-0.427-2.696-0.863-0.627-2.068-0.436-2.696 0.427-0.495 0.681-0.512 1.629 0.066 2.342l-1.543 2.123c-1.375-0.896-2.992-1.443-4.729-1.533v-2.629c0.821-0.222 1.43-0.966 1.43-1.856 0-1.064-0.866-1.93-1.93-1.93s-1.93 0.866-1.93 1.93c0 0.89 0.609 1.634 1.43 1.856v2.629c-1.738 0.091-3.354 0.638-4.729 1.534l-1.543-2.124c0.578-0.713 0.561-1.661 0.066-2.342-0.626-0.861-1.831-1.056-2.696-0.427-0.861 0.626-1.055 1.831-0.427 2.696 0.505 0.696 1.414 0.985 2.25 0.664l1.541 2.12c-1.299 1.053-2.311 2.438-2.921 4.024l-2.498-0.812c0.043-0.849-0.477-1.658-1.323-1.934-1.011-0.329-2.103 0.227-2.432 1.239-0.33 1.017 0.227 2.103 1.239 2.432 0.841 0.273 1.738-0.063 2.209-0.786l2.495 0.811c-0.213 0.794-0.337 1.623-0.337 2.483 0 0.862 0.125 1.693 0.338 2.489l-2.499 0.812c-0.465-0.712-1.36-1.062-2.207-0.787-1.012 0.329-1.568 1.42-1.239 2.432 0.328 1.010 1.417 1.568 2.432 1.239 0.847-0.275 1.366-1.084 1.323-1.934l2.499-0.812c0.611 1.585 1.623 2.97 2.921 4.023l-1.543 2.124c-0.855-0.328-1.752-0.022-2.248 0.661-0.624 0.86-0.439 2.066 0.427 2.696 0.868 0.631 2.072 0.43 2.696-0.427 0.494-0.68 0.513-1.628-0.066-2.342l1.544-2.125c1.374 0.896 2.991 1.444 4.728 1.534v2.629c-0.821 0.222-1.43 0.966-1.43 1.856 0 1.064 0.866 1.93 1.93 1.93s1.93-0.866 1.93-1.93c0-0.89-0.609-1.634-1.43-1.856v-2.629c1.738-0.090 3.354-0.637 4.729-1.533l1.543 2.124c-0.578 0.714-0.56 1.662-0.066 2.342 0.624 0.858 1.828 1.058 2.696 0.427 0.861-0.626 1.055-1.831 0.427-2.696-0.496-0.683-1.392-0.99-2.248-0.661l-1.542-2.123c1.298-1.053 2.31-2.439 2.92-4.024l2.498 0.812c-0.043 0.849 0.477 1.659 1.323 1.934 1.002 0.326 2.1-0.218 2.432-1.239 0.329-1.012-0.227-2.103-1.239-2.432zM29.089 10.769c0.489-0.159 1.014 0.11 1.172 0.597s-0.107 1.013-0.598 1.172c-0.488 0.159-1.014-0.109-1.172-0.597s0.109-1.014 0.597-1.172zM23.515 4.074c0.301-0.415 0.882-0.509 1.299-0.206 0.415 0.301 0.509 0.883 0.206 1.299-0.301 0.415-0.882 0.509-1.299 0.206-0.415-0.301-0.508-0.883-0.206-1.299zM6.98 5.168c-0.303-0.417-0.209-0.998 0.206-1.299 0.417-0.303 0.998-0.209 1.299 0.206 0.29 0.398 0.227 0.971-0.199 1.284-0.382 0.281-0.965 0.279-1.306-0.191zM2.335 12.538c-0.489-0.159-0.756-0.684-0.598-1.172 0.16-0.491 0.688-0.755 1.172-0.597 0.57 0.185 0.72 0.711 0.586 1.15-0.138 0.451-0.574 0.811-1.16 0.62zM2.91 21.231c-0.488 0.159-1.013-0.109-1.172-0.597s0.109-1.014 0.597-1.172c0.578-0.188 1.010 0.16 1.154 0.603s-0.002 0.979-0.579 1.167zM8.485 27.926c-0.301 0.414-0.881 0.51-1.299 0.206-0.415-0.301-0.509-0.883-0.206-1.299 0.354-0.488 0.907-0.457 1.283-0.183s0.575 0.792 0.222 1.277zM25.020 26.832c0.303 0.416 0.209 0.998-0.206 1.299-0.42 0.305-1 0.207-1.299-0.206-0.302-0.415-0.21-0.997 0.206-1.299s0.997-0.21 1.299 0.206zM15.069 1.935c0-0.513 0.417-0.93 0.93-0.93s0.93 0.417 0.93 0.93c0 0.604-0.465 0.91-0.93 0.912s-0.931-0.3-0.931-0.912zM16.93 30.065c0 0.513-0.417 0.93-0.93 0.93s-0.93-0.417-0.93-0.93c0-0.513 0.417-0.93 0.93-0.93s0.93 0.417 0.93 0.93zM16.003 24.606c-4.747 0-8.609-3.862-8.609-8.609 0-4.744 3.862-8.603 8.609-8.603 4.744 0 8.603 3.86 8.603 8.603 0 4.747-3.86 8.609-8.603 8.609zM30.262 20.634c-0.159 0.488-0.683 0.756-1.172 0.597-0.488-0.158-0.756-0.684-0.597-1.172 0.16-0.491 0.688-0.755 1.172-0.597 0.488 0.159 0.756 0.684 0.597 1.172z"></path>
      <path fill="#202020" style="fill: var(--color4, #202020)" d="M16 14.927c1.137 0 2.062-0.925 2.062-2.062v-1.174c0-1.137-0.925-2.062-2.062-2.062s-2.062 0.925-2.062 2.062v1.174c0 1.137 0.925 2.062 2.062 2.062zM14.937 11.692c0-0.586 0.477-1.062 1.062-1.062s1.062 0.477 1.062 1.062v1.174c0 0.586-0.477 1.062-1.062 1.062s-1.062-0.477-1.062-1.062v-1.174zM15.997 15.324c-2.547 0-4.62 2.075-4.62 4.625 0 0.193 0.111 0.369 0.286 0.452 2.849 1.35 5.766 1.377 8.673 0 0.174-0.083 0.286-0.259 0.286-0.452 0-2.55-2.075-4.625-4.625-4.625zM12.391 19.633c0.16-1.852 1.716-3.31 3.606-3.31 1.893 0 3.451 1.458 3.611 3.31-2.425 1.064-4.793 1.064-7.218 0z"></path>
    </symbol>
    <symbol id="icon-partner" viewBox="0 0 32 32">
      <path d="M21.5 27h6v4h-6v-4zm-17 0h6v4h-6v-4zm11.444-3.545A.059.059 0 0 0 16 23.5a.053.053 0 0 0 .036-.013.06.06 0 0 0 .02-.032c.38-1.641.757-2.018 2.4-2.4a.059.059 0 0 0 .045-.056c0-.013-.004-.026-.013-.036s-.02-.017-.032-.02c-1.642-.38-2.018-.757-2.4-2.4a.059.059 0 0 0-.056-.045.053.053 0 0 0-.036.013.06.06 0 0 0-.02.032c-.38 1.641-.757 2.018-2.4 2.4a.059.059 0 0 0-.045.056c0 .013.004.026.013.036s.02.017.032.02c1.643.382 2.02.759 2.4 2.4z"/>
      <path d="M4.214 2.875 2.499 4h4.285v-.75h.715v15.986c-.039.106-.082.21-.116.318l-.05-.104a.782.782 0 0 0-.7-.45.807.807 0 0 0-.768.976l.292 1.523.961 2a8.504 8.504 0 0 1-4-5.976l-.188-1.18a.986.986 0 0 0-.957-.844.985.985 0 0 0-.737.352.994.994 0 0 0-.227.784l.275 2.291A12.075 12.075 0 0 0 5.197 26.5h4.804V25a5.066 5.066 0 0 0-1.921-4c.523-3.663 3.87-6.5 7.92-6.5s7.397 2.837 7.92 6.5a5.083 5.083 0 0 0-1.921 4v1.5h4.805a12.075 12.075 0 0 0 3.913-7.574l.275-2.291a.992.992 0 0 0-.227-.784 1.007 1.007 0 0 0-.737-.352.986.986 0 0 0-.957.844l-.189 1.18a8.49 8.49 0 0 1-4 5.976l.96-2 .293-1.524a.804.804 0 0 0-.428-.891.814.814 0 0 0-.341-.085.776.776 0 0 0-.7.45l-.05.104c-.035-.108-.078-.212-.116-.318V3.249h.715v.75h4.284l-1.715-1.125 1.715-1.125h-3.428v-.75h-2.572v16.323a9.102 9.102 0 0 0-7-3.803v-4.27h.715v.75h4.285l-1.715-1.125 1.715-1.125h-3.428v-.75h-2.572v6.519a9.1 9.1 0 0 0-7 3.803V.998H5.927v.75H2.498l1.714 1.125z"/>
    </symbol>

    <!--Tests Icons-->
    <symbol id="icon-smartphone" viewBox="0 0 20 32">
      <path d="M17 0H3C1.346 0 0 1.346 0 3v26c0 1.654 1.346 3 3 3h14c1.654 0 3-1.346 3-3V3c0-1.654-1.346-3-3-3zM3 2h14a1 1 0 0 1 1 1v21H2V3a1 1 0 0 1 1-1zm14 28H3a1 1 0 0 1-1-1v-3h16v3a1 1 0 0 1-1 1z"/>
      <path d="M4.707 27.478c.391.365.391.956 0 1.321s-1.024.365-1.414 0c-.391-.365-.391-.956 0-1.321s1.024-.365 1.414 0z"/>
    </symbol>
    <symbol id="icon-envelope" viewBox="0 0 43 32">
      <path d="M38.667 0H4C1.794 0 0 1.794 0 4v24c0 2.206 1.794 4 4 4h34.667c2.206 0 4-1.794 4-4V4c0-2.206-1.794-4-4-4zm0 2.667c.181 0 .353.038.511.103L21.334 18.236 3.49 2.77a1.32 1.32 0 0 1 .511-.103h34.667zm0 26.666H4A1.334 1.334 0 0 1 2.667 28V5.587L20.46 21.008a1.335 1.335 0 0 0 1.748 0L40.001 5.587V28c0 .736-.598 1.333-1.333 1.333z"/>
    </symbol>
  </defs>
</svg>