<svg aria-hidden="true" xmlns="http://www.w3.org/2000/svg">
  <defs>
    <!--Logo Icons-->
    <symbol id="icon-main-logo" viewBox="0 0 30 32">
      <path d="M20.093 0h2.11c-.032 1.166-.528 2.071-1.438 2.767 1.225 1.926 1.171 3.805-.165 5.664.032.024.066.059.106.08 1.109.571 1.7 1.491 1.807 2.716.075.862-.084 1.686-.53 2.44a2.935 2.935 0 0 1-4.699.521c-.276-.292-.524-.61-.779-.922a1.283 1.283 0 0 0-1.402-.426c-.479.161-.761.574-.767 1.151a8.43 8.43 0 0 0 .03.778c.013.153-.033.213-.19.211-.512-.006-1.025.004-1.538-.01-.069-.002-.183-.095-.194-.16-.111-.676-.107-1.349.09-2.014.491-1.659 2.085-2.502 3.75-2.004.709.212 1.247.637 1.696 1.2.12.15.243.299.36.453.308.408.715.628 1.224.532.529-.1.807-.497.935-.984a1.887 1.887 0 0 0-.412-1.786c-.452-.528-1.036-.538-1.64-.347-2.195.692-4.529-.271-5.554-2.302a4.587 4.587 0 0 1 .616-5.056c1.236-1.435 3.17-1.966 4.989-1.369.714.234 1.368-.138 1.539-.877l.056-.257-.001.001zm-5.554 5.473a2.479 2.479 0 0 0 2.463 2.493 2.474 2.474 0 1 0 .036-4.949 2.477 2.477 0 0 0-2.499 2.456l.001.001z"/>
      <path d="M8.644 10.581c0-1.373.005-2.746-.005-4.118-.002-.241.067-.313.311-.311 1.579.01 3.158.009 4.737.001.216-.001.296.05.289.279a29.8 29.8 0 0 0-.001 1.582c.005.204-.053.276-.267.273-.856-.011-1.713-.005-2.57-.005-.241 0-.361.124-.361.372v6.026c0 .22-.109.33-.327.33-.504 0-1.009-.011-1.512.005-.229.008-.3-.056-.299-.291.01-1.381.005-2.762.005-4.143l.001.001zM7.953 2.65A1.823 1.823 0 0 1 9.792.843a1.82 1.82 0 1 1-.027 3.642 1.824 1.824 0 0 1-1.813-1.834zM2.957 19.639v4.641H1.893v-4.641h1.064zM8.127 19.639v4.641H7.056l-2.123-2.937v2.937H3.869v-4.641h1.098l2.096 2.897v-2.897h1.065zM12.458 20.043l-.452.709a2.137 2.137 0 0 0-1.224-.385c-.111 0-.217.01-.319.03s-.199.064-.293.133a.317.317 0 0 0-.139.268c0 .141.071.25.213.325.133.075.359.164.678.265.408.124.705.227.892.312.563.252.845.665.845 1.24 0 .261-.058.488-.173.683s-.27.346-.466.454c-.195.109-.402.188-.622.239s-.451.076-.695.076c-.47 0-.878-.082-1.224-.245-.355-.168-.619-.338-.792-.511l.526-.703c.466.385.973.577 1.524.577.222 0 .42-.042.595-.126s.263-.223.263-.418a.438.438 0 0 0-.12-.312 1.168 1.168 0 0 0-.319-.199 6.64 6.64 0 0 0-.559-.179c-.186-.053-.339-.101-.459-.142s-.256-.103-.409-.182c-.153-.079-.274-.164-.363-.252s-.164-.204-.226-.348a1.203 1.203 0 0 1-.093-.481c0-.451.171-.79.512-1.018s.749-.341 1.224-.341c.612 0 1.171.177 1.677.53l.001-.001zM14.401 19.639v4.641h-1.064v-4.641h1.064zM19.317 20.149l-.539.756c-.364-.292-.752-.438-1.164-.438s-.755.142-1.014.428c-.259.285-.389.637-.389 1.057s.132.777.396 1.07c.264.294.6.441 1.008.441.35 0 .69-.117 1.018-.351v-.743h-1.191v-.743h2.155v1.783c-.519.654-1.187.981-2.003.981-.701 0-1.288-.235-1.76-.706s-.708-1.051-.708-1.74.24-1.295.722-1.75c.481-.455 1.077-.683 1.787-.683s1.244.212 1.683.636h-.002zM24.413 19.639v4.641h-1.064v-1.876h-1.896v1.876h-1.064v-4.641h1.064v1.81h1.896v-1.81h1.064zM28.918 19.639v.902h-1.43v3.739h-1.064v-3.739h-1.43v-.902h3.925zM4.192 27.757l-.539.756c-.364-.292-.752-.438-1.164-.438s-.755.142-1.014.428c-.259.285-.389.637-.389 1.057s.132.777.396 1.07c.264.294.6.441 1.008.441.35 0 .69-.117 1.018-.351v-.742H2.317v-.743h2.155v1.783c-.519.654-1.187.981-2.003.981-.701 0-1.288-.235-1.76-.706s-.708-1.051-.708-1.74c0-.689.24-1.295.722-1.75S1.8 27.12 2.51 27.12s1.244.212 1.683.636h-.002zM9.008 28.685c0 .331-.092.61-.276.836s-.438.389-.762.49l1.191 1.876H7.97l-1.085-1.79h-.559v1.79H5.262v-4.641h2.069c.474 0 .873.126 1.194.378s.482.605.482 1.061h.001zm-1.776-.603h-.905v1.233h.905c.204 0 .371-.053.499-.159s.193-.258.193-.457-.063-.357-.19-.461-.294-.156-.503-.156v-.001zM13.639 27.816c.47.464.705 1.045.705 1.744s-.239 1.279-.715 1.743c-.477.464-1.063.696-1.759.696s-1.29-.234-1.766-.703c-.477-.469-.715-1.047-.715-1.737s.24-1.279.719-1.744c.479-.464 1.067-.696 1.763-.696s1.3.232 1.77.696l-.001.001zm-3.174 1.744c0 .407.133.755.399 1.044s.599.434.998.434.743-.145 1.005-.434c.262-.289.392-.637.392-1.044s-.13-.772-.389-1.057c-.259-.285-.595-.428-1.008-.428s-.743.145-1.005.434-.392.64-.392 1.051h-.001zM21.549 27.247l-1.417 4.641h-1.184l-.972-3.195-.965 3.195h-1.184l-1.424-4.641h1.151l.912 3.235.984-3.235h1.058l.978 3.235.912-3.235h1.151zM25.694 27.247v.902h-1.43v3.739H23.2v-3.739h-1.43v-.902h3.925zM30.298 27.247v4.641h-1.064v-1.876h-1.896v1.876h-1.064v-4.641h1.064v1.809h1.896v-1.809h1.064z"/>
    </symbol>
    <!--Servis Icons-->
    <symbol id="icon-line" viewBox="0 0 533 32">
      <path d="m0 16 26.667 15.396V.604L0 16zm533.333 0L506.666.604v30.792L533.333 16zM24 18.667h485.333v-5.333H24v5.333z"/>
    </symbol>
    <symbol id="icon-arrow-right" viewBox="0 0 31 32">
      <path stroke-linejoin="round" stroke-linecap="round" stroke-width="1.561" d="M5.665 16.45h18.922m0 0-7.096 7.096m7.096-7.096-7.096-7.096"/>
    </symbol>
    <symbol id="icon-arrow-left" viewBox="0 0 31 32">
      <path stroke-linejoin="round" stroke-linecap="round" stroke-width="1.561" d="M24.586 16.45H5.664m0 0 7.096-7.096M5.664 16.45l7.096 7.096"/>
    </symbol>
    <symbol id="icon-arrow-down" viewBox="0 0 31 32">
      <path stroke-linejoin="round" stroke-linecap="round" stroke-width="1.561" d="m9.404 9.418 13.38 13.38m0 0H12.749m10.035 0V12.763"/>
    </symbol>
    <symbol id="icon-arrow-up" viewBox="0 0 31 32">
      <path stroke-linejoin="round" stroke-linecap="round" stroke-width="1.561" d="m8.749 22.484 13.38-13.38m0 .001V19.14m0-10.035H12.094"/>
    </symbol>
    <!--Socials Icons-->
    <symbol id="icon-viber" viewBox="0 0 32 32">
      <path d="M16 1.333C8.907 1.333 1.333 2.306 1.333 14c0 6.187 2.187 10 6.667 11.627v3a2.035 2.035 0 0 0 1.327 1.899 2.037 2.037 0 0 0 2.246-.566l2.92-3.293H16c7.093 0 14.667-.973 14.667-12.667S23.094 1.333 16 1.333zm0 9.334a2.668 2.668 0 0 1 2.667 2.667.665.665 0 1 1-1.332 0A1.333 1.333 0 0 0 16.002 12a.665.665 0 1 1 0-1.332zm-.667-2a.665.665 0 0 1 .666-.666 5.334 5.334 0 0 1 5.333 5.333.665.665 0 1 1-1.332 0 4.003 4.003 0 0 0-4-4 .665.665 0 0 1-.666-.666zm7.334 10.666a4.004 4.004 0 0 1-4 3.334c-2.093 0-6.12-2.507-7.8-4.2s-4.2-5.707-4.2-7.8a4 4 0 0 1 3.334-4h1.333a.673.673 0 0 1 .6.374s.8 1.627 1.333 2.667-.52 2.52-1.16 3.16a8.009 8.009 0 0 0 1.693 2.667 7.983 7.983 0 0 0 2.667 1.693 3.997 3.997 0 0 1 2.44-1.333c.246 0 .488.06.707.173l2.667 1.333a.668.668 0 0 1 .374.6l.013 1.333zM23.333 14a.665.665 0 0 1-.666-.666A6.67 6.67 0 0 0 16 6.667a.665.665 0 1 1 0-1.332 8 8 0 0 1 8 8 .665.665 0 0 1-.666.666z"/>
    </symbol>
    <symbol id="icon-whats-app" viewBox="0 0 32 32">
      <path d="M16.412 1C8.687 1 2.431 7.256 2.431 14.981a13.94 13.94 0 0 0 2.737 8.312l-3.563 7.706.931-.431 7.175-3.312a13.9 13.9 0 0 0 6.694 1.706c7.719 0 13.981-6.256 13.981-13.981C30.392 7.256 24.13 1 16.411 1zm7.457 19.95c-.081.388-.25.756-.494 1.081-.3.4-.688.7-1.131.887s-.931.263-1.419.2a9.385 9.385 0 0 1-3.7-1.25c-1.306-.775-3.063-1.981-4.388-3.706-1.412-1.656-2.181-3.594-2.669-5.038a9.468 9.468 0 0 1-.45-3.875c.044-.494.219-.956.494-1.35s.656-.713 1.106-.919a2.714 2.714 0 0 1 1.163-.256c.562 0 1.25-.006 1.725.331.738.519 1.05 1.544 1.05 2.444 0 .081-.006.169-.012.25-.044.494-.088.925-.369 1.319-.275.394-.781.738-1.231.95.344 1.85.938 3.225 1.756 4.113.35.487.825.95 1.431 1.381s1.337.825 2.206 1.188c.3-.394.744-.819 1.188-1.006.437-.188.875-.144 1.362-.081.081.012.169.025.25.044.875.188 1.812.706 2.169 1.538.225.538.081 1.206-.038 1.756z"/>
    </symbol>
    <symbol id="icon-facebook" viewBox="0 0 32 32">
      <path d="M24.571 2.286c1.417 0 2.628.503 3.634 1.509s1.509 2.217 1.509 3.634v17.143c0 1.417-.503 2.628-1.509 3.634s-2.217 1.509-3.634 1.509h-3.357V19.09h3.554l.536-4.143h-4.089v-2.643c0-.667.14-1.167.42-1.5s.824-.5 1.634-.5l2.179-.018V6.59c-.75-.107-1.81-.161-3.179-.161-1.619 0-2.914.476-3.884 1.429s-1.455 2.298-1.455 4.036v3.054h-3.571v4.143h3.571v10.625h-9.5c-1.417 0-2.628-.503-3.634-1.509s-1.509-2.217-1.509-3.634V7.43c0-1.417.503-2.628 1.509-3.634S6.013 2.287 7.43 2.287h17.143z"/>
    </symbol>
    <symbol id="icon-instagram" viewBox="0 0 32 32">
      <path d="M16 12.693a3.31 3.31 0 0 0-3.055 2.041 3.304 3.304 0 0 0 2.41 4.508 3.304 3.304 0 0 0 3.699-4.508 3.308 3.308 0 0 0-3.055-2.042zm13.24-3.266a8.71 8.71 0 0 0-.56-3.013 5.338 5.338 0 0 0-3.093-3.093 8.714 8.714 0 0 0-3.013-.56c-1.72-.093-2.227-.093-6.573-.093s-4.853 0-6.573.093a8.71 8.71 0 0 0-3.013.56 5.338 5.338 0 0 0-3.093 3.093 8.714 8.714 0 0 0-.56 3.013c-.093 1.72-.093 2.227-.093 6.573s0 4.853.093 6.573a9.149 9.149 0 0 0 .56 3.027c.266.702.68 1.338 1.213 1.867.531.536 1.173.95 1.88 1.213a8.714 8.714 0 0 0 3.013.56c1.72.093 2.227.093 6.573.093s4.853 0 6.573-.093a8.71 8.71 0 0 0 3.013-.56 5.198 5.198 0 0 0 1.88-1.213A5.245 5.245 0 0 0 28.68 25.6a8.792 8.792 0 0 0 .56-3.027c.093-1.72.093-2.227.093-6.573s0-4.853-.093-6.573zm-3.387 10.666a7.636 7.636 0 0 1-.52 2.4 5.17 5.17 0 0 1-2.84 2.84 7.655 7.655 0 0 1-2.413.467h-8.16a7.627 7.627 0 0 1-2.413-.467 4.692 4.692 0 0 1-1.747-1.147 4.676 4.676 0 0 1-1.093-1.693 7.312 7.312 0 0 1-.453-2.413v-8.16c.014-.824.167-1.64.453-2.413A4.692 4.692 0 0 1 7.814 7.76a4.778 4.778 0 0 1 1.693-1.093A7.655 7.655 0 0 1 11.92 6.2h8.16a7.627 7.627 0 0 1 2.413.467 4.692 4.692 0 0 1 1.747 1.147 4.676 4.676 0 0 1 1.093 1.693c.285.774.442 1.589.467 2.413V16c0 2.747.093 3.027.053 4.08v.013zm-2.133-9.92c-.159-.431-.409-.822-.734-1.146s-.716-.575-1.146-.734A5.33 5.33 0 0 0 20 8h-8a5.333 5.333 0 0 0-1.84.347 3.187 3.187 0 0 0-1.88 1.813A5.688 5.688 0 0 0 8 12v8c.013.628.13 1.25.347 1.84.159.431.409.822.734 1.146s.716.575 1.146.734a5.72 5.72 0 0 0 1.773.347h8a5.333 5.333 0 0 0 1.84-.347c.431-.159.822-.409 1.146-.734s.575-.716.734-1.146a5.333 5.333 0 0 0 .347-1.84v-8c0-.63-.117-1.254-.347-1.84v.013zM16 21.093a5.082 5.082 0 0 1-5.08-5.094 5.095 5.095 0 0 1 10.091-.986 5.099 5.099 0 0 1-2.177 5.227 5.1 5.1 0 0 1-2.833.852zm5.333-9.186a1.202 1.202 0 0 1 0-2.388 1.202 1.202 0 0 1 0 2.388z"/>
    </symbol>
    <symbol id="icon-telegram" viewBox="0 0 32 32">
      <path d="M15.992 2.667A13.336 13.336 0 0 0 2.914 18.602 13.327 13.327 0 0 0 13.39 29.078a13.34 13.34 0 0 0 13.688-5.67 13.336 13.336 0 0 0-5.984-19.727 13.338 13.338 0 0 0-5.103-1.015zm4.24 20.203a.937.937 0 0 1-.957.586.943.943 0 0 1-.38-.118l-3.62-2.812-2.323 2.143a.399.399 0 0 1-.38.052l.445-3.985.014.011.009-.079s6.513-5.93 6.779-6.183c.269-.252.18-.307.18-.307.015-.307-.482 0-.482 0l-8.63 5.552-3.594-1.224s-.552-.198-.604-.633c-.055-.432.622-.667.622-.667L21.6 9.529s1.175-.523 1.175.343L20.23 22.867z"/>
    </symbol>
    <!--Benefites Icons-->
     <symbol id="icon-justice" viewBox="0 0 32 32">
      <path d="M25.808 4.329h2.704a.584.584 0 0 0 0-1.17h-9.909a2.677 2.677 0 0 0-2.607-2.093 2.673 2.673 0 0 0-2.601 2.093H3.48a.584.584 0 0 0 0 1.17h2.7L1.457 17.543a.734.734 0 0 0-.034.197c0 3.092 2.505 5.608 5.585 5.608h.006c3.053 0 5.539-2.474 5.581-5.53.004-.026.016-.05.016-.077 0-.11-.03-.213-.083-.301L7.836 4.329h5.561c.14.632.499 1.195 1.02 1.577l-.771 20.595H7.922c-1.364 0-2.826 1.87-3.065 3.401a.587.587 0 0 0 .576.676h21.12a.582.582 0 0 0 .576-.676c-.24-1.531-1.702-3.401-3.066-3.401h-5.708L17.579 5.91c.525-.387.884-.95 1.025-1.58h5.551l-4.723 13.214a.734.734 0 0 0-.034.197c0 3.092 2.505 5.608 5.585 5.608h.006c3.053 0 5.539-2.474 5.581-5.53.013-.096.036-.206-.067-.378L25.812 4.33zm-.245 2.778 3.596 10.049h-3.596V7.107zm-9.567-4.871a1.511 1.511 0 1 1-.366 2.977 1.512 1.512 0 0 1 .366-2.977zM6.424 7.11v10.046H2.833L6.424 7.11zm.589 15.069h-.006c-2.239 0-4.095-1.682-4.381-3.853h8.767c-.286 2.172-2.141 3.853-4.381 3.853zm.577-5.023V7.107l3.596 10.049H7.59zm18.183 12.252H6.209c.394-.916 1.213-1.738 1.712-1.738h16.14c.499 0 1.317.822 1.712 1.738zm-10.962-2.907.753-20.108c.081.013.29.035.432.035.131 0 .261-.012.39-.031l.042-.003.758 20.107h-2.374zM24.397 7.11v10.046h-3.591L24.397 7.11zm.589 15.069h-.006c-2.239 0-4.095-1.682-4.381-3.853h8.767c-.286 2.172-2.141 3.853-4.38 3.853z"/>
    </symbol>
    <symbol id="icon-partner" viewBox="0 0 32 32">
      <path d="M8.538 5.291a2.29 2.29 0 1 0 0-4.58 2.29 2.29 0 0 0 0 4.58zM8.538 9.504l1.557-1.975-1.557-1.54-1.557 1.54 1.557 1.975zM15.98 30.37c-7.831 0-14.203-6.371-14.203-14.203 0-.315.258-.572.572-.572s.572.258.572.572c0 7.201 5.856 13.058 13.058 13.058.315 0 .572.258.572.572s-.258.572-.572.572zm13.63-13.63a.574.574 0 0 1-.572-.572c0-7.201-5.856-13.058-13.058-13.058-.315 0-.572-.258-.572-.572s.258-.572.572-.572c7.831 0 14.203 6.371 14.203 14.203a.574.574 0 0 1-.572.572z"/>
      <path d="M24.39 14.988a.574.574 0 0 1-.561-.458c-.767-3.692-4.07-6.377-7.848-6.377-.315 0-.572-.258-.572-.572s.258-.572.572-.572c4.322 0 8.094 3.068 8.97 7.287a.572.572 0 0 1-.447.675.444.444 0 0 1-.114.017zm-8.41 10.338a9.121 9.121 0 0 1-9.045-7.7.573.573 0 1 1 1.133-.183 7.972 7.972 0 0 0 7.911 6.738c.315 0 .572.258.572.572s-.258.572-.572.572zM11.727 5.388a.572.572 0 0 0-.767.12l-.916 1.162.458.447a.57.57 0 0 1 .046.761L8.991 9.853a.578.578 0 0 1-.904 0L6.53 7.878a.57.57 0 0 1 .046-.761l.458-.447-.916-1.162a.571.571 0 0 0-.767-.12C3.72 6.487 3.388 8.027 3.388 10.002c0 2.977 3.211 5.593 5.152 5.593s5.152-2.61 5.152-5.593c0-1.975-.332-3.515-1.964-4.614zM24.567 20.747a2.29 2.29 0 1 0 0-4.58 2.29 2.29 0 0 0 0 4.58zM24.567 24.96l1.557-1.975-1.557-1.54-1.557 1.54 1.557 1.975z"/>
      <path d="M27.756 20.844a.572.572 0 0 0-.767.12l-.916 1.162.458.447a.57.57 0 0 1 .046.761l-1.557 1.975a.578.578 0 0 1-.904 0l-1.557-1.975a.57.57 0 0 1 .046-.761l.458-.447-.916-1.162a.571.571 0 0 0-.767-.12c-1.631 1.099-1.964 2.639-1.964 4.614 0 2.977 3.211 5.593 5.152 5.593s5.152-2.61 5.152-5.593c0-1.975-.332-3.515-1.964-4.614z"/>
    </symbol>
    <symbol id="icon-security" viewBox="0 0 32 32">
      <path d="M16.631 30.75c1.056-.672 2.116-1.341 3.172-2.012.478-.303.962-.603 1.428-.928a19.317 19.317 0 0 0 3.066-2.637 19.26 19.26 0 0 0 4.091-6.809c.716-2.066 1.022-4.244 1.022-6.425V7.78c0-.559-.391-1.047-.919-1.206a11.574 11.574 0 0 1-1.125-.388l.3.125a8.378 8.378 0 0 1-1.828-1.066l.253.197a8.394 8.394 0 0 1-1.488-1.484l.197.253a8.475 8.475 0 0 1-1.069-1.831l.125.3a8.875 8.875 0 0 1-.256-.688c-.169-.528-.641-.919-1.206-.919H11.178c-.516 0-1.034-.016-1.55 0h-.022c-.569 0-1.037.391-1.206.919a7.678 7.678 0 0 1-.256.688l.125-.3A8.523 8.523 0 0 1 7.2 4.211l.197-.253A8.355 8.355 0 0 1 5.91 5.442l.253-.197a8.514 8.514 0 0 1-1.828 1.066l.3-.125c-.369.153-.744.272-1.125.388-.528.159-.919.647-.919 1.206v3.769c0 .662 0 1.325.047 1.988.1 1.347.328 2.691.706 3.988a19.198 19.198 0 0 0 3.775 6.994c1.341 1.591 2.956 2.878 4.706 3.988l3.459 2.194.088.056c.553.35 1.403.134 1.709-.45.325-.619.141-1.334-.45-1.709-.563-.356-1.125-.712-1.684-1.069l-2.153-1.366a20.495 20.495 0 0 1-1.469-1.022l.253.197a17.789 17.789 0 0 1-3.159-3.159l.197.253a17.96 17.96 0 0 1-2.303-3.941l.125.3a17.743 17.743 0 0 1-1.234-4.522c.016.109.031.222.044.331-.134-1.012-.156-2.025-.156-3.041V7.793l-.919 1.206c1.078-.325 2.122-.756 3.037-1.416 1.084-.781 2.009-1.744 2.697-2.894a9.757 9.757 0 0 0 .906-2.019l-1.206.919h11.216c.516 0 1.034.013 1.55 0h.022l-1.206-.919c.784 2.447 2.566 4.575 4.903 5.675.563.266 1.141.472 1.738.653l-.919-1.206v4.431c0 .794-.053 1.588-.156 2.375.016-.109.031-.222.044-.331a18.027 18.027 0 0 1-1.234 4.522l.125-.3a18.006 18.006 0 0 1-2.303 3.941l.197-.253a17.789 17.789 0 0 1-3.159 3.159l.253-.197c-.7.541-1.444 1.006-2.188 1.481l-2.475 1.572-.641.406a1.307 1.307 0 0 0-.575.747c-.081.3-.044.697.125.962.356.55 1.119.819 1.709.444z"/>
      <path d="m9.631 15.934 3.666 3.666a1.27 1.27 0 0 0 1.769 0l7.303-7.303c.462-.463.497-1.313 0-1.769-.5-.459-1.275-.494-1.769 0l-7.303 7.303h1.769L11.4 14.165c-.463-.462-1.313-.497-1.769 0-.459.5-.494 1.272 0 1.769z"/>
    </symbol>
    <symbol id="icon-expert" viewBox="0 0 32 32">
      <path d="M1.333 5.333v-4h4a.665.665 0 1 0 0-1.332H.666A.665.665 0 0 0 0 .667v4.667a.665.665 0 1 0 1.332 0zm4 25.334h-4v-4a.665.665 0 1 0-1.332 0v4.667A.665.665 0 0 0 .667 32h4.667a.665.665 0 1 0 0-1.332zm25.334-4v4h-4a.665.665 0 1 0 0 1.332h4.667a.665.665 0 0 0 .666-.666v-4.667a.665.665 0 1 0-1.332 0zM31.333 0h-4.667a.665.665 0 1 0 0 1.332h4v4a.665.665 0 1 0 1.332 0V.665a.665.665 0 0 0-.666-.666zm0 15.333H30A13.999 13.999 0 0 0 16.667 2V.667a.665.665 0 1 0-1.332 0V2A13.999 13.999 0 0 0 2.002 15.333H.669a.665.665 0 1 0 0 1.332h1.333a13.999 13.999 0 0 0 13.333 13.333v1.333a.665.665 0 1 0 1.332 0v-1.333A13.999 13.999 0 0 0 30 16.665h1.333a.665.665 0 1 0 0-1.332zm-14.666 12A11.336 11.336 0 0 1 4.809 14.225a11.337 11.337 0 0 1 15.36-8.745 11.336 11.336 0 0 1 7.164 10.519 11.333 11.333 0 0 1-10.666 11.333z"/>
      <path d="M8.113 13.447A2.668 2.668 0 0 0 10 18.001h2v-5.333c-1.88 0-2.9-.193-3.887.78zm1.22 5.826v1.393a1.333 1.333 0 1 0 2.667 0v-1.333c-.889.047-1.781.027-2.667-.06zm4-.94L18 20.666V9.999l-4.667 2.333v6zm6-4.88v3.76a1.997 1.997 0 0 0 1.317-1.88 1.997 1.997 0 0 0-1.317-1.88zm5.334 1.214h-1.333a.665.665 0 1 0 0 1.332h1.333a.665.665 0 1 0 0-1.332zm-2.507-1.494c.4 0 .553-.28 1.413-1.14a.67.67 0 0 0 .305-.483.658.658 0 0 0-.182-.543.67.67 0 0 0-.815-.113.663.663 0 0 0-.215.2l-.94.94a.67.67 0 0 0 .075 1.014.67.67 0 0 0 .358.127zm.507 4.52a.689.689 0 1 0-.974.974c1.02 1.027 1.06 1.14 1.413 1.14a.667.667 0 0 0 .466-1.14l-.907-.973z"/>
    </symbol>
    <symbol id="icon-trend-down" viewBox="0 0 32 32">
      <path d="M23 16.667v2.667a1.004 1.004 0 0 1-1 1h-2.667a.997.997 0 0 1-1-1 .997.997 0 0 1 1-1h.252l-3.031-3.031-1.456 2.185a.997.997 0 0 1-1.538.151l-4.267-4.267a.996.996 0 0 1 .025-1.388 1.002 1.002 0 0 1 1.388-.025l3.405 3.404 1.456-2.185a.992.992 0 0 1 1.533-.153l3.893 3.892v-.252a.997.997 0 0 1 1-1 .997.997 0 0 1 1 1h.005zM30.333 12v8c0 7.243-3.089 10.333-10.333 10.333h-8C4.756 30.333 1.667 27.242 1.667 20v-8C1.667 4.757 4.756 1.667 12 1.667h8c7.244 0 10.333 3.091 10.333 10.333zm-2 0c0-6.152-2.181-8.333-8.333-8.333h-8c-6.152 0-8.333 2.181-8.333 8.333v8c0 6.152 2.181 8.333 8.333 8.333h8c6.152 0 8.333-2.181 8.333-8.333v-8z"/>
    </symbol>
    <symbol id="icon-optimization" viewBox="0 0 32 32">
      <path d="M19.549.482c-6.604 0-11.971 5.372-11.971 11.971s5.367 11.966 11.971 11.966c6.599 0 11.966-5.362 11.966-11.961 0-6.594-5.367-11.966-11.966-11.976zm-.005 20.815c-4.887 0-8.868-3.971-8.868-8.848 0-4.882 3.981-8.853 8.868-8.853 4.878.005 8.844 3.981 8.844 8.858s-3.966 8.844-8.844 8.844z"/>
      <path d="m10.718 24.213 1.268-1.268a13.185 13.185 0 0 1-2.928-2.924l-1.265 1.265-.582-.582a.499.499 0 0 0-.689 0l-5.047 5.047a3.377 3.377 0 0 0 0 4.776 3.382 3.382 0 0 0 4.781 0l5.047-5.047a.483.483 0 0 0 0-.684l-.584-.584zm7.701-13.336-.499-.31a2.143 2.143 0 0 0-.073-.427l.369-.465a.24.24 0 0 0 .015-.276l-.344-.543a.243.243 0 0 0-.262-.107l-.567.136a3.073 3.073 0 0 0-.359-.252l-.068-.582a.242.242 0 0 0-.184-.208l-.625-.141a.256.256 0 0 0-.262.112l-.305.495a2.614 2.614 0 0 0-.431.078l-.461-.364a.231.231 0 0 0-.276-.019l-.543.344a.243.243 0 0 0-.107.262l.136.567a2.274 2.274 0 0 0-.252.359l-.582.068a.242.242 0 0 0-.208.184l-.141.625a.244.244 0 0 0 .107.262l.499.305c.015.145.039.291.078.431l-.368.461a.24.24 0 0 0-.015.276l.344.543a.243.243 0 0 0 .257.107l.572-.136c.111.097.233.179.359.252l.063.582a.247.247 0 0 0 .189.208l.625.141c.019.005.034.005.053.005.082 0 .16-.044.204-.112l.31-.499c.145-.015.291-.039.432-.078l.456.368a.25.25 0 0 0 .281.015l.543-.344a.247.247 0 0 0 .107-.257l-.136-.577c.092-.111.179-.228.247-.354l.587-.063a.25.25 0 0 0 .209-.189l.141-.625a.245.245 0 0 0-.112-.257zm-2.337.887a1.172 1.172 0 0 1-1.619-.364c-.339-.553-.199-1.261.364-1.619.533-.339 1.285-.165 1.619.364.33.514.218 1.251-.364 1.619zm10.1 2.25-.718-.441a3.031 3.031 0 0 0-.112-.65l.524-.664a.225.225 0 0 0 .015-.276l-.465-.732a.229.229 0 0 0-.257-.107l-.819.189a3.247 3.247 0 0 0-.538-.378l-.097-.839a.25.25 0 0 0-.189-.209l-.848-.189a.245.245 0 0 0-.257.107l-.441.718a3.287 3.287 0 0 0-.655.112l-.659-.524a.25.25 0 0 0-.281-.015l-.732.465a.246.246 0 0 0-.107.262l.194.815c-.145.17-.276.349-.383.543l-.834.097a.243.243 0 0 0-.209.189l-.189.844a.242.242 0 0 0 .107.262l.718.441c.015.223.048.441.111.655l-.524.655a.25.25 0 0 0-.015.281l.465.732a.236.236 0 0 0 .257.107l.819-.189a3.2 3.2 0 0 0 .543.378l.092.839a.247.247 0 0 0 .189.208l.849.189a.24.24 0 0 0 .257-.111l.446-.713c.218-.015.436-.053.65-.112l.659.524a.25.25 0 0 0 .281.015l.732-.465a.239.239 0 0 0 .107-.257l-.194-.824c.145-.165.276-.349.383-.538l.834-.097a.238.238 0 0 0 .209-.189l.189-.844a.241.241 0 0 0-.107-.262zm-3.035 1.27a1.752 1.752 0 1 1 .539-2.419 1.755 1.755 0 0 1-.538 2.419z"/>
    </symbol>
    <symbol id="icon-focus" viewBox="0 0 32 32">
      <path d="M29.44 14.507h-1.598A11.95 11.95 0 0 0 17.493 4.158V2.56a1.493 1.493 0 1 0-2.986 0v1.598A11.95 11.95 0 0 0 4.158 14.507H2.56a1.493 1.493 0 1 0 0 2.986h1.598a11.95 11.95 0 0 0 10.349 10.349v1.598a1.493 1.493 0 1 0 2.986 0v-1.598a11.95 11.95 0 0 0 10.349-10.349h1.598a1.493 1.493 0 1 0 0-2.986zM16 24.96a8.966 8.966 0 0 1-8.278-5.531A8.96 8.96 0 1 1 16 24.96zm0-13.44a4.483 4.483 0 0 0-4.139 2.766 4.478 4.478 0 0 0 5.853 5.853A4.48 4.48 0 0 0 16 11.52zm0 5.973a1.497 1.497 0 0 1-1.38-.922 1.49 1.49 0 0 1 .324-1.628 1.496 1.496 0 0 1 2.298.226 1.495 1.495 0 0 1-.185 1.886c-.28.28-.66.437-1.056.437z"/>
    </symbol>
    <!--Menu Icons-->
    <symbol id="icon-menu" viewBox="0 0 32 32">
      <path d="M24.033 3.121H2.059c-2.35-.078-2.35 3.027 0 2.949h21.886c2.307.078 2.397-2.949.09-2.949h-.002zM2.059 14.915c-2.26 0-2.26 2.947 0 2.947h12.389c2.307 0 2.307-2.947 0-2.947H2.059zm0 11.794c-2.26 0-2.26 2.948 0 2.948h27.762c2.26 0 2.26-2.947 0-2.947H2.059z"/>
    </symbol>
    <symbol id="icon-close" viewBox="0 0 32 32">
      <path d="m17.88 16 8.4-8.387a1.34 1.34 0 0 0-1.894-1.894l-8.387 8.4-8.387-8.4a1.34 1.34 0 0 0-1.894 1.894l8.4 8.387-8.4 8.387a1.334 1.334 0 0 0 0 1.894 1.334 1.334 0 0 0 1.894 0l8.387-8.4 8.387 8.4a1.334 1.334 0 0 0 1.894 0 1.334 1.334 0 0 0 0-1.894L17.88 16z"/>
    </symbol>
  </defs>
</svg>