<svg aria-hidden="true" style="position: absolute; width: 0; height: 0; overflow: hidden;" version="1.1" xmlns="http://www.w3.org/2000/svg" xmlns:xlink="http://www.w3.org/1999/xlink">
<defs>
<symbol id="icon-close" viewBox="0 0 32 32">
<path d="M17.88 16l8.4-8.387c0.251-0.251 0.392-0.592 0.392-0.947s-0.141-0.696-0.392-0.947c-0.251-0.251-0.592-0.392-0.947-0.392s-0.696 0.141-0.947 0.392l-8.387 8.4-8.387-8.4c-0.251-0.251-0.592-0.392-0.947-0.392s-0.696 0.141-0.947 0.392c-0.251 0.251-0.392 0.592-0.392 0.947s0.141 0.696 0.392 0.947l8.4 8.387-8.4 8.387c-0.125 0.124-0.224 0.271-0.292 0.434s-0.103 0.337-0.103 0.513c0 0.176 0.035 0.35 0.103 0.513s0.167 0.31 0.292 0.434c0.124 0.125 0.271 0.224 0.434 0.292s0.337 0.102 0.513 0.102 0.35-0.035 0.513-0.102c0.162-0.068 0.31-0.167 0.434-0.292l8.387-8.4 8.387 8.4c0.124 0.125 0.271 0.224 0.434 0.292s0.337 0.102 0.513 0.102 0.35-0.035 0.513-0.102c0.162-0.068 0.31-0.167 0.434-0.292 0.125-0.124 0.224-0.271 0.292-0.434s0.103-0.337 0.103-0.513-0.035-0.35-0.103-0.513c-0.068-0.162-0.167-0.31-0.292-0.434l-8.4-8.387z"></path>
</symbol>
<symbol id="icon-arrow-right" viewBox="0 0 31 32">
<path stroke-linejoin="round" stroke-linecap="round" stroke-miterlimit="4" stroke-width="1.561" d="M5.665 16.45h18.922M24.587 16.45l-7.096 7.096M24.587 16.45l-7.096-7.096"></path>
</symbol>
<symbol id="icon-arrow-left" viewBox="0 0 31 32">
<path stroke-linejoin="round" stroke-linecap="round" stroke-miterlimit="4" stroke-width="1.561" d="M24.586 16.45h-18.922M5.664 16.45l7.096-7.096M5.664 16.45l7.096 7.096"></path>
</symbol>
<symbol id="icon-arrow-down" viewBox="0 0 31 32">
<path stroke-linejoin="round" stroke-linecap="round" stroke-miterlimit="4" stroke-width="1.561" d="M9.404 9.418l13.38 13.38M22.784 22.798h-10.035M22.784 22.798v-10.035"></path>
</symbol>
<symbol id="icon-arrow-up" viewBox="0 0 31 32">
<path stroke-linejoin="round" stroke-linecap="round" stroke-miterlimit="4" stroke-width="1.561" d="M8.749 22.484l13.38-13.38M22.129 9.105v10.035M22.129 9.105h-10.035"></path>
</symbol>
<symbol id="icon-viber" viewBox="0 0 32 32">
<path d="M16 1.333c-7.093 0-14.667 0.973-14.667 12.667 0 6.187 2.187 10 6.667 11.627v3c0.002 0.414 0.131 0.817 0.368 1.156s0.572 0.598 0.959 0.743c0.388 0.145 0.81 0.168 1.211 0.067s0.762-0.322 1.035-0.633l2.92-3.293h1.507c7.093 0 14.667-0.973 14.667-12.667s-7.573-12.667-14.667-12.667zM16 10.667c0.707 0 1.386 0.281 1.886 0.781s0.781 1.178 0.781 1.886c0 0.177-0.070 0.346-0.195 0.471s-0.295 0.195-0.471 0.195c-0.177 0-0.346-0.070-0.471-0.195s-0.195-0.295-0.195-0.471c0-0.354-0.14-0.693-0.39-0.943s-0.589-0.391-0.943-0.391c-0.177 0-0.346-0.070-0.471-0.195s-0.195-0.295-0.195-0.471 0.070-0.346 0.195-0.471c0.125-0.125 0.295-0.195 0.471-0.195zM15.333 8.667c0-0.177 0.070-0.346 0.195-0.471s0.295-0.195 0.471-0.195c1.414 0 2.771 0.562 3.771 1.562s1.562 2.357 1.562 3.771c0 0.177-0.070 0.346-0.195 0.471s-0.295 0.195-0.471 0.195-0.346-0.070-0.471-0.195c-0.125-0.125-0.195-0.295-0.195-0.471 0-1.061-0.421-2.078-1.172-2.828s-1.768-1.172-2.828-1.172c-0.177 0-0.346-0.070-0.471-0.195s-0.195-0.295-0.195-0.471zM22.667 19.333c-0.159 0.942-0.65 1.795-1.383 2.407s-1.662 0.94-2.617 0.927c-2.093 0-6.12-2.507-7.8-4.2s-4.2-5.707-4.2-7.8c-0.013-0.955 0.315-1.883 0.927-2.617s1.465-1.224 2.407-1.383h1.333c0.125-0 0.247 0.035 0.354 0.101s0.192 0.16 0.246 0.273c0 0 0.8 1.627 1.333 2.667s-0.52 2.52-1.16 3.16c0.382 0.993 0.957 1.899 1.693 2.667 0.767 0.736 1.674 1.312 2.667 1.693 0.628-0.722 1.493-1.195 2.44-1.333 0.246 0 0.488 0.060 0.707 0.173l2.667 1.333c0.112 0.055 0.207 0.14 0.273 0.246s0.101 0.229 0.101 0.354l0.013 1.333zM23.333 14c-0.177 0-0.346-0.070-0.471-0.195s-0.195-0.295-0.195-0.471c0-1.768-0.702-3.464-1.953-4.714s-2.946-1.953-4.714-1.953c-0.177 0-0.346-0.070-0.471-0.195s-0.195-0.295-0.195-0.471c0-0.177 0.070-0.346 0.195-0.471s0.295-0.195 0.471-0.195c2.122 0 4.157 0.843 5.657 2.343s2.343 3.535 2.343 5.657c0 0.177-0.070 0.346-0.195 0.471s-0.295 0.195-0.471 0.195z"></path>
</symbol>
<symbol id="icon-whats-app" viewBox="0 0 32 32">
<path d="M16.412 1c-7.725 0-13.981 6.256-13.981 13.981 0 3.112 1.019 5.987 2.737 8.312l-3.563 7.706 0.931-0.431 7.175-3.312c1.988 1.088 4.269 1.706 6.694 1.706 7.719 0 13.981-6.256 13.981-13.981 0.006-7.725-6.256-13.981-13.975-13.981zM23.869 20.95c-0.081 0.388-0.25 0.756-0.494 1.081-0.3 0.4-0.688 0.7-1.131 0.887s-0.931 0.263-1.419 0.2c-1.306-0.156-2.569-0.575-3.7-1.25-1.306-0.775-3.063-1.981-4.388-3.706-1.412-1.656-2.181-3.594-2.669-5.038-0.419-1.244-0.569-2.569-0.45-3.875 0.044-0.494 0.219-0.956 0.494-1.35s0.656-0.713 1.106-0.919c0.369-0.175 0.769-0.256 1.163-0.256 0.562 0 1.25-0.006 1.725 0.331 0.738 0.519 1.050 1.544 1.050 2.444 0 0.081-0.006 0.169-0.012 0.25-0.044 0.494-0.088 0.925-0.369 1.319-0.275 0.394-0.781 0.738-1.231 0.95 0.344 1.85 0.938 3.225 1.756 4.113 0.35 0.487 0.825 0.95 1.431 1.381s1.337 0.825 2.206 1.188c0.3-0.394 0.744-0.819 1.188-1.006 0.437-0.188 0.875-0.144 1.362-0.081 0.081 0.012 0.169 0.025 0.25 0.044 0.875 0.188 1.812 0.706 2.169 1.538 0.225 0.538 0.081 1.206-0.038 1.756z"></path>
</symbol>
<symbol id="icon-facebook" viewBox="0 0 32 32">
<path d="M24.571 2.286c1.417 0 2.628 0.503 3.634 1.509s1.509 2.217 1.509 3.634v17.143c0 1.417-0.503 2.628-1.509 3.634s-2.217 1.509-3.634 1.509h-3.357v-10.625h3.554l0.536-4.143h-4.089v-2.643c0-0.667 0.14-1.167 0.42-1.5s0.824-0.5 1.634-0.5l2.179-0.018v-3.696c-0.75-0.107-1.81-0.161-3.179-0.161-1.619 0-2.914 0.476-3.884 1.429s-1.455 2.298-1.455 4.036v3.054h-3.571v4.143h3.571v10.625h-9.5c-1.417 0-2.628-0.503-3.634-1.509s-1.509-2.217-1.509-3.634v-17.143c0-1.417 0.503-2.628 1.509-3.634s2.217-1.509 3.634-1.509h17.143z"></path>
</symbol>
<symbol id="icon-instagram" viewBox="0 0 32 32">
<path d="M16 12.693c-0.654 0-1.293 0.194-1.837 0.557s-0.968 0.88-1.218 1.484c-0.25 0.604-0.316 1.269-0.188 1.91s0.443 1.231 0.905 1.693c0.462 0.462 1.052 0.777 1.693 0.905s1.306 0.062 1.91-0.188c0.604-0.25 1.121-0.674 1.484-1.218s0.557-1.183 0.557-1.837c0-0.434-0.086-0.864-0.252-1.265s-0.41-0.766-0.717-1.073c-0.307-0.307-0.672-0.551-1.073-0.717s-0.831-0.252-1.265-0.252zM29.24 9.427c-0.007-1.030-0.197-2.050-0.56-3.013-0.268-0.705-0.682-1.345-1.215-1.878s-1.173-0.947-1.878-1.215c-0.963-0.363-1.984-0.553-3.013-0.56-1.72-0.093-2.227-0.093-6.573-0.093s-4.853 0-6.573 0.093c-1.030 0.007-2.050 0.197-3.013 0.56-0.705 0.268-1.345 0.682-1.878 1.215s-0.947 1.173-1.215 1.878c-0.363 0.963-0.553 1.984-0.56 3.013-0.093 1.72-0.093 2.227-0.093 6.573s0 4.853 0.093 6.573c0.014 1.033 0.204 2.057 0.56 3.027 0.266 0.702 0.68 1.338 1.213 1.867 0.531 0.536 1.173 0.95 1.88 1.213 0.963 0.363 1.984 0.553 3.013 0.56 1.72 0.093 2.227 0.093 6.573 0.093s4.853 0 6.573-0.093c1.030-0.007 2.050-0.197 3.013-0.56 0.707-0.263 1.349-0.677 1.88-1.213 0.533-0.528 0.947-1.165 1.213-1.867 0.363-0.968 0.553-1.993 0.56-3.027 0.093-1.72 0.093-2.227 0.093-6.573s0-4.853-0.093-6.573zM25.853 20.093c-0.043 0.823-0.218 1.633-0.52 2.4-0.259 0.64-0.644 1.221-1.132 1.708s-1.069 0.873-1.708 1.132c-0.774 0.285-1.589 0.442-2.413 0.467-1.053 0-1.333 0-4.080 0s-3.027 0-4.080 0c-0.824-0.024-1.639-0.182-2.413-0.467-0.661-0.246-1.258-0.638-1.747-1.147-0.483-0.478-0.856-1.056-1.093-1.693-0.286-0.773-0.439-1.589-0.453-2.413 0-1.053 0-1.333 0-4.080s0-3.027 0-4.080c0.014-0.824 0.167-1.64 0.453-2.413 0.246-0.661 0.638-1.258 1.147-1.747 0.48-0.481 1.058-0.853 1.693-1.093 0.774-0.285 1.589-0.442 2.413-0.467 1.053 0 1.333 0 4.080 0s3.027 0 4.080 0c0.824 0.024 1.639 0.182 2.413 0.467 0.661 0.246 1.258 0.638 1.747 1.147 0.483 0.478 0.856 1.056 1.093 1.693 0.285 0.774 0.442 1.589 0.467 2.413 0 1.053 0 1.333 0 4.080s0.093 3.027 0.053 4.080v0.013zM23.72 10.173c-0.159-0.431-0.409-0.822-0.734-1.146s-0.716-0.575-1.146-0.734c-0.591-0.205-1.214-0.304-1.84-0.293-1.040 0-1.333 0-4 0s-2.96 0-4 0c-0.629 0.006-1.252 0.124-1.84 0.347-0.424 0.152-0.811 0.392-1.135 0.704s-0.578 0.691-0.745 1.109c-0.194 0.594-0.288 1.215-0.28 1.84 0 1.040 0 1.333 0 4s0 2.96 0 4c0.013 0.628 0.13 1.25 0.347 1.84 0.159 0.431 0.409 0.822 0.734 1.146s0.716 0.575 1.146 0.734c0.569 0.209 1.168 0.326 1.773 0.347 1.040 0 1.333 0 4 0s2.96 0 4 0c0.629-0.006 1.252-0.124 1.84-0.347 0.431-0.159 0.822-0.409 1.146-0.734s0.575-0.716 0.734-1.146c0.223-0.588 0.341-1.211 0.347-1.84 0-1.040 0-1.333 0-4s0-2.96 0-4c0-0.63-0.117-1.254-0.347-1.84v0.013zM16 21.093c-0.668 0-1.33-0.132-1.947-0.388s-1.178-0.632-1.65-1.105c-0.472-0.473-0.846-1.035-1.1-1.653s-0.385-1.28-0.383-1.948c0-1.008 0.299-1.993 0.859-2.831s1.356-1.491 2.288-1.876c0.931-0.385 1.956-0.485 2.945-0.288s1.896 0.684 2.608 1.398c0.712 0.714 1.196 1.622 1.391 2.611s0.092 2.013-0.295 2.944c-0.388 0.93-1.042 1.725-1.882 2.283s-1.825 0.854-2.833 0.852zM21.333 11.907c-0.295-0.031-0.568-0.17-0.766-0.391s-0.308-0.506-0.308-0.803c0-0.296 0.11-0.582 0.308-0.803s0.471-0.359 0.766-0.391c0.295 0.031 0.568 0.17 0.766 0.391s0.308 0.506 0.308 0.803-0.11 0.582-0.308 0.803c-0.198 0.22-0.471 0.36-0.766 0.391z"></path>
</symbol>
<symbol id="icon-telegram" viewBox="0 0 32 32">
<path d="M15.992 2.667c-2.637 0-5.215 0.782-7.408 2.247s-3.902 3.548-4.911 5.984c-1.009 2.436-1.273 5.117-0.759 7.704s1.784 4.962 3.649 6.827c1.865 1.865 4.24 3.135 6.827 3.649s5.267 0.25 7.704-0.759c2.436-1.009 4.519-2.718 5.984-4.911s2.247-4.771 2.247-7.408c0-1.751-0.345-3.485-1.015-5.103s-1.652-3.088-2.89-4.326c-1.238-1.238-2.708-2.22-4.326-2.89s-3.352-1.015-5.103-1.015zM20.232 22.87c-0.050 0.124-0.126 0.237-0.223 0.329s-0.212 0.164-0.339 0.208c-0.126 0.044-0.261 0.061-0.395 0.049s-0.263-0.052-0.38-0.118l-3.62-2.812-2.323 2.143c-0.054 0.040-0.117 0.066-0.183 0.075s-0.134 0.001-0.197-0.023l0.445-3.985 0.014 0.011 0.009-0.079c0 0 6.513-5.93 6.779-6.183 0.269-0.252 0.18-0.307 0.18-0.307 0.015-0.307-0.482 0-0.482 0l-8.63 5.552-3.594-1.224c0 0-0.552-0.198-0.604-0.633-0.055-0.432 0.622-0.667 0.622-0.667l14.289-5.677c0 0 1.175-0.523 1.175 0.343l-2.545 12.995z"></path>
</symbol>
<symbol id="icon-line" viewBox="0 0 533 32">
<path d="M0 16l26.667 15.396v-30.792l-26.667 15.396zM533.333 16l-26.667-15.396v30.792l26.667-15.396zM24 18.667h485.333v-5.333h-485.333v5.333z"></path>
</symbol>
<symbol id="icon-justice" viewBox="0 0 32 32">
<path d="M25.808 4.329h2.704c0.322 0 0.583-0.262 0.583-0.585s-0.261-0.585-0.583-0.585h-9.909c-0.268-1.196-1.333-2.093-2.607-2.093-1.271 0-2.334 0.898-2.601 2.093h-9.915c-0.322 0-0.583 0.262-0.583 0.585s0.261 0.585 0.583 0.585h2.7l-4.723 13.214c-0.021 0.058-0.034 0.154-0.034 0.197 0 3.092 2.505 5.608 5.585 5.608h0.006c3.053 0 5.539-2.474 5.581-5.53 0.004-0.026 0.016-0.050 0.016-0.077 0-0.11-0.030-0.213-0.083-0.301l-4.692-13.111h5.561c0.14 0.632 0.499 1.195 1.020 1.577l-0.771 20.595h-5.724c-1.364 0-2.826 1.87-3.065 3.401-0.026 0.169 0.022 0.341 0.133 0.471s0.272 0.205 0.443 0.205h21.12c0.171 0 0.332-0.075 0.443-0.205s0.159-0.302 0.133-0.471c-0.24-1.531-1.702-3.401-3.066-3.401h-5.708l-0.776-20.591c0.525-0.387 0.884-0.95 1.025-1.58h5.551l-4.723 13.214c-0.021 0.058-0.034 0.154-0.034 0.197 0 3.092 2.505 5.608 5.585 5.608h0.006c3.053 0 5.539-2.474 5.581-5.53 0.013-0.096 0.036-0.206-0.067-0.378l-4.691-13.111zM25.563 7.107l3.596 10.049h-3.596v-10.049zM15.996 2.236c0.833 0 1.51 0.677 1.51 1.509 0 0.947-0.879 1.711-1.876 1.468-0.655-0.163-1.138-0.762-1.138-1.468 0-0.832 0.675-1.509 1.504-1.509zM6.424 7.11v10.046h-3.591l3.591-10.046zM7.013 22.179h-0.006c-2.239 0-4.095-1.682-4.381-3.853h8.767c-0.286 2.172-2.141 3.853-4.381 3.853zM7.59 17.156v-10.049l3.596 10.049h-3.596zM25.773 29.408h-19.564c0.394-0.916 1.213-1.738 1.712-1.738 2.609 0.001 13.515 0 16.14 0 0.499 0 1.317 0.822 1.712 1.738zM14.811 26.501l0.753-20.108c0.081 0.013 0.29 0.035 0.432 0.035 0.131 0 0.261-0.012 0.39-0.031 0.014-0.002 0.028-0.001 0.042-0.003l0.758 20.107-2.374 0zM24.397 7.11v10.046h-3.591l3.591-10.046zM24.986 22.179h-0.006c-2.239 0-4.095-1.682-4.381-3.853h8.767c-0.286 2.172-2.141 3.853-4.38 3.853z"></path>
</symbol>
<symbol id="icon-partner" viewBox="0 0 32 32">
<path d="M8.538 5.291c1.265 0 2.29-1.025 2.29-2.29s-1.025-2.29-2.29-2.29c-1.265 0-2.29 1.025-2.29 2.29s1.025 2.29 2.29 2.29z"></path>
<path d="M8.538 9.504l1.557-1.975-1.557-1.54-1.557 1.54 1.557 1.975z"></path>
<path d="M15.98 30.37c-7.831 0-14.203-6.371-14.203-14.203 0-0.315 0.258-0.572 0.572-0.572s0.572 0.258 0.572 0.572c0 7.201 5.856 13.058 13.058 13.058 0.315 0 0.572 0.258 0.572 0.572s-0.258 0.572-0.572 0.572zM29.61 16.74c-0.315 0-0.572-0.258-0.572-0.572 0-7.201-5.856-13.058-13.058-13.058-0.315 0-0.572-0.258-0.572-0.572s0.258-0.572 0.572-0.572c7.831 0 14.203 6.371 14.203 14.203 0 0.315-0.258 0.572-0.572 0.572z"></path>
<path d="M24.39 14.988c-0.263 0-0.504-0.183-0.561-0.458-0.767-3.692-4.070-6.377-7.848-6.377-0.315 0-0.572-0.258-0.572-0.572s0.258-0.572 0.572-0.572c4.322 0 8.094 3.068 8.97 7.287 0.063 0.309-0.137 0.613-0.447 0.675-0.040 0.011-0.080 0.017-0.114 0.017zM15.98 25.326c-4.522 0-8.329-3.24-9.045-7.7-0.052-0.309 0.16-0.607 0.475-0.658s0.607 0.16 0.658 0.475c0.624 3.904 3.95 6.738 7.911 6.738 0.315 0 0.572 0.258 0.572 0.572s-0.258 0.572-0.572 0.572zM11.727 5.388c-0.246-0.166-0.584-0.114-0.767 0.12l-0.916 1.162 0.458 0.447c0.206 0.206 0.229 0.532 0.046 0.761l-1.557 1.975c-0.109 0.137-0.275 0.218-0.452 0.218s-0.343-0.080-0.452-0.218l-1.557-1.975c-0.183-0.229-0.16-0.555 0.046-0.761l0.458-0.447-0.916-1.162c-0.183-0.235-0.521-0.286-0.767-0.12-1.631 1.099-1.963 2.639-1.963 4.614 0 2.977 3.211 5.593 5.152 5.593s5.152-2.61 5.152-5.593c0-1.975-0.332-3.515-1.964-4.614z"></path>
<path d="M24.567 20.747c1.265 0 2.29-1.025 2.29-2.29s-1.025-2.29-2.29-2.29c-1.265 0-2.29 1.025-2.29 2.29s1.025 2.29 2.29 2.29z"></path>
<path d="M24.567 24.96l1.557-1.975-1.557-1.54-1.557 1.54 1.557 1.975z"></path>
<path d="M27.756 20.844c-0.246-0.166-0.584-0.114-0.767 0.12l-0.916 1.162 0.458 0.447c0.206 0.206 0.229 0.532 0.046 0.761l-1.557 1.975c-0.109 0.137-0.275 0.218-0.452 0.218s-0.343-0.080-0.452-0.218l-1.557-1.975c-0.183-0.229-0.16-0.555 0.046-0.761l0.458-0.447-0.916-1.162c-0.183-0.235-0.521-0.286-0.767-0.12-1.631 1.099-1.964 2.639-1.964 4.614 0 2.977 3.211 5.593 5.152 5.593s5.152-2.61 5.152-5.593c0-1.975-0.332-3.515-1.964-4.614z"></path>
</symbol>
<symbol id="icon-security" viewBox="0 0 32 32">
<path d="M16.631 30.75c1.056-0.672 2.116-1.341 3.172-2.012 0.478-0.303 0.962-0.603 1.428-0.928 1.106-0.772 2.144-1.65 3.066-2.637 1.825-1.959 3.212-4.281 4.091-6.809 0.716-2.066 1.022-4.244 1.022-6.425v-4.159c0-0.559-0.391-1.047-0.919-1.206-0.381-0.116-0.759-0.234-1.125-0.388 0.1 0.041 0.2 0.084 0.3 0.125-0.653-0.278-1.266-0.634-1.828-1.066l0.253 0.197c-0.556-0.431-1.056-0.928-1.488-1.484l0.197 0.253c-0.431-0.563-0.791-1.178-1.069-1.831 0.041 0.1 0.084 0.2 0.125 0.3-0.094-0.225-0.181-0.456-0.256-0.688-0.169-0.528-0.641-0.919-1.206-0.919h-11.216c-0.516 0-1.034-0.016-1.55 0h-0.022c-0.569 0-1.037 0.391-1.206 0.919-0.075 0.234-0.159 0.462-0.256 0.688 0.041-0.1 0.084-0.2 0.125-0.3-0.278 0.653-0.638 1.266-1.069 1.831l0.197-0.253c-0.431 0.556-0.931 1.053-1.487 1.484l0.253-0.197c-0.563 0.431-1.178 0.788-1.828 1.066 0.1-0.041 0.2-0.084 0.3-0.125-0.369 0.153-0.744 0.272-1.125 0.388-0.528 0.159-0.919 0.647-0.919 1.206v3.769c0 0.662 0 1.325 0.047 1.988 0.1 1.347 0.328 2.691 0.706 3.988 0.75 2.575 2.050 4.947 3.775 6.994 1.341 1.591 2.956 2.878 4.706 3.988l3.459 2.194c0.028 0.019 0.059 0.037 0.088 0.056 0.553 0.35 1.403 0.134 1.709-0.45 0.325-0.619 0.141-1.334-0.45-1.709-0.563-0.356-1.125-0.712-1.684-1.069-0.719-0.456-1.434-0.909-2.153-1.366-0.503-0.319-0.994-0.659-1.469-1.022l0.253 0.197c-1.181-0.916-2.244-1.978-3.159-3.159l0.197 0.253c-0.931-1.209-1.706-2.534-2.303-3.941 0.041 0.1 0.084 0.2 0.125 0.3-0.609-1.447-1.025-2.966-1.234-4.522 0.016 0.109 0.031 0.222 0.044 0.331-0.134-1.012-0.156-2.025-0.156-3.041v-3.766c-0.306 0.403-0.612 0.803-0.919 1.206 1.078-0.325 2.122-0.756 3.037-1.416 1.084-0.781 2.009-1.744 2.697-2.894 0.378-0.631 0.681-1.319 0.906-2.019-0.403 0.306-0.803 0.612-1.206 0.919h11.216c0.516 0 1.034 0.013 1.55 0h0.022c-0.403-0.306-0.803-0.612-1.206-0.919 0.784 2.447 2.566 4.575 4.903 5.675 0.563 0.266 1.141 0.472 1.738 0.653-0.306-0.403-0.613-0.803-0.919-1.206v4.431c0 0.794-0.053 1.588-0.156 2.375 0.016-0.109 0.031-0.222 0.044-0.331-0.212 1.553-0.628 3.075-1.234 4.522 0.041-0.1 0.084-0.2 0.125-0.3-0.597 1.406-1.372 2.731-2.303 3.941l0.197-0.253c-0.916 1.181-1.978 2.244-3.159 3.159l0.253-0.197c-0.7 0.541-1.444 1.006-2.188 1.481-0.825 0.525-1.65 1.047-2.475 1.572-0.213 0.134-0.428 0.272-0.641 0.406-0.272 0.172-0.488 0.431-0.575 0.747-0.081 0.3-0.044 0.697 0.125 0.962 0.356 0.55 1.119 0.819 1.709 0.444z"></path>
<path d="M9.631 15.934l3.666 3.666c0.478 0.478 1.291 0.478 1.769 0l7.303-7.303c0.462-0.463 0.497-1.313 0-1.769-0.5-0.459-1.275-0.494-1.769 0l-7.303 7.303h1.769l-3.666-3.666c-0.463-0.462-1.313-0.497-1.769 0-0.459 0.5-0.494 1.272 0 1.769z"></path>
</symbol>
<symbol id="icon-expert" viewBox="0 0 32 32">
<path d="M1.333 5.333v-4h4c0.177 0 0.346-0.070 0.471-0.195s0.195-0.295 0.195-0.471-0.070-0.346-0.195-0.471c-0.125-0.125-0.295-0.195-0.471-0.195h-4.667c-0.177 0-0.346 0.070-0.471 0.195s-0.195 0.295-0.195 0.471v4.667c0 0.177 0.070 0.346 0.195 0.471s0.295 0.195 0.471 0.195 0.346-0.070 0.471-0.195c0.125-0.125 0.195-0.295 0.195-0.471zM5.333 30.667h-4v-4c0-0.177-0.070-0.346-0.195-0.471s-0.295-0.195-0.471-0.195-0.346 0.070-0.471 0.195c-0.125 0.125-0.195 0.295-0.195 0.471v4.667c0 0.177 0.070 0.346 0.195 0.471s0.295 0.195 0.471 0.195h4.667c0.177 0 0.346-0.070 0.471-0.195s0.195-0.295 0.195-0.471-0.070-0.346-0.195-0.471c-0.125-0.125-0.295-0.195-0.471-0.195zM30.667 26.667v4h-4c-0.177 0-0.346 0.070-0.471 0.195s-0.195 0.295-0.195 0.471 0.070 0.346 0.195 0.471c0.125 0.125 0.295 0.195 0.471 0.195h4.667c0.177 0 0.346-0.070 0.471-0.195s0.195-0.295 0.195-0.471v-4.667c0-0.177-0.070-0.346-0.195-0.471s-0.295-0.195-0.471-0.195-0.346 0.070-0.471 0.195c-0.125 0.125-0.195 0.295-0.195 0.471zM31.333 0h-4.667c-0.177 0-0.346 0.070-0.471 0.195s-0.195 0.295-0.195 0.471 0.070 0.346 0.195 0.471c0.125 0.125 0.295 0.195 0.471 0.195h4v4c0 0.177 0.070 0.346 0.195 0.471s0.295 0.195 0.471 0.195 0.346-0.070 0.471-0.195c0.125-0.125 0.195-0.295 0.195-0.471v-4.667c0-0.177-0.070-0.346-0.195-0.471s-0.295-0.195-0.471-0.195zM31.333 15.333h-1.333c-0.162-3.484-1.619-6.782-4.085-9.248s-5.764-3.923-9.248-4.085v-1.333c0-0.177-0.070-0.346-0.195-0.471s-0.295-0.195-0.471-0.195-0.346 0.070-0.471 0.195c-0.125 0.125-0.195 0.295-0.195 0.471v1.333c-3.484 0.162-6.782 1.619-9.248 4.085s-3.923 5.764-4.085 9.248h-1.333c-0.177 0-0.346 0.070-0.471 0.195s-0.195 0.295-0.195 0.471 0.070 0.346 0.195 0.471c0.125 0.125 0.295 0.195 0.471 0.195h1.333c0.162 3.484 1.619 6.782 4.085 9.248s5.764 3.923 9.248 4.085v1.333c0 0.177 0.070 0.346 0.195 0.471s0.295 0.195 0.471 0.195 0.346-0.070 0.471-0.195c0.125-0.125 0.195-0.295 0.195-0.471v-1.333c3.484-0.162 6.782-1.619 9.248-4.085s3.923-5.764 4.085-9.248h1.333c0.177 0 0.346-0.070 0.471-0.195s0.195-0.295 0.195-0.471-0.070-0.346-0.195-0.471c-0.125-0.125-0.295-0.195-0.471-0.195zM16.667 27.333c-2.265 0.133-4.518-0.416-6.468-1.578s-3.505-2.881-4.466-4.937c-0.961-2.056-1.283-4.352-0.924-6.593s1.382-4.322 2.938-5.974c1.555-1.652 3.571-2.8 5.785-3.294s4.527-0.312 6.637 0.523 3.921 2.284 5.198 4.159c1.277 1.875 1.962 4.091 1.966 6.36 0.005 2.894-1.097 5.68-3.080 7.787s-4.698 3.376-7.586 3.546z"></path>
<path d="M8.113 13.447c-0.373 0.373-0.628 0.848-0.731 1.366s-0.050 1.054 0.152 1.542c0.202 0.488 0.544 0.904 0.983 1.197s0.955 0.449 1.483 0.449h2v-5.333c-1.88 0-2.9-0.193-3.887 0.78zM9.333 19.273v1.393c0 0.354 0.14 0.693 0.39 0.943s0.589 0.39 0.943 0.39c0.354 0 0.693-0.14 0.943-0.39s0.391-0.589 0.391-0.943v-1.333c-0.889 0.047-1.781 0.027-2.667-0.060zM13.333 18.333l4.667 2.333v-10.667l-4.667 2.333v6zM19.333 13.453v3.76c0.386-0.14 0.72-0.396 0.955-0.732s0.362-0.737 0.362-1.148-0.126-0.812-0.362-1.148c-0.236-0.336-0.569-0.592-0.955-0.732zM24.667 14.667h-1.333c-0.177 0-0.346 0.070-0.471 0.195s-0.195 0.295-0.195 0.471 0.070 0.346 0.195 0.471c0.125 0.125 0.295 0.195 0.471 0.195h1.333c0.177 0 0.346-0.070 0.471-0.195s0.195-0.295 0.195-0.471-0.070-0.346-0.195-0.471c-0.125-0.125-0.295-0.195-0.471-0.195zM22.16 13.173c0.4 0 0.553-0.28 1.413-1.14 0.084-0.053 0.154-0.124 0.207-0.207s0.086-0.178 0.098-0.276c0.012-0.098 0.002-0.198-0.030-0.292s-0.084-0.179-0.152-0.251c-0.069-0.071-0.152-0.126-0.245-0.161s-0.192-0.049-0.29-0.040c-0.099 0.008-0.194 0.038-0.28 0.088s-0.159 0.118-0.215 0.2l-0.94 0.94c-0.092 0.091-0.155 0.206-0.183 0.333s-0.018 0.258 0.028 0.379c0.046 0.121 0.126 0.226 0.23 0.302s0.229 0.12 0.358 0.127zM22.667 17.693c-0.129-0.129-0.304-0.202-0.487-0.202s-0.358 0.073-0.487 0.202-0.202 0.304-0.202 0.487c0 0.183 0.073 0.358 0.202 0.487 1.020 1.027 1.060 1.14 1.413 1.14 0.132-0.001 0.261-0.040 0.37-0.114s0.194-0.178 0.244-0.3 0.063-0.256 0.036-0.385c-0.026-0.129-0.090-0.248-0.184-0.341l-0.907-0.973z"></path>
</symbol>
<symbol id="icon-trend-down" viewBox="0 0 32 32">
<path d="M23 16.667v2.667c-0.001 0.265-0.107 0.519-0.294 0.706s-0.441 0.293-0.706 0.294h-2.667c-0.265 0-0.52-0.105-0.707-0.293s-0.293-0.442-0.293-0.707 0.105-0.52 0.293-0.707c0.188-0.188 0.442-0.293 0.707-0.293h0.252l-3.031-3.031-1.456 2.185c-0.082 0.123-0.19 0.227-0.317 0.303s-0.269 0.124-0.416 0.138c-0.147 0.015-0.296-0.004-0.435-0.054s-0.266-0.131-0.37-0.236l-4.267-4.267c-0.177-0.19-0.273-0.44-0.268-0.699s0.11-0.506 0.293-0.689 0.43-0.288 0.689-0.293c0.259-0.005 0.51 0.092 0.699 0.268l3.405 3.404 1.456-2.185c0.082-0.123 0.191-0.226 0.317-0.303s0.269-0.124 0.416-0.139c0.147-0.015 0.294 0.003 0.433 0.053s0.264 0.131 0.367 0.236l3.893 3.892v-0.252c0-0.265 0.105-0.52 0.293-0.707s0.442-0.293 0.707-0.293 0.52 0.105 0.707 0.293c0.188 0.188 0.293 0.442 0.293 0.707h0.005zM30.333 12v8c0 7.243-3.089 10.333-10.333 10.333h-8c-7.244 0-10.333-3.091-10.333-10.333v-8c0-7.243 3.089-10.333 10.333-10.333h8c7.244 0 10.333 3.091 10.333 10.333zM28.333 12c0-6.152-2.181-8.333-8.333-8.333h-8c-6.152 0-8.333 2.181-8.333 8.333v8c0 6.152 2.181 8.333 8.333 8.333h8c6.152 0 8.333-2.181 8.333-8.333v-8z"></path>
</symbol>
<symbol id="icon-optimization" viewBox="0 0 32 32">
<path d="M19.549 0.482c-6.604 0-11.971 5.372-11.971 11.971s5.367 11.966 11.971 11.966c6.599 0 11.966-5.362 11.966-11.961 0-6.594-5.367-11.966-11.966-11.976zM19.544 21.297c-4.887 0-8.868-3.971-8.868-8.848 0-4.882 3.981-8.853 8.868-8.853 4.878 0.005 8.844 3.981 8.844 8.858s-3.966 8.844-8.844 8.844z"></path>
<path d="M10.718 24.213l1.268-1.268c-1.125-0.815-2.109-1.799-2.928-2.924l-1.265 1.265-0.582-0.582c-0.184-0.184-0.504-0.184-0.689 0l-5.047 5.047c-1.319 1.319-1.319 3.462 0 4.776 1.315 1.315 3.456 1.324 4.781 0l5.047-5.047c0.189-0.189 0.189-0.495 0-0.684l-0.584-0.584zM18.419 10.877l-0.499-0.31c-0.010-0.145-0.034-0.286-0.073-0.427l0.369-0.465c0.063-0.078 0.068-0.189 0.015-0.276l-0.344-0.543c-0.053-0.087-0.16-0.131-0.262-0.107l-0.567 0.136c-0.111-0.092-0.233-0.175-0.359-0.252l-0.068-0.582c-0.010-0.102-0.087-0.184-0.184-0.208l-0.625-0.141c-0.102-0.019-0.204 0.024-0.262 0.112l-0.305 0.495c-0.145 0.015-0.291 0.039-0.431 0.078l-0.461-0.364c-0.078-0.068-0.189-0.073-0.276-0.019l-0.543 0.344c-0.087 0.053-0.131 0.16-0.107 0.262l0.136 0.567c-0.097 0.111-0.179 0.233-0.252 0.359l-0.582 0.068c-0.102 0.010-0.184 0.087-0.208 0.184l-0.141 0.625c-0.024 0.102 0.019 0.204 0.107 0.262l0.499 0.305c0.015 0.145 0.039 0.291 0.078 0.431l-0.368 0.461c-0.063 0.078-0.068 0.189-0.015 0.276l0.344 0.543c0.053 0.087 0.155 0.126 0.257 0.107l0.572-0.136c0.111 0.097 0.233 0.179 0.359 0.252l0.063 0.582c0.015 0.102 0.087 0.184 0.189 0.208l0.625 0.141c0.019 0.005 0.034 0.005 0.053 0.005 0.082 0 0.16-0.044 0.204-0.112l0.31-0.499c0.145-0.015 0.291-0.039 0.432-0.078l0.456 0.368c0.082 0.063 0.194 0.068 0.281 0.015l0.543-0.344c0.087-0.053 0.126-0.16 0.107-0.257l-0.136-0.577c0.092-0.111 0.179-0.228 0.247-0.354l0.587-0.063c0.102-0.015 0.184-0.087 0.209-0.189l0.141-0.625c0.019-0.102-0.024-0.204-0.112-0.257zM16.082 11.764c-0.514 0.339-1.256 0.204-1.619-0.364-0.339-0.553-0.199-1.261 0.364-1.619 0.533-0.339 1.285-0.165 1.619 0.364 0.33 0.514 0.218 1.251-0.364 1.619zM26.182 14.014l-0.718-0.441c-0.015-0.218-0.049-0.436-0.112-0.65l0.524-0.664c0.068-0.078 0.073-0.189 0.015-0.276l-0.465-0.732c-0.053-0.087-0.155-0.136-0.257-0.107l-0.819 0.189c-0.165-0.141-0.344-0.271-0.538-0.378l-0.097-0.839c-0.015-0.102-0.087-0.184-0.189-0.209l-0.848-0.189c-0.097-0.019-0.204 0.019-0.257 0.107l-0.441 0.718c-0.223 0.015-0.441 0.053-0.655 0.112l-0.659-0.524c-0.082-0.063-0.194-0.068-0.281-0.015l-0.732 0.465c-0.087 0.058-0.131 0.16-0.107 0.262l0.194 0.815c-0.145 0.17-0.276 0.349-0.383 0.543l-0.834 0.097c-0.102 0.010-0.184 0.087-0.209 0.189l-0.189 0.844c-0.024 0.102 0.019 0.208 0.107 0.262l0.718 0.441c0.015 0.223 0.048 0.441 0.111 0.655l-0.524 0.655c-0.063 0.082-0.068 0.194-0.015 0.281l0.465 0.732c0.053 0.087 0.155 0.131 0.257 0.107l0.819-0.189c0.17 0.145 0.349 0.272 0.543 0.378l0.092 0.839c0.015 0.102 0.087 0.184 0.189 0.208l0.849 0.189c0.015 0.005 0.034 0.005 0.053 0.005 0.082 0 0.16-0.044 0.204-0.116l0.446-0.713c0.218-0.015 0.436-0.053 0.65-0.112l0.659 0.524c0.082 0.063 0.194 0.068 0.281 0.015l0.732-0.465c0.087-0.053 0.131-0.16 0.107-0.257l-0.194-0.824c0.145-0.165 0.276-0.349 0.383-0.538l0.834-0.097c0.102-0.010 0.189-0.087 0.209-0.189l0.189-0.844c0.024-0.102-0.019-0.209-0.107-0.262zM23.147 15.284c-0.878 0.533-1.93 0.238-2.419-0.543-0.519-0.815-0.276-1.901 0.543-2.419 0.81-0.519 1.901-0.276 2.415 0.543 0.519 0.815 0.276 1.901-0.538 2.419z"></path>
</symbol>
<symbol id="icon-focus" viewBox="0 0 32 32">
<path d="M29.44 14.507h-1.598c-0.333-2.628-1.531-5.071-3.404-6.945s-4.316-3.071-6.945-3.404v-1.598c0-0.396-0.157-0.776-0.437-1.056s-0.66-0.437-1.056-0.437-0.776 0.157-1.056 0.437c-0.28 0.28-0.437 0.66-0.437 1.056v1.598c-2.628 0.333-5.071 1.531-6.945 3.404s-3.071 4.316-3.404 6.945h-1.598c-0.396 0-0.776 0.157-1.056 0.437s-0.437 0.66-0.437 1.056 0.157 0.776 0.437 1.056c0.28 0.28 0.66 0.437 1.056 0.437h1.598c0.333 2.628 1.531 5.071 3.404 6.945s4.316 3.071 6.945 3.404v1.598c0 0.396 0.157 0.776 0.437 1.056s0.66 0.437 1.056 0.437 0.776-0.157 1.056-0.437c0.28-0.28 0.437-0.66 0.437-1.056v-1.598c2.628-0.333 5.071-1.531 6.945-3.404s3.071-4.316 3.404-6.945h1.598c0.396 0 0.776-0.157 1.056-0.437s0.437-0.66 0.437-1.056-0.157-0.776-0.437-1.056c-0.28-0.28-0.66-0.437-1.056-0.437zM16 24.96c-1.772 0-3.504-0.526-4.978-1.51s-2.622-2.384-3.3-4.021c-0.678-1.637-0.856-3.439-0.51-5.177s1.199-3.335 2.452-4.588 2.85-2.106 4.588-2.452c1.738-0.346 3.54-0.168 5.177 0.51s3.037 1.827 4.021 3.3 1.51 3.206 1.51 4.978c0 2.376-0.944 4.655-2.624 6.336s-3.959 2.624-6.336 2.624zM16 11.52c-0.886 0-1.752 0.263-2.489 0.755s-1.311 1.192-1.65 2.011c-0.339 0.819-0.428 1.719-0.255 2.588s0.6 1.667 1.226 2.294c0.627 0.627 1.425 1.053 2.294 1.226s1.77 0.084 2.588-0.255c0.819-0.339 1.518-0.913 2.011-1.65s0.755-1.603 0.755-2.489c0-1.188-0.472-2.328-1.312-3.168s-1.98-1.312-3.168-1.312zM16 17.493c-0.295 0-0.584-0.088-0.83-0.252s-0.437-0.397-0.55-0.67c-0.113-0.273-0.143-0.573-0.085-0.863s0.2-0.556 0.409-0.765c0.209-0.209 0.475-0.351 0.765-0.409s0.59-0.028 0.863 0.085c0.273 0.113 0.506 0.304 0.67 0.55s0.252 0.534 0.252 0.83c0 0.396-0.157 0.776-0.437 1.056s-0.66 0.437-1.056 0.437z"></path>
</symbol>
<symbol id="icon-menu" viewBox="0 0 32 32">
<path d="M24.033 3.121h-21.974c-2.35-0.078-2.35 3.027 0 2.949h21.886c2.307 0.078 2.397-2.949 0.090-2.949h-0.002zM2.059 14.915c-2.26 0-2.26 2.947 0 2.947h12.389c2.307 0 2.307-2.947 0-2.947h-12.389zM2.059 26.709c-2.26 0-2.26 2.948 0 2.948h27.762c2.26 0 2.26-2.947 0-2.947h-27.762z"></path>
</symbol>
<symbol id="icon-main_logo" viewBox="0 0 30 32">
<path d="M20.093 0h2.11c-0.032 1.166-0.528 2.071-1.438 2.767 1.225 1.926 1.171 3.805-0.165 5.664 0.032 0.024 0.066 0.059 0.106 0.080 1.109 0.571 1.7 1.491 1.807 2.716 0.075 0.862-0.084 1.686-0.53 2.44-1.015 1.715-3.325 1.973-4.699 0.521-0.276-0.292-0.524-0.61-0.779-0.922-0.347-0.424-0.897-0.594-1.402-0.426-0.479 0.161-0.761 0.574-0.767 1.151-0.003 0.259 0.009 0.519 0.030 0.778 0.013 0.153-0.033 0.213-0.19 0.211-0.512-0.006-1.025 0.004-1.538-0.010-0.069-0.002-0.183-0.095-0.194-0.16-0.111-0.676-0.107-1.349 0.090-2.014 0.491-1.659 2.085-2.502 3.75-2.004 0.709 0.212 1.247 0.637 1.696 1.2 0.12 0.15 0.243 0.299 0.36 0.453 0.308 0.408 0.715 0.628 1.224 0.532 0.529-0.1 0.807-0.497 0.935-0.984 0.172-0.658 0.034-1.266-0.412-1.786-0.452-0.528-1.036-0.538-1.64-0.347-2.195 0.692-4.529-0.271-5.554-2.302-0.835-1.655-0.592-3.654 0.616-5.056 1.236-1.435 3.17-1.966 4.989-1.369 0.714 0.234 1.368-0.138 1.539-0.877 0.018-0.081 0.035-0.162 0.056-0.257l-0.001 0.001zM14.539 5.473c-0.006 1.37 1.096 2.486 2.463 2.493 1.373 0.007 2.493-1.093 2.498-2.457 0.005-1.374-1.088-2.48-2.462-2.492-1.369-0.011-2.493 1.093-2.499 2.456l0.001 0.001z"></path>
<path d="M8.644 10.581c0-1.373 0.005-2.746-0.005-4.118-0.002-0.241 0.067-0.313 0.311-0.311 1.579 0.010 3.158 0.009 4.737 0.001 0.216-0.001 0.296 0.050 0.289 0.279-0.016 0.527-0.013 1.055-0.001 1.582 0.005 0.204-0.053 0.276-0.267 0.273-0.856-0.011-1.713-0.005-2.57-0.005-0.241 0-0.361 0.124-0.361 0.372 0 2.009 0 4.018 0 6.026 0 0.22-0.109 0.33-0.327 0.33-0.504 0-1.009-0.011-1.512 0.005-0.229 0.008-0.3-0.056-0.299-0.291 0.010-1.381 0.005-2.762 0.005-4.143l0.001 0.001z"></path>
<path d="M7.953 2.65c0.005-1.003 0.832-1.816 1.839-1.807 1.011 0.009 1.815 0.823 1.811 1.834-0.004 1.003-0.828 1.814-1.838 1.808-1.006-0.005-1.817-0.826-1.813-1.834z"></path>
<path d="M2.957 19.639v4.641h-1.064v-4.641h1.064z"></path>
<path d="M8.127 19.639v4.641h-1.071l-2.123-2.937v2.937h-1.064v-4.641h1.098l2.096 2.897v-2.897h1.065z"></path>
<path d="M12.458 20.043l-0.452 0.709c-0.377-0.256-0.785-0.385-1.224-0.385-0.111 0-0.217 0.010-0.319 0.030s-0.199 0.064-0.293 0.133c-0.093 0.068-0.139 0.158-0.139 0.268 0 0.141 0.071 0.25 0.213 0.325 0.133 0.075 0.359 0.164 0.678 0.265 0.408 0.124 0.705 0.227 0.892 0.312 0.563 0.252 0.845 0.665 0.845 1.24 0 0.261-0.058 0.488-0.173 0.683s-0.27 0.346-0.466 0.454c-0.195 0.109-0.402 0.188-0.622 0.239s-0.451 0.076-0.695 0.076c-0.47 0-0.878-0.082-1.224-0.245-0.355-0.168-0.619-0.338-0.792-0.511l0.526-0.703c0.466 0.385 0.973 0.577 1.524 0.577 0.222 0 0.42-0.042 0.595-0.126s0.263-0.223 0.263-0.418c0-0.123-0.040-0.227-0.12-0.312-0.089-0.079-0.195-0.146-0.319-0.199-0.124-0.049-0.311-0.108-0.559-0.179-0.186-0.053-0.339-0.101-0.459-0.142s-0.256-0.103-0.409-0.182c-0.153-0.079-0.274-0.164-0.363-0.252s-0.164-0.204-0.226-0.348c-0.062-0.144-0.093-0.304-0.093-0.481 0-0.451 0.171-0.79 0.512-1.018s0.749-0.341 1.224-0.341c0.612 0 1.171 0.177 1.677 0.53l0.001-0.001z"></path>
<path d="M14.401 19.639v4.641h-1.064v-4.641h1.064z"></path>
<path d="M19.317 20.149l-0.539 0.756c-0.364-0.292-0.752-0.438-1.164-0.438s-0.755 0.142-1.014 0.428c-0.259 0.285-0.389 0.637-0.389 1.057s0.132 0.777 0.396 1.070c0.264 0.294 0.6 0.441 1.008 0.441 0.35 0 0.69-0.117 1.018-0.351v-0.743h-1.191v-0.743h2.155v1.783c-0.519 0.654-1.187 0.981-2.003 0.981-0.701 0-1.288-0.235-1.76-0.706s-0.708-1.051-0.708-1.74 0.24-1.295 0.722-1.75c0.481-0.455 1.077-0.683 1.787-0.683s1.244 0.212 1.683 0.636h-0.002z"></path>
<path d="M24.413 19.639v4.641h-1.064v-1.876h-1.896v1.876h-1.064v-4.641h1.064v1.81h1.896v-1.81h1.064z"></path>
<path d="M28.918 19.639v0.902h-1.43v3.739h-1.064v-3.739h-1.43v-0.902h3.925z"></path>
<path d="M4.192 27.757l-0.539 0.756c-0.364-0.292-0.752-0.438-1.164-0.438s-0.755 0.142-1.014 0.428c-0.259 0.285-0.389 0.637-0.389 1.057s0.132 0.777 0.396 1.070c0.264 0.294 0.6 0.441 1.008 0.441 0.35 0 0.69-0.117 1.018-0.351v-0.742h-1.191v-0.743h2.155v1.783c-0.519 0.654-1.187 0.981-2.003 0.981-0.701 0-1.288-0.235-1.76-0.706s-0.708-1.051-0.708-1.74c0-0.689 0.24-1.295 0.722-1.75s1.077-0.683 1.787-0.683 1.244 0.212 1.683 0.636h-0.002z"></path>
<path d="M9.008 28.685c0 0.331-0.092 0.61-0.276 0.836s-0.438 0.389-0.762 0.49l1.191 1.876h-1.191l-1.085-1.79h-0.559v1.79h-1.064v-4.641h2.069c0.474 0 0.873 0.126 1.194 0.378s0.482 0.605 0.482 1.061h0.001zM7.232 28.082h-0.905v1.233h0.905c0.204 0 0.371-0.053 0.499-0.159s0.193-0.258 0.193-0.457c0-0.199-0.063-0.357-0.19-0.461s-0.294-0.156-0.503-0.156v-0.001z"></path>
<path d="M13.639 27.816c0.47 0.464 0.705 1.045 0.705 1.744s-0.239 1.279-0.715 1.743c-0.477 0.464-1.063 0.696-1.759 0.696s-1.29-0.234-1.766-0.703c-0.477-0.469-0.715-1.047-0.715-1.737s0.24-1.279 0.719-1.744c0.479-0.464 1.067-0.696 1.763-0.696s1.3 0.232 1.77 0.696l-0.001 0.001zM10.465 29.56c0 0.407 0.133 0.755 0.399 1.044s0.599 0.434 0.998 0.434 0.743-0.145 1.005-0.434c0.262-0.289 0.392-0.637 0.392-1.044s-0.13-0.772-0.389-1.057c-0.259-0.285-0.595-0.428-1.008-0.428s-0.743 0.145-1.005 0.434-0.392 0.64-0.392 1.051h-0.001z"></path>
<path d="M21.549 27.247l-1.417 4.641h-1.184l-0.972-3.195-0.965 3.195h-1.184l-1.424-4.641h1.151l0.912 3.235 0.984-3.235h1.058l0.978 3.235 0.912-3.235h1.151z"></path>
<path d="M25.694 27.247v0.902h-1.43v3.739h-1.064v-3.739h-1.43v-0.902h3.925z"></path>
<path d="M30.298 27.247v4.641h-1.064v-1.876h-1.896v1.876h-1.064v-4.641h1.064v1.809h1.896v-1.809h1.064z"></path>
</symbol>
</defs>
</svg>
